{
.formatVersion = 3;
axes = (
{
name = Weight;
tag = wght;
}
);
classes = (
{
code = "a aacute abreve acaron acircumflex adieresis adotbelow agrave ahoi amacron aogonek aring aringacute atilde abreveacute abrevedotbelow abrevegrave abrevehoi abrevetilde acircumflexacute acircumflexdotbelow acircumflexgrave acircumflexhoi acircumflextilde gbreve gcircumflex gcommaaccent gdotaccent germandbls alpha alphatonos acyr vecyr gecyr decyr zhecyr zecyr icyr ishortcyr kacyr elcyr pecyr tecyr efcyr tsecyr shacyr shchacyr hardcyr softcyr yucyr yacyr Decyr Zhecyr Kacyr Elcyr Efcyr Yacyr adieresiscyr abrevecyr igravecyr";
name = aalt;
},
{
code = "a.alt01 aacute.alt01 abreve.alt01 acaron.alt01 acircumflex.alt01 adieresis.alt01 adotbelow.alt01 agrave.alt01 ahoi.alt01 amacron.alt01 aogonek.alt01 aring.alt01 aringacute.alt01 atilde.alt01 abreveacute.alt01 abrevedotbelow.alt01 abrevegrave.alt01 abrevehoi.alt01 abrevetilde.alt01 acircumflexacute.alt01 acircumflexdotbelow.alt01 acircumflexgrave.alt01 acircumflexhoi.alt01 acircumflextilde.alt01 gbreve.alt01 gcircumflex.alt01 gcommaaccent.alt01 gdotaccent.alt01 germandbls.alt01 alpha.alt01 alphatonos.alt01 acyr.alt01 vecyr.loclBGR gecyr.loclBGR decyr.loclBGR zhecyr.loclBGR zecyr.loclBGR icyr.loclBGR ishortcyr.loclBGR kacyr.loclBGR elcyr.loclBGR pecyr.loclBGR tecyr.loclBGR efcyr.loclBGR tsecyr.loclBGR shacyr.loclBGR shchacyr.loclBGR hardcyr.loclBGR softcyr.loclBGR yucyr.loclBGR yacyr.loclBGR Decyr.loclBGR Zhecyr.loclBGR Kacyr.loclBGR Elcyr.loclBGR Efcyr.loclBGR Yacyr.loclBGR adieresiscyr.alt01 abrevecyr.alt01 igravecyr.loclBGR";
name = aalt2;
},
{
code = "hookabovecomb breveacute brevegrave brevehook brevetilde dieresisacute dieresiscaron dieresisgrave circumflexacute circumflexbreve circumflexgrave circumflexhook dieresismacron circumflextilde";
name = ccmp;
},
{

glyphs = (
{
glyphname = .notdef;
layers = (
{
layerId = "8DAE0D43-6C5F-4F99-A87C-49FC71346395";
shapes = (
{
closed = 1;
nodes = (
(32,0,l),
(440,0,l),
(440,780,l),
(32,780,l)
);
},
{
closed = 1;
nodes = (
(159,127,l),
(159,653,l),
(313,653,l),
(313,127,l)
);
}
);
width = 472;
},
{
layerId = "9788F852-2321-4FD5-ACA0-A5D578398D57";
shapes = (
{
closed = 1;
nodes = (
(32,0,l),
(440,0,l),
(440,780,l),
(32,780,l)
);
},
{
closed = 1;
nodes = (
(132,100,l),
(132,680,l),
(340,680,l),
(340,100,l)
);
}
);
width = 472;
},
{
layerId = "5F1C4D15-0292-4B2F-99F7-EAF0A1F73F4C";
shapes = (
{
closed = 1;
nodes = (
(32,0,l),
(440,0,l),
(440,780,l),
(32,780,l)
);
},
{
closed = 1;
nodes = (
(92,60,l),
(92,720,l),
(380,720,l),
(380,60,l)
);
}
);
width = 472;
},
{
layerId = "DC266226-4982-477B-8795-7301990C7B86";
shapes = (
{
closed = 1;
nodes = (
(32,0,l),
(440,0,l),
(440,780,l),
(32,780,l)
);
},
{
closed = 1;
nodes = (
(48,16,l),
(48,764,l),
(424,764,l),
(424,16,l)
);
}
);
width = 472;
}
);
},
{
glyphname = a;
layers = (
{
anchors = (
{
name = b.uni0327;
position = "{269, 0}";
},
{
name = b.uni0328;
position = "{539, 0}";
},
{
name = t.uni0303;
position = "{268, 540}";
}
);
layerId = "8DAE0D43-6C5F-4F99-A87C-49FC71346395";
shapes = (
{
closed = 1;
nodes = (
(345,0,l),
(519,0,l),
(519,339,ls),
(519,473,o),
(442,543,o),
(278,543,cs),
(158,543,o),
(100,512,o),
(47,444,c),
(161,344,l),
(181,366,o),
(205,396,o),
(262,396,cs),
(312,396,o),
(326,369,o),
(326,333,cs),
(326,312,l),
(256,312,ls),
(169,312,o),
(97,288,o),
(58,237,c),
(37,212,o),
(27,179,o),
(27,139,cs),
(27,51,o),
(81,-12,o),
(184,-12,cs),
(269,-12,o),
(328,26,o),
(341,97,c),
(378,97,l),
(345,141,l)
);
},
{
closed = 1;
nodes = (
(326,212,l),
(326,165,ls),
(326,135,o),
(313,122,o),
(294,117,cs),
(287,115,o),
(277,114,o),
(267,114,cs),
(234,114,o),
(220,127,o),
(220,154,cs),
(220,165,ls),
(220,196,o),
(242,212,o),
(277,212,cs)
);
}
);
width = 598;
},
{
anchors = (
{
name = b.uni0327;
position = "{269, 0}";
},
{
name = b.uni0328;
position = "{539, 0}";
},
{
name = t.uni0303;
position = "{268, 540}";
}
);
layerId = "9788F852-2321-4FD5-ACA0-A5D578398D57";
shapes = (
{
closed = 1;
nodes = (
(355,0,l),
(490,0,l),
(490,345,ls),
(490,469,o),
(414,537,o),
(266,537,cs),
(157,537,o),
(97,500,o),
(54,437,c),
(142,359,l),
(165,391,o),
(196,421,o),
(255,421,cs),
(318,421,o),
(342,389,o),
(342,338,cs),
(342,305,l),
(259,305,ls),
(167,305,o),
(98,281,o),
(62,233,cs),
(43,209,o),
(34,178,o),
(34,141,cs),
(34,50,o),
(92,-12,o),
(197,-12,cs),
(277,-12,o),
(335,24,o),
(351,92,c),
(387,92,l),
(355,130,l)
);
},
{
closed = 1;
nodes = (
(342,221,l),
(342,159,ls),
(342,127,o),
(324,107,o),
(297,98,cs),
(284,93,o),
(269,91,o),
(252,91,cs),
(208,91,o),
(183,110,o),
(183,147,cs),
(183,162,ls),
(183,201,o),
(213,221,o),
(270,221,cs)
);
}
);
width = 569;
},
{
anchors = (
{
name = b.uni0327;
position = "{269, 0}";
},
{
name = b.uni0328;
position = "{539, 0}";
},
{
name = t.uni0303;
position = "{268, 540}";
}
);
layerId = "5F1C4D15-0292-4B2F-99F7-EAF0A1F73F4C";
shapes = (
{
closed = 1;
nodes = (
(370,0,l),
(446,0,l),
(446,354,ls),
(446,463,o),
(372,528,o),
(248,528,cs),
(155,528,o),
(93,482,o),
(65,427,c),
(113,382,l),
(141,429,o),
(183,459,o),
(244,459,cs),
(327,459,o),
(366,419,o),
(366,346,cs),
(366,295,l),
(264,295,ls),
(164,295,o),
(100,271,o),
(68,227,cs),
(52,204,o),
(44,177,o),
(44,144,cs),
(44,48,o),
(108,-12,o),
(217,-12,cs),
(289,-12,o),
(345,21,o),
(366,84,c),
(401,84,l),
(370,113,l)
);
},
{
closed = 1;
nodes = (
(366,235,l),
(366,150,ls),
(366,115,o),
(341,85,o),
(301,69,cs),
(280,60,o),
(257,56,o),
(230,56,cs),
(169,56,o),
(128,85,o),
(128,136,cs),
(128,157,ls),
(128,208,o),
(169,235,o),
(260,235,cs)
);
}
);
width = 526;
},
{
anchors = (
{
name = b.uni0327;
position = "{248, 0}";
},
{
name = b.uni0328;
position = "{533, 0}";
},
{
name = t.uni0303;
position = "{265, 540}";
}
);
layerId = "DC266226-4982-477B-8795-7301990C7B86";
shapes = (
{
closed = 1;
nodes = (
(393,0,l),
(414,0,l),
(414,352,ls),
(414,459,o),
(360,518,o),
(249,518,cs),
(156,518,o),
(106,477,o),
(78,412,c),
(96,404,l),
(124,471,o),
(173,499,o),
(249,499,cs),
(344,499,o),
(393,453,o),
(393,349,cs),
(393,275,l),
(251,275,ls),
(155,275,o),
(102,249,o),
(79,205,cs),
(67,183,o),
(61,158,o),
(61,130,cs),
(61,39,o),
(120,-12,o),
(224,-12,cs),
(317,-12,o),
(365,29,o),
(390,77,c),
(403,77,l),
(393,87,l)
);
},
{
closed = 1;
nodes = (
(393,257,l),
(393,148,ls),
(393,85,o),
(359,43,o),
(308,23,cs),
(282,12,o),
(254,7,o),
(224,7,cs),
(143,7,o),
(84,46,o),
(84,115,cs),
(84,145,ls),
(84,212,o),
(133,257,o),
(252,257,cs)
);
}
);
width = 509;
}
);
leftKerningGroup = a2;
rightKerningGroup = a;
unicode = 97;
},
{
glyphname = a.alt01;
layers = (
{
layerId = "8DAE0D43-6C5F-4F99-A87C-49FC71346395";
shapes = (
{
closed = 1;
nodes = (
(375,0,l),
(568,0,l),
(568,531,l),
(375,531,l),
(375,440,l),
(369,440,l),
(366,467,o),
(351,491,o),
(325,512,cs),
(298,533,o),
(268,543,o),
(235,543,cs),
(145,543,o),
(88,502,o),
(59,420,c),
(46,379,o),
(38,328,o),
(38,266,cs),
(38,141,o),
(67,60,o),
(124,19,cs),
(153,-3,o),
(190,-12,o),
(235,-12,cs),
(268,-12,o),
(298,-2,o),
(326,20,cs),
(353,41,o),
(368,64,o),
(369,91,c),
(375,91,l)
);
},
{
closed = 1;
nodes = (
(268,140,o),
(238,172,o),
(238,219,cs),
(238,312,ls),
(238,362,o),
(268,391,o),
(302,391,cs),
(331,391,o),
(355,384,o),
(367,365,c),
(372,355,o),
(375,343,o),
(375,329,cs),
(375,198,ls),
(375,174,o),
(362,156,o),
(341,146,c),
(329,142,o),
(317,140,o),
(302,140,cs)
);
}
);
width = 627;
},
{
layerId = "9788F852-2321-4FD5-ACA0-A5D578398D57";
shapes = (
{
closed = 1;
nodes = (
(391,0,l),
(539,0,l),
(539,525,l),
(391,525,l),
(391,437,l),
(386,437,l),
(379,466,o),
(362,490,o),
(336,509,cs),
(309,528,o),
(279,537,o),
(245,537,cs),
(157,537,o),
(97,494,o),
(66,413,cs),
(51,372,o),
(43,322,o),
(43,263,cs),
(43,144,o),
(74,62,o),
(134,20,cs),
(164,-2,o),
(201,-12,o),
(245,-12,cs),
(279,-12,o),
(309,-3,o),
(336,17,cs),
(362,36,o),
(379,59,o),
(386,88,c),
(391,88,l)
);
},
{
closed = 1;
nodes = (
(238,108,o),
(197,152,o),
(197,217,cs),
(197,308,ls),
(197,375,o),
(238,417,o),
(294,417,cs),
(331,417,o),
(362,405,o),
(379,382,cs),
(387,370,o),
(391,356,o),
(391,340,cs),
(391,185,ls),
(391,153,o),
(373,129,o),
(344,117,cs),
(329,111,o),
(313,108,o),
(294,108,cs)
);
}
);
width = 608;
},
{
layerId = "5F1C4D15-0292-4B2F-99F7-EAF0A1F73F4C";
shapes = (
{
closed = 1;
nodes = (
(415,0,l),
(495,0,l),
(495,516,l),
(415,516,l),
(415,432,l),
(411,432,l),
(398,465,o),
(378,489,o),
(352,505,cs),
(326,520,o),
(295,528,o),
(260,528,cs),
(175,528,o),
(110,482,o),
(76,402,cs),
(59,361,o),
(50,313,o),
(50,258,cs),
(50,149,o),
(85,65,o),
(149,21,cs),
(180,-1,o),
(217,-12,o),
(260,-12,cs),
(295,-12,o),
(326,-4,o),
(351,12,cs),
(376,28,o),
(396,52,o),
(411,84,c),
(415,84,l)
);
},
{
closed = 1;
nodes = (
(193,60,o),
(136,122,o),
(136,214,cs),
(136,302,ls),
(136,394,o),
(193,456,o),
(282,456,cs),
(331,456,o),
(373,437,o),
(397,408,cs),
(409,393,o),
(415,376,o),
(415,357,cs),
(415,165,ls),
(415,121,o),
(389,89,o),
(349,73,c),
(329,64,o),
(307,60,o),
(282,60,cs)
);
}
);
width = 580;
},
{
layerId = "DC266226-4982-477B-8795-7301990C7B86";
shapes = (
{
closed = 1;
nodes = (
(439,0,l),
(460,0,l),
(460,506,l),
(439,506,l),
(439,428,l),
(436,428,l),
(425,450,o),
(407,471,o),
(380,490,cs),
(353,509,o),
(317,518,o),
(272,518,cs),
(184,518,o),
(120,479,o),
(86,400,cs),
(69,361,o),
(60,312,o),
(60,253,cs),
(60,136,o),
(95,57,o),
(159,18,cs),
(190,-2,o),
(228,-12,o),
(272,-12,cs),
(317,-12,o),
(353,-3,o),
(380,17,cs),
(407,36,o),
(425,56,o),
(436,78,c),
(439,78,l)
);
},
{
closed = 1;
nodes = (
(151,7,o),
(83,92,o),
(83,229,cs),
(83,277,ls),
(83,414,o),
(151,499,o),
(272,499,cs),
(331,499,o),
(384,475,o),
(416,435,c),
(431,414,o),
(439,390,o),
(439,363,cs),
(439,143,ls),
(439,90,o),
(405,47,o),
(354,24,cs),
(329,13,o),
(301,7,o),
(272,7,cs)
);
}
);
width = 565;
}
);
leftKerningGroup = d;
rightKerningGroup = u;
},
{
glyphname = b;
layers = (
{
anchors = (
{
name = b.uni0327;
position = "{317, 0}";
}
);
layerId = "8DAE0D43-6C5F-4F99-A87C-49FC71346395";
shapes = (
{
closed = 1;
nodes = (
(58,0,l),
(252,0,l),
(252,91,l),
(257,91,l),
(259,64,o),
(273,41,o),
(302,20,c),
(328,-2,o),
(358,-12,o),
(392,-12,cs),
(482,-12,o),
(538,29,o),
(567,112,c),
(580,153,o),
(588,205,o),
(588,266,cs),
(588,391,o),
(560,473,o),
(504,513,cs),
(474,534,o),
(438,543,o),
(392,543,cs),
(358,543,o),
(329,533,o),
(303,512,c),
(275,491,o),
(260,467,o),
(257,440,c),
(252,440,l),
(252,740,l),
(58,740,l)
);
},
{
closed = 1;
nodes = (
(295,140,o),
(272,149,o),
(261,167,c),
(254,176,o),
(252,186,o),
(252,198,cs),
(252,329,ls),
(252,356,o),
(264,376,o),
(285,385,c),
(297,389,o),
(309,391,o),
(325,391,cs),
(357,391,o),
(389,362,o),
(389,312,cs),
(389,219,ls),
(389,172,o),
(357,140,o),
(325,140,cs)
);
}
);
width = 627;
},
{
anchors = (
{
name = b.uni0327;
position = "{317, 0}";
}
);
layerId = "9788F852-2321-4FD5-ACA0-A5D578398D57";
shapes = (
{
closed = 1;
nodes = (
(69,0,l),
(217,0,l),
(217,88,l),
(222,88,l),
(229,59,o),
(246,36,o),
(273,17,c),
(299,-3,o),
(329,-12,o),
(363,-12,cs),
(452,-12,o),
(511,31,o),
(542,113,cs),
(557,154,o),
(565,204,o),
(565,263,cs),
(565,382,o),
(534,464,o),
(475,506,cs),
(445,527,o),
(408,537,o),
(363,537,cs),
(329,537,o),
(299,528,o),
(273,509,cs),
(246,490,o),
(229,466,o),
(222,437,c),
(217,437,l),
(217,740,l),
(69,740,l)
);
},
{
closed = 1;
nodes = (
(277,108,o),
(246,120,o),
(230,144,c),
(221,155,o),
(217,169,o),
(217,185,cs),
(217,340,ls),
(217,372,o),
(235,396,o),
(264,408,cs),
(279,414,o),
(295,417,o),
(314,417,cs),
(370,417,o),
(411,375,o),
(411,308,cs),
(411,217,ls),
(411,152,o),
(370,108,o),
(314,108,cs)
);
}
);
width = 608;
},
{
anchors = (
{
name = b.uni0327;
position = "{317, 0}";
}
);
layerId = "5F1C4D15-0292-4B2F-99F7-EAF0A1F73F4C";
shapes = (
{
closed = 1;
nodes = (
(85,0,l),
(165,0,l),
(165,84,l),
(169,84,l),
(184,52,o),
(205,28,o),
(230,12,cs),
(255,-4,o),
(285,-12,o),
(320,-12,cs),
(407,-12,o),
(471,34,o),
(505,115,cs),
(522,156,o),
(530,203,o),
(530,258,cs),
(530,369,o),
(495,451,o),
(432,495,cs),
(401,517,o),
(363,528,o),
(320,528,cs),
(285,528,o),
(254,520,o),
(228,505,cs),
(202,489,o),
(182,465,o),
(169,432,c),
(165,432,l),
(165,740,l),
(85,740,l)
);
},
{
closed = 1;
nodes = (
(250,60,o),
(207,77,o),
(183,109,cs),
(171,124,o),
(165,143,o),
(165,165,cs),
(165,357,ls),
(165,396,o),
(191,426,o),
(232,443,cs),
(252,452,o),
(274,456,o),
(298,456,cs),
(389,456,o),
(444,394,o),
(444,302,cs),
(444,214,ls),
(444,122,o),
(389,60,o),
(298,60,cs)
);
}
);
width = 580;
},
{
anchors = (
{
name = b.uni0327;
position = "{303, 0}";
}
);
layerId = "DC266226-4982-477B-8795-7301990C7B86";
shapes = (
{
closed = 1;
nodes = (
(105,0,l),
(126,0,l),
(126,78,l),
(129,78,l),
(140,56,o),
(159,36,o),
(186,17,cs),
(213,-3,o),
(248,-12,o),
(293,-12,cs),
(382,-12,o),
(446,27,o),
(480,106,cs),
(497,145,o),
(505,194,o),
(505,253,cs),
(505,370,o),
(470,449,o),
(407,489,cs),
(376,508,o),
(338,518,o),
(293,518,cs),
(248,518,o),
(213,509,o),
(186,490,cs),
(159,471,o),
(140,450,o),
(129,428,c),
(126,428,l),
(126,740,l),
(105,740,l)
);
},
{
closed = 1;
nodes = (
(234,7,o),
(181,31,o),
(150,72,cs),
(134,93,o),
(126,116,o),
(126,143,cs),
(126,363,ls),
(126,418,o),
(160,459,o),
(211,482,cs),
(236,493,o),
(264,499,o),
(293,499,cs),
(414,499,o),
(482,414,o),
(482,277,cs),
(482,229,ls),
(482,92,o),
(414,7,o),
(293,7,cs)
);
}
);
width = 565;
}
);
leftKerningGroup = b2;
rightKerningGroup = b;
unicode = 98;
},
{
glyphname = c;
layers = (
{
anchors = (
{
name = b.uni0327;
position = "{262, 0}";
},
{
name = t.uni0303;
position = "{274, 540}";
}
);
layerId = "8DAE0D43-6C5F-4F99-A87C-49FC71346395";
shapes = (
{
closed = 1;
nodes = (
(389,-12,o),
(470,30,o),
(507,148,c),
(354,206,l),
(351,190,o),
(346,175,o),
(338,159,c),
(328,142,o),
(310,134,o),
(284,134,cs),
(247,134,o),
(228,163,o),
(228,212,cs),
(228,317,ls),
(228,368,o),
(247,395,o),
(284,395,cs),
(328,395,o),
(347,363,o),
(350,331,c),
(505,395,l),
(473,493,o),
(393,543,o),
(284,543,cs),
(201,543,o),
(138,517,o),
(95,468,cs),
(50,419,o),
(29,351,o),
(29,266,cs),
(29,182,o),
(50,113,o),
(95,64,c),
(138,14,o),
(201,-12,o),
(284,-12,cs)
);
}
);
width = 526;
},
{
anchors = (
{
name = b.uni0327;
position = "{262, 0}";
},
{
name = t.uni0303;
position = "{274, 540}";
}
);
layerId = "9788F852-2321-4FD5-ACA0-A5D578398D57";
shapes = (
{
closed = 1;
nodes = (
(384,-12,o),
(459,33,o),
(494,133,c),
(379,183,l),
(372,162,o),
(361,144,o),
(347,128,cs),
(332,112,o),
(310,104,o),
(281,104,cs),
(221,104,o),
(190,148,o),
(190,213,cs),
(190,311,ls),
(190,378,o),
(221,420,o),
(281,420,cs),
(333,420,o),
(362,388,o),
(371,348,c),
(491,400,l),
(460,487,o),
(388,537,o),
(281,537,cs),
(202,537,o),
(142,512,o),
(100,463,cs),
(57,414,o),
(36,347,o),
(36,263,cs),
(36,179,o),
(57,112,o),
(100,63,cs),
(142,13,o),
(202,-12,o),
(281,-12,cs)
);
}
);
width = 517;
},
{
anchors = (
{
name = b.uni0327;
position = "{262, 0}";
},
{
name = t.uni0303;
position = "{274, 540}";
}
);
layerId = "5F1C4D15-0292-4B2F-99F7-EAF0A1F73F4C";
shapes = (
{
closed = 1;
nodes = (
(376,-12,o),
(442,37,o),
(475,110,c),
(417,149,l),
(403,120,o),
(384,97,o),
(361,82,cs),
(338,67,o),
(310,59,o),
(277,59,cs),
(182,59,o),
(133,125,o),
(133,214,cs),
(133,302,ls),
(133,393,o),
(182,457,o),
(277,457,cs),
(340,457,o),
(384,426,o),
(403,373,c),
(470,407,l),
(441,478,o),
(380,528,o),
(277,528,cs),
(204,528,o),
(148,504,o),
(108,455,cs),
(67,406,o),
(47,341,o),
(47,258,cs),
(47,175,o),
(67,110,o),
(108,61,cs),
(148,12,o),
(204,-12,o),
(277,-12,cs)
);
}
);
width = 503;
},
{
anchors = (
{
name = b.uni0327;
position = "{257, 0}";
},
{
name = t.uni0303;
position = "{268, 540}";
}
);
layerId = "DC266226-4982-477B-8795-7301990C7B86";
shapes = (
{
closed = 1;
nodes = (
(358,-12,o),
(411,27,o),
(444,84,c),
(428,95,l),
(412,68,o),
(392,46,o),
(367,31,cs),
(342,15,o),
(309,7,o),
(270,7,cs),
(150,7,o),
(83,93,o),
(83,229,cs),
(83,277,ls),
(83,413,o),
(150,499,o),
(270,499,cs),
(342,499,o),
(385,468,o),
(417,409,c),
(435,418,l),
(404,478,o),
(350,518,o),
(270,518,cs),
(204,518,o),
(153,496,o),
(116,451,cs),
(79,406,o),
(60,340,o),
(60,253,cs),
(60,166,o),
(79,100,o),
(116,55,cs),
(153,10,o),
(204,-12,o),
(270,-12,cs)
);
}
);
width = 487;
}
);
leftKerningGroup = c2;
rightKerningGroup = c;
unicode = 99;
},
{
glyphname = d;
layers = (
{
anchors = (
{
name = b.uni0327;
position = "{291, 0}";
},
{
name = t.uni0315;
position = "{602, 740}";
}
);
layerId = "8DAE0D43-6C5F-4F99-A87C-49FC71346395";
shapes = (
{
closed = 1;
nodes = (
(375,0,l),
(568,0,l),
(568,740,l),
(375,740,l),
(375,440,l),
(369,440,l),
(366,467,o),
(351,491,o),
(325,512,cs),
(298,533,o),
(268,543,o),
(235,543,cs),
(145,543,o),
(88,502,o),
(59,420,c),
(46,379,o),
(38,328,o),
(38,266,cs),
(38,141,o),
(67,60,o),
(124,19,cs),
(153,-3,o),
(190,-12,o),
(235,-12,cs),
(268,-12,o),
(298,-2,o),
(326,20,cs),
(353,41,o),
(368,64,o),
(369,91,c),
(375,91,l)
);
},
{
closed = 1;
nodes = (
(268,140,o),
(238,172,o),
(238,219,cs),
(238,312,ls),
(238,362,o),
(268,391,o),
(302,391,cs),
(331,391,o),
(355,384,o),
(367,365,c),
(372,355,o),
(375,343,o),
(375,329,cs),
(375,198,ls),
(375,174,o),
(362,156,o),
(341,146,c),
(329,142,o),
(317,140,o),
(302,140,cs)
);
}
);
width = 627;
},
{
anchors = (
{
name = b.uni0327;
position = "{291, 0}";
},
{
name = t.uni0315;
position = "{602, 740}";
}
);
layerId = "9788F852-2321-4FD5-ACA0-A5D578398D57";
shapes = (
{
closed = 1;
nodes = (
(391,0,l),
(539,0,l),
(539,740,l),
(391,740,l),
(391,437,l),
(386,437,l),
(379,466,o),
(362,490,o),
(336,509,cs),
(309,528,o),
(279,537,o),
(245,537,cs),
(157,537,o),
(97,494,o),
(66,413,cs),
(51,372,o),
(43,322,o),
(43,263,cs),
(43,144,o),
(74,62,o),
(134,20,cs),
(164,-2,o),
(201,-12,o),
(245,-12,cs),
(279,-12,o),
(309,-3,o),
(336,17,cs),
(362,36,o),
(379,59,o),
(386,88,c),
(391,88,l)
);
},
{
closed = 1;
nodes = (
(238,108,o),
(197,152,o),
(197,217,cs),
(197,308,ls),
(197,375,o),
(238,417,o),
(294,417,cs),
(331,417,o),
(362,405,o),
(379,382,cs),
(387,370,o),
(391,356,o),
(391,340,cs),
(391,185,ls),
(391,153,o),
(373,129,o),
(344,117,cs),
(329,111,o),
(313,108,o),
(294,108,cs)
);
}
);
width = 608;
},
{
anchors = (
{
name = b.uni0327;
position = "{291, 0}";
},
{
name = t.uni0315;
position = "{602, 740}";
}
);
layerId = "5F1C4D15-0292-4B2F-99F7-EAF0A1F73F4C";
shapes = (
{
closed = 1;
nodes = (
(415,0,l),
(495,0,l),
(495,740,l),
(415,740,l),
(415,432,l),
(411,432,l),
(398,465,o),
(378,489,o),
(352,505,cs),
(326,520,o),
(295,528,o),
(260,528,cs),
(175,528,o),
(110,482,o),
(76,402,cs),
(59,361,o),
(50,313,o),
(50,258,cs),
(50,149,o),
(85,65,o),
(149,21,cs),
(180,-1,o),
(217,-12,o),
(260,-12,cs),
(295,-12,o),
(326,-4,o),
(351,12,cs),
(376,28,o),
(396,52,o),
(411,84,c),
(415,84,l)
);
},
{
closed = 1;
nodes = (
(193,60,o),
(136,122,o),
(136,214,cs),
(136,302,ls),
(136,394,o),
(193,456,o),
(282,456,cs),
(331,456,o),
(373,437,o),
(397,408,cs),
(409,393,o),
(415,376,o),
(415,357,cs),
(415,165,ls),
(415,121,o),
(389,89,o),
(349,73,c),
(329,64,o),
(307,60,o),
(282,60,cs)
);
}
);
width = 580;
},
{
anchors = (
{
name = b.uni0327;
position = "{291, 0}";
},
{
name = t.uni0315;
position = "{596, 740}";
}
);
layerId = "DC266226-4982-477B-8795-7301990C7B86";
shapes = (
{
closed = 1;
nodes = (
(439,0,l),
(460,0,l),
(460,740,l),
(439,740,l),
(439,428,l),
(436,428,l),
(425,450,o),
(407,471,o),
(380,490,cs),
(353,509,o),
(317,518,o),
(272,518,cs),
(184,518,o),
(120,479,o),
(86,400,cs),
(69,361,o),
(60,312,o),
(60,253,cs),
(60,136,o),
(95,57,o),
(159,18,cs),
(190,-2,o),
(228,-12,o),
(272,-12,cs),
(317,-12,o),
(353,-3,o),
(380,17,cs),
(407,36,o),
(425,56,o),
(436,78,c),
(439,78,l)
);
},
{
closed = 1;
nodes = (
(151,7,o),
(83,92,o),
(83,229,cs),
(83,277,ls),
(83,414,o),
(151,499,o),
(272,499,cs),
(331,499,o),
(384,475,o),
(416,435,c),
(431,414,o),
(439,390,o),
(439,363,cs),
(439,143,ls),
(439,90,o),
(405,47,o),
(354,24,cs),
(329,13,o),
(301,7,o),
(272,7,cs)
);
}
);
width = 565;
}
);
leftKerningGroup = d;
unicode = 100;
},
{
glyphname = e;
layers = (
{
anchors = (
{
name = b.uni0327;
position = "{283, 0}";
},
{
name = b.uni0328;
position = "{383, 0}";
},
{
name = t.uni0303;
position = "{287, 540}";
}
);
layerId = "8DAE0D43-6C5F-4F99-A87C-49FC71346395";
shapes = (
{
closed = 1;
nodes = (
(389,-12,o),
(468,12,o),
(525,54,c),
(439,180,l),
(420,171,o),
(404,163,o),
(388,151,cs),
(373,139,o),
(349,135,o),
(319,135,cs),
(286,135,o),
(262,141,o),
(249,156,c),
(235,170,o),
(228,191,o),
(228,219,c),
(228,216,l),
(542,216,l),
(542,264,ls),
(542,358,o),
(513,449,o),
(440,503,cs),
(402,530,o),
(350,543,o),
(284,543,cs),
(171,543,o),
(95,496,o),
(58,413,cs),
(39,372,o),
(29,321,o),
(29,266,cs),
(29,152,o),
(68,66,o),
(149,22,c),
(187,-1,o),
(237,-12,o),
(294,-12,cs)
);
},
{
closed = 1;
nodes = (
(319,406,o),
(334,392,o),
(341,369,c),
(343,358,o),
(344,343,o),
(344,329,cs),
(344,321,l),
(228,321,l),
(228,330,ls),
(228,363,o),
(236,386,o),
(255,398,cs),
(263,404,o),
(275,406,o),
(289,406,cs)
);
}
);
width = 571;
},
{
anchors = (
{
name = b.uni0327;
position = "{283, 0}";
},
{
name = b.uni0328;
position = "{383, 0}";
},
{
name = t.uni0303;
position = "{287, 540}";
}
);
layerId = "9788F852-2321-4FD5-ACA0-A5D578398D57";
shapes = (
{
closed = 1;
nodes = (
(384,-12,o),
(461,22,o),
(508,75,c),
(434,167,l),
(417,150,o),
(400,136,o),
(381,123,cs),
(362,110,o),
(336,104,o),
(305,104,cs),
(266,104,o),
(237,114,o),
(218,135,cs),
(199,155,o),
(189,182,o),
(189,217,cs),
(189,225,l),
(526,225,l),
(526,269,ls),
(526,364,o),
(494,450,o),
(423,500,cs),
(387,525,o),
(340,537,o),
(282,537,cs),
(177,537,o),
(103,490,o),
(65,408,cs),
(46,367,o),
(36,318,o),
(36,263,cs),
(36,151,o),
(76,66,o),
(152,22,c),
(189,-1,o),
(235,-12,o),
(288,-12,cs)
);
},
{
closed = 1;
nodes = (
(325,428,o),
(351,409,o),
(364,377,cs),
(370,361,o),
(373,342,o),
(373,321,cs),
(373,312,l),
(189,312,l),
(189,320,ls),
(189,364,o),
(205,397,o),
(234,415,cs),
(248,424,o),
(265,428,o),
(285,428,cs)
);
}
);
width = 562;
},
{
anchors = (
{
name = b.uni0327;
position = "{283, 0}";
},
{
name = b.uni0328;
position = "{383, 0}";
},
{
name = t.uni0303;
position = "{287, 540}";
}
);
layerId = "5F1C4D15-0292-4B2F-99F7-EAF0A1F73F4C";
shapes = (
{
closed = 1;
nodes = (
(376,-12,o),
(450,37,o),
(483,106,c),
(426,147,l),
(413,118,o),
(394,96,o),
(370,81,cs),
(345,66,o),
(317,58,o),
(284,58,cs),
(236,58,o),
(199,73,o),
(172,103,cs),
(145,132,o),
(131,169,o),
(131,214,cs),
(131,238,l),
(502,238,l),
(502,276,ls),
(502,373,o),
(465,452,o),
(398,496,cs),
(365,517,o),
(325,528,o),
(279,528,cs),
(186,528,o),
(115,481,o),
(76,401,cs),
(57,360,o),
(47,313,o),
(47,258,cs),
(47,149,o),
(88,66,o),
(157,22,cs),
(192,-1,o),
(232,-12,o),
(279,-12,cs)
);
},
{
closed = 1;
nodes = (
(334,461,o),
(376,434,o),
(399,389,cs),
(410,366,o),
(416,340,o),
(416,309,cs),
(416,298,l),
(131,298,l),
(131,305,ls),
(131,365,o),
(158,414,o),
(203,441,cs),
(225,454,o),
(250,461,o),
(279,461,cs)
);
}
);
width = 549;
},
{
anchors = (
{
name = b.uni0327;
position = "{272, 0}";
},
{
name = b.uni0328;
position = "{375, 0}";
},
{
name = t.uni0303;
position = "{276, 540}";
}
);
layerId = "DC266226-4982-477B-8795-7301990C7B86";
shapes = (
{
closed = 1;
nodes = (
(369,-12,o),
(436,41,o),
(465,124,c),
(447,131,l),
(432,90,o),
(409,60,o),
(380,39,cs),
(351,18,o),
(315,7,o),
(272,7,cs),
(212,7,o),
(166,27,o),
(133,67,cs),
(100,107,o),
(83,161,o),
(83,229,cs),
(83,256,l),
(473,256,l),
(473,266,ls),
(473,370,o),
(436,447,o),
(375,488,cs),
(344,508,o),
(309,518,o),
(268,518,cs),
(181,518,o),
(118,478,o),
(85,399,cs),
(68,360,o),
(60,311,o),
(60,253,cs),
(60,137,o),
(95,58,o),
(159,18,cs),
(190,-2,o),
(228,-12,o),
(272,-12,cs)
);
},
{
closed = 1;
nodes = (
(341,499,o),
(396,460,o),
(427,395,cs),
(442,362,o),
(450,324,o),
(450,279,cs),
(450,275,l),
(83,275,l),
(83,277,ls),
(83,368,o),
(112,436,o),
(168,472,cs),
(195,490,o),
(229,499,o),
(268,499,cs)
);
}
);
width = 533;
}
);
leftKerningGroup = c2;
rightKerningGroup = e;
unicode = 101;
},
{
glyphname = f;
layers = (
{
anchors = (
{
name = b.uni0327;
position = "{170, 0}";
}
);
layerId = "8DAE0D43-6C5F-4F99-A87C-49FC71346395";
shapes = (
{
closed = 1;
nodes = (
(83,0,l),
(276,0,l),
(276,386,l),
(377,386,l),
(377,531,l),
(276,531,l),
(276,595,l),
(377,595,l),
(377,740,l),
(269,740,ls),
(152,740,o),
(83,686,o),
(83,565,cs),
(83,531,l),
(16,531,l),
(16,386,l),
(83,386,l)
);
}
);
width = 386;
},
{
anchors = (
{
name = b.uni0327;
position = "{170, 0}";
}
);
layerId = "9788F852-2321-4FD5-ACA0-A5D578398D57";
shapes = (
{
closed = 1;
nodes = (
(95,0,l),
(243,0,l),
(243,410,l),
(348,410,l),
(348,525,l),
(243,525,l),
(243,625,l),
(348,625,l),
(348,740,l),
(252,740,ls),
(151,740,o),
(95,688,o),
(95,587,cs),
(95,525,l),
(21,525,l),
(21,410,l),
(95,410,l)
);
}
);
width = 361;
},
{
anchors = (
{
name = b.uni0327;
position = "{170, 0}";
}
);
layerId = "5F1C4D15-0292-4B2F-99F7-EAF0A1F73F4C";
shapes = (
{
closed = 1;
nodes = (
(113,0,l),
(193,0,l),
(193,446,l),
(304,446,l),
(304,516,l),
(193,516,l),
(193,670,l),
(304,670,l),
(304,740,l),
(226,740,ls),
(150,740,o),
(113,691,o),
(113,620,cs),
(113,516,l),
(29,516,l),
(29,446,l),
(113,446,l)
);
}
);
width = 324;
},
{
anchors = (
{
name = b.uni0327;
position = "{150, 0}";
}
);
layerId = "DC266226-4982-477B-8795-7301990C7B86";
shapes = (
{
closed = 1;
nodes = (
(123,0,l),
(144,0,l),
(144,487,l),
(260,487,l),
(260,506,l),
(144,506,l),
(144,721,l),
(260,721,l),
(260,740,l),
(152,740,ls),
(132,740,o),
(123,731,o),
(123,711,cs),
(123,506,l),
(30,506,l),
(30,487,l),
(123,487,l)
);
}
);
width = 285;
}
);
leftKerningGroup = f;
unicode = 102;
},
{
glyphname = g;
layers = (
{
anchors = (
{
name = t.uni0303;
position = "{278, 540}";
}
);
layerId = "8DAE0D43-6C5F-4F99-A87C-49FC71346395";
shapes = (
{
closed = 1;
nodes = (
(578,80,o),
(523,138,o),
(395,138,cs),
(215,138,ls),
(172,138,o),
(163,158,o),
(163,179,cs),
(163,193,o),
(169,211,o),
(180,219,c),
(143,213,l),
(181,203,o),
(225,195,o),
(278,195,cs),
(393,195,o),
(465,224,o),
(499,276,cs),
(515,302,o),
(523,332,o),
(523,367,cs),
(523,382,o),
(523,400,o),
(521,407,c),
(521,409,l),
(574,409,l),
(574,531,l),
(391,531,l),
(358,541,o),
(315,543,o),
(278,543,cs),
(163,543,o),
(92,513,o),
(58,460,cs),
(41,433,o),
(33,402,o),
(33,367,cs),
(33,301,o),
(60,251,o),
(125,222,c),
(125,218,l),
(100,214,o),
(78,206,o),
(56,190,c),
(32,174,o),
(21,151,o),
(21,123,cs),
(21,71,o),
(54,23,o),
(117,18,c),
(117,7,l),
(49,2,o),
(8,-32,o),
(8,-93,cs),
(8,-143,o),
(40,-179,o),
(117,-199,c),
(155,-207,o),
(205,-212,o),
(272,-212,cs),
(436,-212,o),
(518,-179,o),
(554,-123,c),
(569,-95,o),
(578,-64,o),
(578,-25,cs)
);
},
{
closed = 1;
nodes = (
(252,314,o),
(235,319,o),
(223,329,c),
(212,340,o),
(207,352,o),
(207,368,cs),
(207,369,ls),
(207,402,o),
(228,422,o),
(278,422,cs),
(331,422,o),
(349,402,o),
(349,369,cs),
(349,368,ls),
(349,338,o),
(331,314,o),
(278,314,cs)
);
},
{
closed = 1;
nodes = (
(397,-68,o),
(391,-77,o),
(380,-83,c),
(368,-88,o),
(344,-92,o),
(307,-92,cs),
(257,-92,ls),
(177,-92,o),
(148,-85,o),
(148,-53,cs),
(148,-48,o),
(148,-33,o),
(148,-22,c),
(333,-22,ls),
(378,-22,o),
(397,-30,o),
(397,-55,cs)
);
}
);
width = 583;
},
{
anchors = (
{
name = t.uni0303;
position = "{278, 540}";
}
);
layerId = "9788F852-2321-4FD5-ACA0-A5D578398D57";
shapes = (
{
closed = 1;
nodes = (
(555,59,o),
(500,115,o),
(372,115,cs),
(220,115,ls),
(175,115,o),
(157,130,o),
(157,155,cs),
(157,180,o),
(174,196,o),
(192,204,c),
(167,201,l),
(197,191,o),
(232,186,o),
(273,186,cs),
(374,186,o),
(441,216,o),
(474,269,cs),
(490,295,o),
(498,325,o),
(498,360,cs),
(498,387,o),
(491,413,o),
(482,424,c),
(482,426,l),
(546,426,l),
(546,525,l),
(372,525,l),
(343,534,o),
(306,537,o),
(273,537,cs),
(173,537,o),
(106,506,o),
(73,453,cs),
(56,426,o),
(48,395,o),
(48,360,cs),
(48,292,o),
(79,239,o),
(142,210,c),
(142,206,l),
(117,201,o),
(95,192,o),
(75,177,cs),
(54,162,o),
(44,140,o),
(44,113,cs),
(44,68,o),
(71,30,o),
(120,21,c),
(120,10,l),
(59,2,o),
(22,-31,o),
(22,-90,cs),
(22,-141,o),
(53,-178,o),
(126,-198,cs),
(162,-207,o),
(210,-212,o),
(271,-212,cs),
(414,-212,o),
(493,-184,o),
(529,-132,cs),
(546,-106,o),
(555,-75,o),
(555,-38,cs)
);
},
{
closed = 1;
nodes = (
(244,283,o),
(223,289,o),
(208,302,cs),
(193,315,o),
(186,332,o),
(186,355,cs),
(186,367,ls),
(186,414,o),
(216,439,o),
(273,439,cs),
(332,439,o),
(360,414,o),
(360,367,cs),
(360,355,ls),
(360,310,o),
(332,283,o),
(273,283,cs)
);
},
{
closed = 1;
nodes = (
(416,-77,o),
(408,-91,o),
(391,-100,cs),
(374,-109,o),
(346,-114,o),
(306,-114,cs),
(246,-114,ls),
(166,-114,o),
(136,-95,o),
(136,-58,cs),
(136,-42,o),
(142,-24,o),
(155,-11,c),
(335,-11,ls),
(394,-11,o),
(416,-27,o),
(416,-58,cs)
);
}
);
width = 562;
},
{
anchors = (
{
name = t.uni0303;
position = "{278, 540}";
}
);
layerId = "5F1C4D15-0292-4B2F-99F7-EAF0A1F73F4C";
shapes = (
{
closed = 1;
nodes = (
(520,28,o),
(465,80,o),
(337,80,cs),
(227,80,ls),
(180,80,o),
(148,88,o),
(148,119,cs),
(148,156,o),
(195,173,o),
(231,181,c),
(203,180,l),
(220,175,o),
(244,172,o),
(266,172,cs),
(345,172,o),
(405,204,o),
(437,258,cs),
(453,285,o),
(461,315,o),
(461,350,cs),
(461,395,o),
(443,433,o),
(424,450,c),
(424,452,l),
(504,452,l),
(504,516,l),
(343,516,l),
(320,524,o),
(293,528,o),
(265,528,cs),
(188,528,o),
(127,496,o),
(95,443,cs),
(79,416,o),
(71,385,o),
(71,350,cs),
(71,278,o),
(107,221,o),
(168,192,c),
(168,188,l),
(142,181,o),
(121,171,o),
(104,158,cs),
(87,144,o),
(79,124,o),
(79,98,cs),
(79,63,o),
(96,41,o),
(125,26,c),
(125,15,l),
(74,2,o),
(43,-29,o),
(43,-85,cs),
(43,-138,o),
(72,-177,o),
(140,-197,cs),
(173,-207,o),
(217,-212,o),
(270,-212,cs),
(381,-212,o),
(455,-191,o),
(492,-145,cs),
(511,-122,o),
(520,-92,o),
(520,-57,cs)
);
},
{
closed = 1;
nodes = (
(232,236,o),
(205,244,o),
(185,261,cs),
(165,277,o),
(155,302,o),
(155,336,cs),
(155,364,ls),
(155,432,o),
(198,464,o),
(266,464,cs),
(334,464,o),
(377,432,o),
(377,364,cs),
(377,336,ls),
(377,268,o),
(334,236,o),
(266,236,cs)
);
},
{
closed = 1;
nodes = (
(445,-91,o),
(433,-112,o),
(408,-126,cs),
(383,-140,o),
(349,-147,o),
(304,-147,cs),
(230,-147,ls),
(149,-147,o),
(118,-110,o),
(118,-65,cs),
(118,-33,o),
(133,-10,o),
(166,5,c),
(338,5,ls),
(418,5,o),
(445,-22,o),
(445,-63,cs)
);
}
);
width = 531;
},
{
anchors = (
{
name = t.uni0303;
position = "{275, 540}";
}
);
layerId = "DC266226-4982-477B-8795-7301990C7B86";
shapes = (
{
closed = 1;
nodes = (
(501,7,o),
(453,53,o),
(338,53,cs),
(203,53,ls),
(134,53,o),
(116,81,o),
(116,109,cs),
(116,150,o),
(155,177,o),
(229,192,c),
(190,190,l),
(219,185,o),
(238,180,o),
(263,180,cs),
(332,180,o),
(385,209,o),
(414,260,cs),
(429,285,o),
(436,315,o),
(436,349,cs),
(436,409,o),
(411,464,o),
(371,485,c),
(371,487,l),
(501,487,l),
(501,506,l),
(335,506,l),
(314,514,o),
(290,518,o),
(263,518,cs),
(192,518,o),
(139,489,o),
(111,438,cs),
(97,413,o),
(90,383,o),
(90,349,cs),
(90,273,o),
(124,222,o),
(181,197,c),
(181,194,l),
(159,187,o),
(139,177,o),
(122,164,cs),
(105,150,o),
(96,131,o),
(96,108,cs),
(96,76,o),
(112,52,o),
(149,41,c),
(149,38,l),
(88,18,o),
(50,-22,o),
(50,-82,cs),
(50,-134,o),
(78,-174,o),
(141,-196,cs),
(172,-207,o),
(213,-212,o),
(262,-212,cs),
(363,-212,o),
(436,-192,o),
(473,-148,cs),
(492,-126,o),
(501,-98,o),
(501,-65,cs)
);
},
{
closed = 1;
nodes = (
(216,199,o),
(180,212,o),
(154,237,cs),
(127,262,o),
(114,293,o),
(114,330,cs),
(114,368,ls),
(114,443,o),
(168,499,o),
(263,499,cs),
(358,499,o),
(412,443,o),
(412,368,cs),
(412,330,ls),
(412,257,o),
(358,199,o),
(263,199,cs)
);
},
{
closed = 1;
nodes = (
(479,-110,o),
(461,-142,o),
(426,-163,c),
(390,-183,o),
(344,-193,o),
(287,-193,cs),
(238,-193,ls),
(137,-193,o),
(72,-148,o),
(72,-83,cs),
(72,-19,o),
(117,17,o),
(180,33,c),
(335,33,ls),
(443,33,o),
(479,-4,o),
(479,-65,cs)
);
}
);
width = 527;
}
);
leftKerningGroup = g2;
rightKerningGroup = g;
unicode = 103;
},
{
glyphname = g.alt01;
layers = (
{
layerId = "8DAE0D43-6C5F-4F99-A87C-49FC71346395";
shapes = (
{
closed = 1;
nodes = (
(568,531,l),
(375,531,l),
(375,439,l),
(369,439,l),
(366,465,o),
(351,491,o),
(325,512,cs),
(298,533,o),
(268,543,o),
(235,543,cs),
(145,543,o),
(88,504,o),
(59,424,c),
(46,384,o),
(38,335,o),
(38,276,cs),
(38,157,o),
(66,80,o),
(124,41,cs),
(153,21,o),
(190,11,o),
(235,11,cs),
(268,11,o),
(298,23,o),
(326,43,c),
(353,64,o),
(368,86,o),
(369,114,c),
(375,114,l),
(375,22,ls),
(375,-26,o),
(351,-65,o),
(285,-65,cs),
(243,-65,o),
(202,-49,o),
(171,-14,c),
(70,-134,l),
(110,-179,o),
(180,-212,o),
(293,-212,cs),
(481,-212,o),
(568,-119,o),
(568,42,cs)
);
},
{
closed = 1;
nodes = (
(284,163,o),
(269,170,o),
(257,186,c),
(243,200,o),
(238,219,o),
(238,244,cs),
(238,310,ls),
(238,335,o),
(243,356,o),
(257,370,c),
(269,384,o),
(284,391,o),
(301,391,cs),
(330,391,o),
(354,384,o),
(366,365,cs),
(372,355,o),
(375,343,o),
(375,329,cs),
(375,221,ls),
(375,198,o),
(362,179,o),
(340,170,c),
(328,166,o),
(316,163,o),
(301,163,cs)
);
}
);
width = 627;
},
{
layerId = "9788F852-2321-4FD5-ACA0-A5D578398D57";
shapes = (
{
closed = 1;
nodes = (
(539,525,l),
(391,525,l),
(391,436,l),
(386,436,l),
(379,465,o),
(362,490,o),
(336,509,cs),
(309,528,o),
(279,537,o),
(245,537,cs),
(157,537,o),
(97,495,o),
(66,415,cs),
(51,375,o),
(43,326,o),
(43,269,cs),
(43,154,o),
(74,74,o),
(134,33,cs),
(164,12,o),
(201,2,o),
(245,2,cs),
(279,2,o),
(309,12,o),
(336,31,cs),
(362,50,o),
(379,73,o),
(386,102,c),
(391,102,l),
(391,18,ls),
(391,-51,o),
(355,-96,o),
(278,-96,cs),
(229,-96,o),
(187,-78,o),
(154,-43,c),
(75,-137,l),
(115,-180,o),
(181,-212,o),
(282,-212,cs),
(453,-212,o),
(539,-121,o),
(539,32,cs)
);
},
{
closed = 1;
nodes = (
(266,122,o),
(243,132,o),
(225,153,c),
(206,173,o),
(197,199,o),
(197,232,cs),
(197,307,ls),
(197,340,o),
(206,367,o),
(225,387,cs),
(243,407,o),
(266,417,o),
(294,417,cs),
(331,417,o),
(362,405,o),
(379,382,cs),
(387,370,o),
(391,356,o),
(391,340,cs),
(391,199,ls),
(391,167,o),
(373,143,o),
(344,131,cs),
(329,125,o),
(313,122,o),
(294,122,cs)
);
}
);
width = 608;
},
{
layerId = "5F1C4D15-0292-4B2F-99F7-EAF0A1F73F4C";
shapes = (
{
closed = 1;
nodes = (
(495,516,l),
(415,516,l),
(415,432,l),
(411,432,l),
(398,465,o),
(378,489,o),
(352,505,cs),
(326,520,o),
(295,528,o),
(260,528,cs),
(175,528,o),
(111,482,o),
(76,402,cs),
(59,361,o),
(50,313,o),
(50,258,cs),
(50,149,o),
(86,65,o),
(149,21,cs),
(180,-1,o),
(217,-12,o),
(260,-12,cs),
(296,-12,o),
(326,-4,o),
(351,13,cs),
(376,29,o),
(396,53,o),
(411,84,c),
(415,84,l),
(415,12,ls),
(415,-89,o),
(361,-142,o),
(268,-142,cs),
(208,-142,o),
(164,-122,o),
(129,-86,c),
(82,-141,l),
(122,-182,o),
(182,-212,o),
(266,-212,cs),
(411,-212,o),
(495,-124,o),
(495,17,cs)
);
},
{
closed = 1;
nodes = (
(239,60,o),
(204,75,o),
(177,104,cs),
(150,133,o),
(136,169,o),
(136,214,cs),
(136,302,ls),
(136,347,o),
(150,384,o),
(177,413,cs),
(204,442,o),
(239,456,o),
(284,456,cs),
(333,456,o),
(374,437,o),
(398,408,c),
(409,393,o),
(415,376,o),
(415,357,cs),
(415,166,ls),
(415,121,o),
(390,89,o),
(350,73,c),
(330,64,o),
(308,60,o),
(284,60,cs)
);
}
);
width = 580;
},
{
layerId = "DC266226-4982-477B-8795-7301990C7B86";
shapes = (
{
closed = 1;
nodes = (
(460,506,l),
(439,506,l),
(439,428,l),
(436,428,l),
(425,450,o),
(407,471,o),
(380,490,cs),
(353,509,o),
(317,518,o),
(272,518,cs),
(184,518,o),
(120,479,o),
(86,400,cs),
(69,361,o),
(60,312,o),
(60,253,cs),
(60,136,o),
(95,57,o),
(159,18,cs),
(190,-2,o),
(228,-12,o),
(272,-12,cs),
(317,-12,o),
(353,-3,o),
(380,17,cs),
(407,36,o),
(425,56,o),
(436,78,c),
(439,78,l),
(439,-12,ls),
(439,-133,o),
(378,-193,o),
(262,-193,cs),
(181,-193,o),
(141,-170,o),
(102,-130,c),
(88,-146,l),
(129,-187,o),
(179,-212,o),
(264,-212,cs),
(395,-212,o),
(460,-139,o),
(460,-10,cs)
);
},
{
closed = 1;
nodes = (
(211,7,o),
(165,27,o),
(132,67,cs),
(99,106,o),
(83,160,o),
(83,229,cs),
(83,277,ls),
(83,346,o),
(99,400,o),
(132,440,cs),
(165,479,o),
(211,499,o),
(272,499,cs),
(331,499,o),
(384,475,o),
(416,435,c),
(431,414,o),
(439,390,o),
(439,363,cs),
(439,143,ls),
(439,90,o),
(405,47,o),
(354,24,cs),
(329,13,o),
(301,7,o),
(272,7,cs)
);
}
);
width = 565;
}
);
leftKerningGroup = d;
rightKerningGroup = q;
},
{
glyphname = h;
layers = (
{
layerId = "8DAE0D43-6C5F-4F99-A87C-49FC71346395";
shapes = (
{
closed = 1;
nodes = (
(58,0,l),
(252,0,l),
(252,328,ls),
(252,357,o),
(269,374,o),
(292,384,c),
(302,388,o),
(313,391,o),
(326,391,cs),
(366,391,o),
(370,367,o),
(370,317,cs),
(370,0,l),
(563,0,l),
(563,328,ls),
(563,464,o),
(512,543,o),
(405,543,cs),
(363,543,o),
(328,532,o),
(305,510,cs),
(282,488,o),
(265,464,o),
(259,439,c),
(252,439,l),
(252,740,l),
(58,740,l)
);
}
);
width = 615;
},
{
layerId = "9788F852-2321-4FD5-ACA0-A5D578398D57";
shapes = (
{
closed = 1;
nodes = (
(69,0,l),
(217,0,l),
(217,340,ls),
(217,375,o),
(238,397,o),
(267,409,cs),
(281,414,o),
(296,417,o),
(312,417,cs),
(367,417,o),
(385,384,o),
(385,317,cs),
(385,0,l),
(533,0,l),
(533,329,ls),
(533,461,o),
(476,537,o),
(369,537,cs),
(328,537,o),
(295,527,o),
(272,507,cs),
(249,487,o),
(232,463,o),
(223,436,c),
(217,436,l),
(217,740,l),
(69,740,l)
);
}
);
width = 596;
},
{
layerId = "5F1C4D15-0292-4B2F-99F7-EAF0A1F73F4C";
shapes = (
{
closed = 1;
nodes = (
(85,0,l),
(165,0,l),
(165,358,ls),
(165,402,o),
(191,432,o),
(230,446,cs),
(249,453,o),
(270,456,o),
(291,456,cs),
(368,456,o),
(408,409,o),
(408,317,cs),
(408,0,l),
(488,0,l),
(488,331,ls),
(488,456,o),
(422,528,o),
(315,528,cs),
(276,528,o),
(246,519,o),
(223,502,cs),
(200,485,o),
(182,461,o),
(169,432,c),
(165,432,l),
(165,740,l),
(85,740,l)
);
}
);
width = 568;
},
{
layerId = "DC266226-4982-477B-8795-7301990C7B86";
shapes = (
{
closed = 1;
nodes = (
(105,0,l),
(126,0,l),
(126,362,ls),
(126,423,o),
(159,464,o),
(207,484,cs),
(231,494,o),
(257,499,o),
(285,499,cs),
(384,499,o),
(440,444,o),
(440,321,cs),
(440,0,l),
(461,0,l),
(461,325,ls),
(461,452,o),
(400,518,o),
(287,518,cs),
(242,518,o),
(206,509,o),
(181,491,cs),
(156,473,o),
(138,453,o),
(129,430,c),
(126,430,l),
(126,740,l),
(105,740,l)
);
}
);
width = 556;
}
);
leftKerningGroup = b2;
rightKerningGroup = h;
unicode = 104;
},
{
glyphname = i;
layers = (
{
anchors = (
{
name = b.uni0327;
position = "{143, 0}";
},
{
name = b.uni0328;
position = "{217, 0}";
}
);
layerId = "8DAE0D43-6C5F-4F99-A87C-49FC71346395";
shapes = (
{
closed = 1;
nodes = (
(232,544,o),
(266,585,o),
(266,635,cs),
(266,663,ls),
(266,717,o),
(232,755,o),
(155,755,cs),
(77,755,o),
(44,717,o),
(44,663,cs),
(44,635,ls),
(44,585,o),
(77,544,o),
(155,544,cs)
);
},
{
closed = 1;
nodes = (
(58,0,l),
(252,0,l),
(252,531,l),
(58,531,l)
);
}
);
width = 310;
},
{
anchors = (
{
name = b.uni0327;
position = "{143, 0}";
},
{
name = b.uni0328;
position = "{217, 0}";
}
);
layerId = "9788F852-2321-4FD5-ACA0-A5D578398D57";
shapes = (
{
closed = 1;
nodes = (
(203,581,o),
(229,613,o),
(229,654,cs),
(229,676,ls),
(229,719,o),
(203,749,o),
(143,749,cs),
(83,749,o),
(57,719,o),
(57,676,cs),
(57,654,ls),
(57,613,o),
(83,581,o),
(143,581,cs)
);
},
{
closed = 1;
nodes = (
(69,0,l),
(217,0,l),
(217,525,l),
(69,525,l)
);
}
);
width = 286;
},
{
anchors = (
{
name = b.uni0327;
position = "{143, 0}";
},
{
name = b.uni0328;
position = "{217, 0}";
}
);
layerId = "5F1C4D15-0292-4B2F-99F7-EAF0A1F73F4C";
shapes = (
{
closed = 1;
nodes = (
(160,637,o),
(174,655,o),
(174,682,cs),
(174,695,ls),
(174,722,o),
(160,740,o),
(125,740,cs),
(92,740,o),
(76,722,o),
(76,695,cs),
(76,682,ls),
(76,655,o),
(92,637,o),
(125,637,cs)
);
},
{
closed = 1;
nodes = (
(85,0,l),
(165,0,l),
(165,516,l),
(85,516,l)
);
}
);
width = 250;
},
{
anchors = (
{
name = b.uni0327;
position = "{134, 0}";
},
{
name = b.uni0328;
position = "{178, 0}";
}
);
layerId = "DC266226-4982-477B-8795-7301990C7B86";
shapes = (
{
closed = 1;
nodes = (
(132,673,o),
(138,683,o),
(138,694,cs),
(138,701,ls),
(138,712,o),
(132,722,o),
(115,722,cs),
(98,722,o),
(92,712,o),
(92,701,cs),
(92,694,ls),
(92,683,o),
(98,673,o),
(115,673,cs)
);
},
{
closed = 1;
nodes = (
(105,0,l),
(126,0,l),
(126,506,l),
(105,506,l)
);
}
);
width = 231;
}
);
leftKerningGroup = i2;
rightKerningGroup = i;
unicode = 105;
},
{
glyphname = j;
layers = (
{
layerId = "8DAE0D43-6C5F-4F99-A87C-49FC71346395";
shapes = (
{
closed = 1;
nodes = (
(58,-55,l),
(-16,-55,l),
(-16,-200,l),
(80,-200,ls),
(200,-200,o),
(252,-148,o),
(252,-40,cs),
(252,531,l),
(58,531,l)
);
},
{
closed = 1;
nodes = (
(232,544,o),
(266,585,o),
(266,635,cs),
(266,663,ls),
(266,717,o),
(232,755,o),
(155,755,cs),
(77,755,o),
(44,717,o),
(44,663,cs),
(44,635,ls),
(44,585,o),
(77,544,o),
(155,544,cs)
);
}
);
width = 310;
},
{
layerId = "9788F852-2321-4FD5-ACA0-A5D578398D57";
shapes = (
{
closed = 1;
nodes = (
(69,-85,l),
(-9,-85,l),
(-9,-200,l),
(69,-200,ls),
(172,-200,o),
(217,-149,o),
(217,-56,cs),
(217,525,l),
(69,525,l)
);
},
{
closed = 1;
nodes = (
(203,581,o),
(229,613,o),
(229,654,cs),
(229,676,ls),
(229,719,o),
(203,749,o),
(143,749,cs),
(83,749,o),
(57,719,o),
(57,676,cs),
(57,654,ls),
(57,613,o),
(83,581,o),
(143,581,cs)
);
}
);
width = 286;
},
{
layerId = "5F1C4D15-0292-4B2F-99F7-EAF0A1F73F4C";
shapes = (
{
closed = 1;
nodes = (
(85,-130,l),
(1,-130,l),
(1,-200,l),
(53,-200,ls),
(130,-200,o),
(165,-151,o),
(165,-80,cs),
(165,516,l),
(85,516,l)
);
},
{
closed = 1;
nodes = (
(160,637,o),
(174,655,o),
(174,682,cs),
(174,695,ls),
(174,722,o),
(160,740,o),
(125,740,cs),
(92,740,o),
(76,722,o),
(76,695,cs),
(76,682,ls),
(76,655,o),
(92,637,o),
(125,637,cs)
);
}
);
width = 250;
},
{
layerId = "DC266226-4982-477B-8795-7301990C7B86";
shapes = (
{
closed = 1;
nodes = (
(105,-181,l),
(20,-181,l),
(20,-200,l),
(97,-200,ls),
(117,-200,o),
(126,-191,o),
(126,-171,cs),
(126,506,l),
(105,506,l)
);
},
{
closed = 1;
nodes = (
(132,673,o),
(138,683,o),
(138,694,cs),
(138,701,ls),
(138,712,o),
(132,722,o),
(115,722,cs),
(98,722,o),
(92,712,o),
(92,701,cs),
(92,694,ls),
(92,683,o),
(98,673,o),
(115,673,cs)
);
}
);
width = 231;
}
);
leftKerningGroup = j2;
rightKerningGroup = j;
unicode = 106;
},
{
glyphname = k;
layers = (
{
anchors = (
{
name = b.uni0327;
position = "{324, 0}";
}
);
layerId = "8DAE0D43-6C5F-4F99-A87C-49FC71346395";
shapes = (
{
closed = 1;
nodes = (
(58,0,l),
(252,0,l),
(252,124,l),
(310,195,l),
(393,0,l),
(622,0,l),
(437,332,l),
(601,531,l),
(392,531,l),
(315,427,l),
(259,324,l),
(252,324,l),
(252,450,l),
(252,740,l),
(58,740,l)
);
}
);
width = 610;
},
{
anchors = (
{
name = b.uni0327;
position = "{324, 0}";
}
);
layerId = "9788F852-2321-4FD5-ACA0-A5D578398D57";
shapes = (
{
closed = 1;
nodes = (
(69,0,l),
(217,0,l),
(217,148,l),
(283,222,l),
(401,0,l),
(577,0,l),
(382,324,l),
(557,525,l),
(393,525,l),
(288,400,l),
(223,303,l),
(217,303,l),
(217,415,l),
(217,740,l),
(69,740,l)
);
}
);
width = 577;
},
{
anchors = (
{
name = b.uni0327;
position = "{324, 0}";
}
);
layerId = "5F1C4D15-0292-4B2F-99F7-EAF0A1F73F4C";
shapes = (
{
closed = 1;
nodes = (
(85,0,l),
(165,0,l),
(165,184,l),
(242,263,l),
(413,0,l),
(510,0,l),
(300,312,l),
(491,516,l),
(394,516,l),
(248,359,l),
(169,271,l),
(165,271,l),
(165,363,l),
(165,740,l),
(85,740,l)
);
}
);
width = 527;
},
{
anchors = (
{
name = b.uni0327;
position = "{302, 0}";
}
);
layerId = "DC266226-4982-477B-8795-7301990C7B86";
shapes = (
{
closed = 1;
nodes = (
(105,0,l),
(126,0,l),
(126,190,l),
(214,277,l),
(445,0,l),
(471,0,l),
(229,292,l),
(444,506,l),
(416,506,l),
(209,299,l),
(129,220,l),
(126,220,l),
(126,299,l),
(126,740,l),
(105,740,l)
);
}
);
width = 490;
}
);
leftKerningGroup = b2;
rightKerningGroup = k;
unicode = 107;
},
{
glyphname = l;
layers = (
{
anchors = (
{
name = b.uni0327;
position = "{175, 0}";
},
{
name = t.uni0303;
position = "{143, 740}";
},
{
name = t.uni0315;
position = "{280, 740}";
}
);
layerId = "8DAE0D43-6C5F-4F99-A87C-49FC71346395";
shapes = (
{
closed = 1;
nodes = (
(311,0,l),
(311,145,l),
(252,145,l),
(252,740,l),
(58,740,l),
(58,185,ls),
(58,62,o),
(115,0,o),
(247,0,cs)
);
}
);
width = 324;
},
{
anchors = (
{
name = b.uni0327;
position = "{175, 0}";
},
{
name = t.uni0303;
position = "{143, 740}";
},
{
name = t.uni0315;
position = "{280, 740}";
}
);
layerId = "9788F852-2321-4FD5-ACA0-A5D578398D57";
shapes = (
{
closed = 1;
nodes = (
(283,0,l),
(283,115,l),
(217,115,l),
(217,740,l),
(69,740,l),
(69,144,ls),
(69,51,o),
(115,0,o),
(216,0,cs)
);
}
);
width = 303;
},
{
anchors = (
{
name = b.uni0327;
position = "{175, 0}";
},
{
name = t.uni0303;
position = "{143, 740}";
},
{
name = t.uni0315;
position = "{280, 740}";
}
);
layerId = "5F1C4D15-0292-4B2F-99F7-EAF0A1F73F4C";
shapes = (
{
closed = 1;
nodes = (
(241,0,l),
(241,70,l),
(165,70,l),
(165,740,l),
(85,740,l),
(85,83,ls),
(85,35,o),
(115,0,o),
(170,0,cs)
);
}
);
width = 272;
},
{
anchors = (
{
name = b.uni0327;
position = "{173, 0}";
},
{
name = t.uni0303;
position = "{133, 740}";
},
{
name = t.uni0315;
position = "{276, 740}";
}
);
layerId = "DC266226-4982-477B-8795-7301990C7B86";
shapes = (
{
closed = 1;
nodes = (
(211,0,l),
(211,19,l),
(126,19,l),
(126,740,l),
(105,740,l),
(105,29,ls),
(105,9,o),
(114,0,o),
(134,0,cs)
);
}
);
width = 251;
}
);
leftKerningGroup = l2;
rightKerningGroup = l;
unicode = 108;
},
{
glyphname = m;
layers = (
{
layerId = "8DAE0D43-6C5F-4F99-A87C-49FC71346395";
shapes = (
{
closed = 1;
nodes = (
(252,0,l),
(252,328,ls),
(252,357,o),
(266,374,o),
(286,384,c),
(295,388,o),
(305,391,o),
(315,391,cs),
(344,391,o),
(361,369,o),
(361,317,cs),
(361,0,l),
(554,0,l),
(554,328,ls),
(554,357,o),
(567,374,o),
(588,384,cs),
(597,388,o),
(607,391,o),
(618,391,cs),
(647,391,o),
(663,370,o),
(663,317,cs),
(663,0,l),
(856,0,l),
(856,328,ls),
(856,464,o),
(805,543,o),
(707,543,cs),
(669,543,o),
(636,533,o),
(604,512,cs),
(573,491,o),
(554,466,o),
(545,436,c),
(541,436,l),
(521,501,o),
(476,543,o),
(401,543,cs),
(326,543,o),
(275,497,o),
(259,439,c),
(252,439,l),
(252,531,l),
(58,531,l),
(58,0,l)
);
}
);
width = 908;
},
{
layerId = "9788F852-2321-4FD5-ACA0-A5D578398D57";
shapes = (
{
closed = 1;
nodes = (
(217,0,l),
(217,340,ls),
(217,375,o),
(236,397,o),
(263,409,cs),
(276,414,o),
(290,417,o),
(304,417,cs),
(352,417,o),
(376,385,o),
(376,317,cs),
(376,0,l),
(524,0,l),
(524,340,ls),
(524,375,o),
(542,397,o),
(569,409,cs),
(582,414,o),
(596,417,o),
(611,417,cs),
(660,417,o),
(683,385,o),
(683,317,cs),
(683,0,l),
(831,0,l),
(831,329,ls),
(831,461,o),
(775,537,o),
(674,537,cs),
(634,537,o),
(600,527,o),
(571,506,cs),
(542,485,o),
(523,460,o),
(514,431,c),
(511,431,l),
(488,500,o),
(436,537,o),
(364,537,cs),
(287,537,o),
(242,492,o),
(223,436,c),
(217,436,l),
(217,525,l),
(69,525,l),
(69,0,l)
);
}
);
width = 894;
},
{
layerId = "5F1C4D15-0292-4B2F-99F7-EAF0A1F73F4C";
shapes = (
{
closed = 1;
nodes = (
(165,0,l),
(165,358,ls),
(165,402,o),
(191,432,o),
(229,446,cs),
(248,453,o),
(267,456,o),
(288,456,cs),
(364,456,o),
(399,409,o),
(399,317,cs),
(399,0,l),
(479,0,l),
(479,358,ls),
(479,402,o),
(504,432,o),
(541,446,cs),
(560,453,o),
(579,456,o),
(600,456,cs),
(679,456,o),
(713,408,o),
(713,317,cs),
(713,0,l),
(793,0,l),
(793,331,ls),
(793,456,o),
(730,528,o),
(625,528,cs),
(581,528,o),
(546,518,o),
(521,497,cs),
(495,476,o),
(477,451,o),
(468,423,c),
(466,423,l),
(438,498,o),
(376,528,o),
(308,528,cs),
(228,528,o),
(192,485,o),
(169,432,c),
(165,432,l),
(165,516,l),
(85,516,l),
(85,0,l)
);
}
);
width = 873;
},
{
layerId = "DC266226-4982-477B-8795-7301990C7B86";
shapes = (
{
closed = 1;
nodes = (
(126,0,l),
(126,362,ls),
(126,423,o),
(157,464,o),
(205,484,cs),
(228,494,o),
(253,499,o),
(280,499,cs),
(379,499,o),
(434,445,o),
(434,322,cs),
(434,0,l),
(455,0,l),
(455,360,ls),
(455,423,o),
(486,463,o),
(533,484,cs),
(556,494,o),
(582,499,o),
(609,499,cs),
(709,499,o),
(763,445,o),
(763,322,cs),
(763,0,l),
(784,0,l),
(784,325,ls),
(784,452,o),
(724,518,o),
(611,518,cs),
(564,518,o),
(527,508,o),
(500,487,cs),
(473,466,o),
(454,439,o),
(445,406,c),
(441,406,l),
(421,479,o),
(365,518,o),
(282,518,cs),
(193,518,o),
(148,475,o),
(129,430,c),
(126,430,l),
(126,506,l),
(105,506,l),
(105,0,l)
);
}
);
width = 879;
}
);
leftKerningGroup = m;
rightKerningGroup = h;
unicode = 109;
},
{
glyphname = n;
layers = (
{
anchors = (
{
name = b.uni0327;
position = "{302, 0}";
},
{
name = t.uni0303;
position = "{299, 540}";
}
);
layerId = "8DAE0D43-6C5F-4F99-A87C-49FC71346395";
shapes = (
{
closed = 1;
nodes = (
(252,0,l),
(252,328,ls),
(252,357,o),
(269,374,o),
(292,384,c),
(302,388,o),
(313,391,o),
(326,391,cs),
(366,391,o),
(370,367,o),
(370,317,cs),
(370,0,l),
(563,0,l),
(563,328,ls),
(563,464,o),
(512,543,o),
(405,543,cs),
(363,543,o),
(328,532,o),
(305,510,cs),
(282,488,o),
(265,464,o),
(259,439,c),
(252,439,l),
(252,531,l),
(58,531,l),
(58,0,l)
);
}
);
width = 615;
},
{
anchors = (
{
name = b.uni0327;
position = "{302, 0}";
},
{
name = t.uni0303;
position = "{299, 540}";
}
);
layerId = "9788F852-2321-4FD5-ACA0-A5D578398D57";
shapes = (
{
closed = 1;
nodes = (
(217,0,l),
(217,340,ls),
(217,375,o),
(238,397,o),
(267,409,cs),
(281,414,o),
(296,417,o),
(312,417,cs),
(367,417,o),
(385,384,o),
(385,317,cs),
(385,0,l),
(533,0,l),
(533,329,ls),
(533,461,o),
(476,537,o),
(369,537,cs),
(328,537,o),
(295,527,o),
(272,507,cs),
(249,487,o),
(232,463,o),
(223,436,c),
(217,436,l),
(217,525,l),
(69,525,l),
(69,0,l)
);
}
);
width = 596;
},
{
anchors = (
{
name = b.uni0327;
position = "{302, 0}";
},
{
name = t.uni0303;
position = "{299, 540}";
}
);
layerId = "5F1C4D15-0292-4B2F-99F7-EAF0A1F73F4C";
shapes = (
{
closed = 1;
nodes = (
(165,0,l),
(165,358,ls),
(165,402,o),
(191,432,o),
(230,446,cs),
(249,453,o),
(270,456,o),
(291,456,cs),
(368,456,o),
(408,409,o),
(408,317,cs),
(408,0,l),
(488,0,l),
(488,331,ls),
(488,456,o),
(422,528,o),
(315,528,cs),
(276,528,o),
(246,519,o),
(223,502,cs),
(200,485,o),
(182,461,o),
(169,432,c),
(165,432,l),
(165,516,l),
(85,516,l),
(85,0,l)
);
}
);
width = 568;
},
{
anchors = (
{
name = b.uni0327;
position = "{298, 0}";
},
{
name = t.uni0303;
position = "{295, 540}";
}
);
layerId = "DC266226-4982-477B-8795-7301990C7B86";
shapes = (
{
closed = 1;
nodes = (
(126,0,l),
(126,362,ls),
(126,423,o),
(159,464,o),
(207,484,cs),
(231,494,o),
(257,499,o),
(285,499,cs),
(384,499,o),
(440,444,o),
(440,321,cs),
(440,0,l),
(461,0,l),
(461,325,ls),
(461,452,o),
(400,518,o),
(287,518,cs),
(242,518,o),
(206,509,o),
(181,491,cs),
(156,473,o),
(138,453,o),
(129,430,c),
(126,430,l),
(126,506,l),
(105,506,l),
(105,0,l)
);
}
);
width = 556;
}
);
leftKerningGroup = m;
rightKerningGroup = h;
unicode = 110;
},
{
glyphname = o;
layers = (
{
anchors = (
{
name = b.uni0327;
position = "{281, 0}";
},
{
name = t.uni0303;
position = "{281, 540}";
}
);
layerId = "8DAE0D43-6C5F-4F99-A87C-49FC71346395";
shapes = (
{
closed = 1;
nodes = (
(394,-12,o),
(469,33,o),
(509,118,cs),
(528,159,o),
(538,210,o),
(538,266,cs),
(538,382,o),
(497,465,o),
(422,510,cs),
(384,532,o),
(338,543,o),
(283,543,cs),
(173,543,o),
(98,496,o),
(59,414,cs),
(39,373,o),
(29,325,o),
(29,266,cs),
(29,152,o),
(69,66,o),
(144,22,cs),
(182,-1,o),
(229,-12,o),
(283,-12,cs)
);
},
{
closed = 1;
nodes = (
(245,136,o),
(228,165,o),
(228,201,cs),
(228,330,ls),
(228,369,o),
(245,395,o),
(283,395,cs),
(324,395,o),
(339,369,o),
(339,330,cs),
(339,201,ls),
(339,165,o),
(324,136,o),
(283,136,cs)
);
}
);
width = 567;
},
{
anchors = (
{
name = b.uni0327;
position = "{281, 0}";
},
{
name = t.uni0303;
position = "{281, 540}";
}
);
layerId = "9788F852-2321-4FD5-ACA0-A5D578398D57";
shapes = (
{
closed = 1;
nodes = (
(385,-12,o),
(459,34,o),
(499,117,cs),
(518,158,o),
(528,207,o),
(528,263,cs),
(528,376,o),
(487,459,o),
(414,504,cs),
(377,526,o),
(333,537,o),
(282,537,cs),
(179,537,o),
(105,490,o),
(66,409,cs),
(46,368,o),
(36,320,o),
(36,263,cs),
(36,151,o),
(77,66,o),
(150,22,cs),
(187,-1,o),
(231,-12,o),
(282,-12,cs)
);
},
{
closed = 1;
nodes = (
(225,105,o),
(190,144,o),
(190,209,cs),
(190,316,ls),
(190,383,o),
(225,420,o),
(282,420,cs),
(341,420,o),
(374,383,o),
(374,316,cs),
(374,209,ls),
(374,144,o),
(341,105,o),
(282,105,cs)
);
}
);
width = 564;
},
{
anchors = (
{
name = b.uni0327;
position = "{281, 0}";
},
{
name = t.uni0303;
position = "{281, 540}";
}
);
layerId = "5F1C4D15-0292-4B2F-99F7-EAF0A1F73F4C";
shapes = (
{
closed = 1;
nodes = (
(372,-12,o),
(444,35,o),
(484,116,cs),
(503,156,o),
(513,203,o),
(513,258,cs),
(513,367,o),
(472,450,o),
(402,495,cs),
(367,517,o),
(326,528,o),
(280,528,cs),
(188,528,o),
(116,481,o),
(77,401,cs),
(57,360,o),
(47,313,o),
(47,258,cs),
(47,149,o),
(89,66,o),
(159,22,cs),
(194,-1,o),
(234,-12,o),
(280,-12,cs)
);
},
{
closed = 1;
nodes = (
(195,59,o),
(133,112,o),
(133,221,cs),
(133,295,ls),
(133,404,o),
(195,457,o),
(280,457,cs),
(367,457,o),
(427,404,o),
(427,295,cs),
(427,221,ls),
(427,112,o),
(367,59,o),
(280,59,cs)
);
}
);
width = 560;
},
{
anchors = (
{
name = b.uni0327;
position = "{271, 0}";
},
{
name = t.uni0303;
position = "{271, 540}";
}
);
layerId = "DC266226-4982-477B-8795-7301990C7B86";
shapes = (
{
closed = 1;
nodes = (
(358,-12,o),
(422,28,o),
(455,107,cs),
(472,146,o),
(480,195,o),
(480,253,cs),
(480,370,o),
(446,448,o),
(383,488,cs),
(352,508,o),
(314,518,o),
(270,518,cs),
(182,518,o),
(118,478,o),
(85,400,cs),
(68,361,o),
(60,312,o),
(60,253,cs),
(60,137,o),
(94,58,o),
(157,18,cs),
(188,-2,o),
(226,-12,o),
(270,-12,cs)
);
},
{
closed = 1;
nodes = (
(150,7,o),
(83,93,o),
(83,229,cs),
(83,277,ls),
(83,413,o),
(150,499,o),
(270,499,cs),
(390,499,o),
(457,413,o),
(457,277,cs),
(457,229,ls),
(457,93,o),
(390,7,o),
(270,7,cs)
);
}
);
width = 540;
}
);
leftKerningGroup = c2;
rightKerningGroup = o;
unicode = 111;
},
{
glyphname = p;
layers = (
{
anchors = (
{
name = t.uni0303;
position = "{317, 540}";
}
);
layerId = "8DAE0D43-6C5F-4F99-A87C-49FC71346395";
shapes = (
{
closed = 1;
nodes = (
(58,-200,l),
(252,-200,l),
(252,91,l),
(257,91,l),
(259,64,o),
(273,41,o),
(302,20,c),
(328,-2,o),
(358,-12,o),
(392,-12,cs),
(482,-12,o),
(538,29,o),
(567,112,c),
(580,153,o),
(588,205,o),
(588,266,cs),
(588,391,o),
(560,473,o),
(504,513,cs),
(474,534,o),
(438,543,o),
(392,543,cs),
(358,543,o),
(329,533,o),
(303,512,c),
(275,491,o),
(260,467,o),
(257,440,c),
(252,440,l),
(252,531,l),
(58,531,l)
);
},
{
closed = 1;
nodes = (
(295,140,o),
(272,149,o),
(261,167,c),
(254,176,o),
(252,186,o),
(252,198,cs),
(252,329,ls),
(252,356,o),
(264,376,o),
(285,385,c),
(297,389,o),
(309,391,o),
(325,391,cs),
(357,391,o),
(389,362,o),
(389,312,cs),
(389,219,ls),
(389,172,o),
(357,140,o),
(325,140,cs)
);
}
);
width = 627;
},
{
anchors = (
{
name = t.uni0303;
position = "{317, 540}";
}
);
layerId = "9788F852-2321-4FD5-ACA0-A5D578398D57";
shapes = (
{
closed = 1;
nodes = (
(69,-200,l),
(217,-200,l),
(217,88,l),
(222,88,l),
(229,59,o),
(246,36,o),
(273,17,c),
(299,-3,o),
(329,-12,o),
(363,-12,cs),
(452,-12,o),
(511,31,o),
(542,113,cs),
(557,154,o),
(565,204,o),
(565,263,cs),
(565,382,o),
(534,464,o),
(475,506,cs),
(445,527,o),
(408,537,o),
(363,537,cs),
(329,537,o),
(299,528,o),
(273,509,cs),
(246,490,o),
(229,466,o),
(222,437,c),
(217,437,l),
(217,525,l),
(69,525,l)
);
},
{
closed = 1;
nodes = (
(277,108,o),
(246,120,o),
(230,144,c),
(221,155,o),
(217,169,o),
(217,185,cs),
(217,340,ls),
(217,372,o),
(235,396,o),
(264,408,cs),
(279,414,o),
(295,417,o),
(314,417,cs),
(370,417,o),
(411,375,o),
(411,308,cs),
(411,217,ls),
(411,152,o),
(370,108,o),
(314,108,cs)
);
}
);
width = 608;
},
{
anchors = (
{
name = t.uni0303;
position = "{317, 540}";
}
);
layerId = "5F1C4D15-0292-4B2F-99F7-EAF0A1F73F4C";
shapes = (
{
closed = 1;
nodes = (
(85,-200,l),
(165,-200,l),
(165,84,l),
(169,84,l),
(184,52,o),
(205,28,o),
(230,12,cs),
(255,-4,o),
(285,-12,o),
(320,-12,cs),
(407,-12,o),
(471,34,o),
(505,115,cs),
(522,156,o),
(530,203,o),
(530,258,cs),
(530,369,o),
(495,451,o),
(432,495,cs),
(401,517,o),
(363,528,o),
(320,528,cs),
(285,528,o),
(254,520,o),
(228,505,cs),
(202,489,o),
(182,465,o),
(169,432,c),
(165,432,l),
(165,516,l),
(85,516,l)
);
},
{
closed = 1;
nodes = (
(250,60,o),
(207,77,o),
(183,109,cs),
(171,124,o),
(165,143,o),
(165,165,cs),
(165,357,ls),
(165,396,o),
(191,426,o),
(232,443,cs),
(252,452,o),
(274,456,o),
(298,456,cs),
(389,456,o),
(444,394,o),
(444,302,cs),
(444,214,ls),
(444,122,o),
(389,60,o),
(298,60,cs)
);
}
);
width = 580;
},
{
anchors = (
{
name = t.uni0303;
position = "{302, 540}";
}
);
layerId = "DC266226-4982-477B-8795-7301990C7B86";
shapes = (
{
closed = 1;
nodes = (
(105,-200,l),
(126,-200,l),
(126,78,l),
(129,78,l),
(140,56,o),
(159,36,o),
(186,17,cs),
(213,-3,o),
(248,-12,o),
(293,-12,cs),
(382,-12,o),
(446,27,o),
(480,106,cs),
(497,145,o),
(505,194,o),
(505,253,cs),
(505,370,o),
(470,449,o),
(407,489,cs),
(376,508,o),
(338,518,o),
(293,518,cs),
(248,518,o),
(213,509,o),
(186,490,cs),
(159,471,o),
(140,450,o),
(129,428,c),
(126,428,l),
(126,506,l),
(105,506,l)
);
},
{
closed = 1;
nodes = (
(234,7,o),
(181,31,o),
(150,72,cs),
(134,93,o),
(126,116,o),
(126,143,cs),
(126,363,ls),
(126,418,o),
(160,459,o),
(211,482,cs),
(236,493,o),
(264,499,o),
(293,499,cs),
(414,499,o),
(482,414,o),
(482,277,cs),
(482,229,ls),
(482,92,o),
(414,7,o),
(293,7,cs)
);
}
);
width = 565;
}
);
rightKerningGroup = b;
unicode = 112;
},
{
glyphname = q;
layers = (
{
anchors = (
{
name = t.uni0303;
position = "{291, 540}";
}
);
layerId = "8DAE0D43-6C5F-4F99-A87C-49FC71346395";
shapes = (
{
closed = 1;
nodes = (
(375,-200,l),
(568,-200,l),
(568,531,l),
(375,531,l),
(375,440,l),
(369,440,l),
(366,467,o),
(351,491,o),
(325,512,cs),
(298,533,o),
(268,543,o),
(235,543,cs),
(145,543,o),
(88,502,o),
(59,420,c),
(46,379,o),
(38,328,o),
(38,266,cs),
(38,141,o),
(67,60,o),
(124,19,cs),
(153,-3,o),
(190,-12,o),
(235,-12,cs),
(268,-12,o),
(298,-2,o),
(326,20,cs),
(353,41,o),
(368,64,o),
(369,91,c),
(375,91,l)
);
},
{
closed = 1;
nodes = (
(268,140,o),
(238,172,o),
(238,219,cs),
(238,312,ls),
(238,362,o),
(268,391,o),
(302,391,cs),
(331,391,o),
(355,384,o),
(367,365,c),
(372,355,o),
(375,343,o),
(375,329,cs),
(375,198,ls),
(375,174,o),
(362,156,o),
(341,146,c),
(329,142,o),
(317,140,o),
(302,140,cs)
);
}
);
width = 627;
},
{
anchors = (
{
name = t.uni0303;
position = "{291, 540}";
}
);
layerId = "9788F852-2321-4FD5-ACA0-A5D578398D57";
shapes = (
{
closed = 1;
nodes = (
(391,-200,l),
(539,-200,l),
(539,525,l),
(391,525,l),
(391,437,l),
(386,437,l),
(379,466,o),
(362,490,o),
(336,509,cs),
(309,528,o),
(279,537,o),
(245,537,cs),
(157,537,o),
(97,494,o),
(66,413,cs),
(51,372,o),
(43,322,o),
(43,263,cs),
(43,144,o),
(74,62,o),
(134,20,cs),
(164,-2,o),
(201,-12,o),
(245,-12,cs),
(279,-12,o),
(309,-3,o),
(336,17,cs),
(362,36,o),
(379,59,o),
(386,88,c),
(391,88,l)
);
},
{
closed = 1;
nodes = (
(238,108,o),
(197,152,o),
(197,217,cs),
(197,308,ls),
(197,375,o),
(238,417,o),
(294,417,cs),
(331,417,o),
(362,405,o),
(379,382,cs),
(387,370,o),
(391,356,o),
(391,340,cs),
(391,185,ls),
(391,153,o),
(373,129,o),
(344,117,cs),
(329,111,o),
(313,108,o),
(294,108,cs)
);
}
);
width = 608;
},
{
anchors = (
{
name = t.uni0303;
position = "{291, 540}";
}
);
layerId = "5F1C4D15-0292-4B2F-99F7-EAF0A1F73F4C";
shapes = (
{
closed = 1;
nodes = (
(415,-200,l),
(495,-200,l),
(495,516,l),
(415,516,l),
(415,432,l),
(411,432,l),
(398,465,o),
(378,489,o),
(352,505,cs),
(326,520,o),
(295,528,o),
(260,528,cs),
(175,528,o),
(110,482,o),
(76,402,cs),
(59,361,o),
(50,313,o),
(50,258,cs),
(50,149,o),
(85,65,o),
(149,21,cs),
(180,-1,o),
(217,-12,o),
(260,-12,cs),
(295,-12,o),
(326,-4,o),
(351,12,cs),
(376,28,o),
(396,52,o),
(411,84,c),
(415,84,l)
);
},
{
closed = 1;
nodes = (
(193,60,o),
(136,122,o),
(136,214,cs),
(136,302,ls),
(136,394,o),
(193,456,o),
(282,456,cs),
(331,456,o),
(373,437,o),
(397,408,cs),
(409,393,o),
(415,376,o),
(415,357,cs),
(415,165,ls),
(415,121,o),
(389,89,o),
(349,73,c),
(329,64,o),
(307,60,o),
(282,60,cs)
);
}
);
width = 580;
},
{
anchors = (
{
name = t.uni0303;
position = "{290, 540}";
}
);
layerId = "DC266226-4982-477B-8795-7301990C7B86";
shapes = (
{
closed = 1;
nodes = (
(439,-200,l),
(460,-200,l),
(460,506,l),
(439,506,l),
(439,428,l),
(436,428,l),
(425,450,o),
(407,471,o),
(380,490,cs),
(353,509,o),
(317,518,o),
(272,518,cs),
(184,518,o),
(120,479,o),
(86,400,cs),
(69,361,o),
(60,312,o),
(60,253,cs),
(60,136,o),
(95,57,o),
(159,18,cs),
(190,-2,o),
(228,-12,o),
(272,-12,cs),
(317,-12,o),
(353,-3,o),
(380,17,cs),
(407,36,o),
(425,56,o),
(436,78,c),
(439,78,l)
);
},
{
closed = 1;
nodes = (
(151,7,o),
(83,92,o),
(83,229,cs),
(83,277,ls),
(83,414,o),
(151,499,o),
(272,499,cs),
(331,499,o),
(384,475,o),
(416,435,c),
(431,414,o),
(439,390,o),
(439,363,cs),
(439,143,ls),
(439,90,o),
(405,47,o),
(354,24,cs),
(329,13,o),
(301,7,o),
(272,7,cs)
);
}
);
width = 565;
}
);
leftKerningGroup = d;
rightKerningGroup = q;
unicode = 113;
},
{
glyphname = r;
layers = (
{
anchors = (
{
name = b.uni0327;
position = "{143, 0}";
},
{
name = t.uni0303;
position = "{224, 540}";
}
);
layerId = "8DAE0D43-6C5F-4F99-A87C-49FC71346395";
shapes = (
{
closed = 1;
nodes = (
(252,0,l),
(252,278,ls),
(252,325,o),
(268,344,o),
(304,350,c),
(322,354,o),
(344,354,o),
(373,354,cs),
(403,354,l),
(403,531,l),
(381,531,ls),
(326,531,o),
(293,504,o),
(275,465,c),
(265,446,o),
(259,425,o),
(257,404,c),
(252,404,l),
(252,531,l),
(58,531,l),
(58,0,l)
);
}
);
width = 429;
},
{
anchors = (
{
name = b.uni0327;
position = "{143, 0}";
},
{
name = t.uni0303;
position = "{224, 540}";
}
);
layerId = "9788F852-2321-4FD5-ACA0-A5D578398D57";
shapes = (
{
closed = 1;
nodes = (
(217,0,l),
(217,307,ls),
(217,348,o),
(236,370,o),
(274,380,cs),
(293,385,o),
(316,387,o),
(345,387,cs),
(382,387,l),
(382,525,l),
(356,525,ls),
(301,525,o),
(265,501,o),
(244,466,cs),
(233,449,o),
(226,430,o),
(222,411,c),
(217,411,l),
(217,525,l),
(69,525,l),
(69,0,l)
);
}
);
width = 404;
},
{
anchors = (
{
name = b.uni0327;
position = "{143, 0}";
},
{
name = t.uni0303;
position = "{224, 540}";
}
);
layerId = "5F1C4D15-0292-4B2F-99F7-EAF0A1F73F4C";
shapes = (
{
closed = 1;
nodes = (
(165,0,l),
(165,350,ls),
(165,383,o),
(188,409,o),
(229,425,c),
(250,432,o),
(274,436,o),
(303,436,cs),
(350,436,l),
(350,516,l),
(319,516,ls),
(263,516,o),
(223,496,o),
(198,468,cs),
(185,453,o),
(176,438,o),
(170,421,c),
(165,421,l),
(165,516,l),
(85,516,l),
(85,0,l)
);
}
);
width = 367;
},
{
anchors = (
{
name = b.uni0327;
position = "{132, 0}";
},
{
name = t.uni0303;
position = "{226, 540}";
}
);
layerId = "DC266226-4982-477B-8795-7301990C7B86";
shapes = (
{
closed = 1;
nodes = (
(126,0,l),
(126,349,ls),
(126,412,o),
(159,452,o),
(207,472,cs),
(231,482,o),
(257,487,o),
(284,487,cs),
(328,487,l),
(328,506,l),
(287,506,ls),
(226,506,o),
(185,489,o),
(160,463,cs),
(147,450,o),
(137,435,o),
(129,419,c),
(126,419,l),
(126,506,l),
(105,506,l),
(105,0,l)
);
}
);
width = 341;
}
);
leftKerningGroup = m;
rightKerningGroup = r;
unicode = 114;
},
{
glyphname = s;
layers = (
{
layerId = "8DAE0D43-6C5F-4F99-A87C-49FC71346395";
shapes = (
{
closed = 1;
nodes = (
(351,-12,o),
(427,23,o),
(468,80,cs),
(490,109,o),
(499,139,o),
(499,172,cs),
(499,271,o),
(431,325,o),
(316,339,cs),
(245,348,l),
(216,353,o),
(219,363,o),
(219,377,cs),
(219,389,o),
(230,397,o),
(268,397,cs),
(283,397,o),
(301,392,o),
(321,386,c),
(342,378,o),
(360,366,o),
(381,349,c),
(488,462,l),
(448,497,o),
(412,522,o),
(356,535,c),
(329,540,o),
(294,543,o),
(251,543,cs),
(181,543,o),
(128,524,o),
(90,489,cs),
(52,453,o),
(34,410,o),
(34,359,cs),
(34,297,o),
(57,250,o),
(111,219,c),
(138,205,o),
(174,194,o),
(218,189,cs),
(286,181,ls),
(302,179,o),
(314,180,o),
(314,162,cs),
(314,145,o),
(309,134,o),
(256,134,cs),
(204,134,o),
(161,158,o),
(126,193,c),
(19,77,l),
(80,18,o),
(147,-12,o),
(252,-12,cs)
);
}
);
width = 515;
},
{
layerId = "9788F852-2321-4FD5-ACA0-A5D578398D57";
shapes = (
{
closed = 1;
nodes = (
(338,-12,o),
(407,20,o),
(444,73,cs),
(463,100,o),
(472,130,o),
(472,163,cs),
(472,254,o),
(414,306,o),
(299,321,cs),
(240,329,l),
(197,336,o),
(185,350,o),
(185,378,cs),
(185,405,o),
(206,422,o),
(255,422,cs),
(277,422,o),
(299,417,o),
(320,408,cs),
(341,398,o),
(359,385,o),
(376,368,c),
(461,455,l),
(426,490,o),
(391,515,o),
(340,528,cs),
(315,534,o),
(284,537,o),
(247,537,cs),
(184,537,o),
(135,521,o),
(98,490,cs),
(61,458,o),
(43,417,o),
(43,366,cs),
(43,303,o),
(69,259,o),
(122,232,cs),
(148,219,o),
(181,209,o),
(220,204,cs),
(277,197,ls),
(314,192,o),
(330,180,o),
(330,153,cs),
(330,122,o),
(311,103,o),
(252,103,cs),
(195,103,o),
(150,129,o),
(113,170,c),
(26,82,l),
(81,22,o),
(146,-12,o),
(247,-12,cs)
);
}
);
width = 504;
},
{
layerId = "5F1C4D15-0292-4B2F-99F7-EAF0A1F73F4C";
shapes = (
{
closed = 1;
nodes = (
(319,-12,o),
(377,15,o),
(408,63,cs),
(423,87,o),
(431,116,o),
(431,149,cs),
(431,228,o),
(388,277,o),
(273,294,cs),
(233,300,ls),
(169,311,o),
(134,331,o),
(134,380,cs),
(134,429,o),
(170,460,o),
(235,460,cs),
(268,460,o),
(296,454,o),
(318,441,cs),
(340,428,o),
(357,413,o),
(368,397,c),
(421,445,l),
(393,480,o),
(359,505,o),
(316,518,cs),
(294,525,o),
(269,528,o),
(241,528,cs),
(188,528,o),
(145,516,o),
(110,491,cs),
(75,466,o),
(57,427,o),
(57,376,cs),
(57,312,o),
(87,273,o),
(138,251,cs),
(163,240,o),
(192,232,o),
(223,227,cs),
(264,221,ls),
(332,212,o),
(354,180,o),
(354,140,cs),
(354,87,o),
(314,56,o),
(246,56,cs),
(181,56,o),
(133,86,o),
(93,135,c),
(36,89,l),
(83,28,o),
(145,-12,o),
(240,-12,cs)
);
}
);
width = 487;
},
{
layerId = "DC266226-4982-477B-8795-7301990C7B86";
shapes = (
{
closed = 1;
nodes = (
(305,-12,o),
(355,10,o),
(383,51,c),
(396,72,o),
(403,96,o),
(403,125,cs),
(403,214,o),
(346,252,o),
(258,265,cs),
(214,272,ls),
(129,287,o),
(87,315,o),
(87,390,cs),
(87,461,o),
(143,499,o),
(227,499,cs),
(267,499,o),
(298,492,o),
(321,478,cs),
(343,464,o),
(362,448,o),
(377,431,c),
(393,445,l),
(372,470,o),
(342,494,o),
(301,508,cs),
(280,515,o),
(255,518,o),
(226,518,cs),
(181,518,o),
(144,507,o),
(113,486,cs),
(82,464,o),
(66,432,o),
(66,389,cs),
(66,330,o),
(90,295,o),
(134,275,c),
(155,264,o),
(181,257,o),
(210,252,cs),
(254,245,ls),
(338,232,o),
(382,200,o),
(382,124,cs),
(382,49,o),
(331,7,o),
(236,7,cs),
(163,7,o),
(114,30,o),
(67,93,c),
(49,81,l),
(96,16,o),
(155,-12,o),
(236,-12,cs)
);
}
);
width = 462;
}
);
leftKerningGroup = s2;
rightKerningGroup = s;
unicode = 115;
},
{
glyphname = t;
layers = (
{
anchors = (
{
name = b.uni0327;
position = "{229, 0}";
},
{
name = t.uni0315;
position = "{308, 791}";
}
);
layerId = "8DAE0D43-6C5F-4F99-A87C-49FC71346395";
shapes = (
{
closed = 1;
nodes = (
(369,0,l),
(369,145,l),
(279,145,l),
(279,386,l),
(377,386,l),
(377,531,l),
(279,531,l),
(279,672,l),
(105,672,l),
(105,593,ls),
(105,556,o),
(92,531,o),
(49,531,cs),
(19,531,l),
(19,386,l),
(86,386,l),
(86,198,ls),
(86,64,o),
(157,0,o),
(289,0,cs)
);
}
);
width = 404;
},
{
anchors = (
{
name = b.uni0327;
position = "{229, 0}";
},
{
name = t.uni0315;
position = "{308, 791}";
}
);
layerId = "9788F852-2321-4FD5-ACA0-A5D578398D57";
shapes = (
{
closed = 1;
nodes = (
(341,0,l),
(341,115,l),
(245,115,l),
(245,410,l),
(349,410,l),
(349,525,l),
(245,525,l),
(245,667,l),
(112,667,l),
(112,581,ls),
(112,545,o),
(100,525,o),
(60,525,cs),
(23,525,l),
(23,410,l),
(97,410,l),
(97,153,ls),
(97,53,o),
(152,0,o),
(253,0,cs)
);
}
);
width = 383;
},
{
anchors = (
{
name = b.uni0327;
position = "{229, 0}";
},
{
name = t.uni0315;
position = "{308, 791}";
}
);
layerId = "5F1C4D15-0292-4B2F-99F7-EAF0A1F73F4C";
shapes = (
{
closed = 1;
nodes = (
(299,0,l),
(299,70,l),
(194,70,l),
(194,446,l),
(307,446,l),
(307,516,l),
(194,516,l),
(194,659,l),
(122,659,l),
(122,563,ls),
(122,528,o),
(112,516,o),
(77,516,cs),
(29,516,l),
(29,446,l),
(114,446,l),
(114,85,ls),
(114,36,o),
(144,0,o),
(199,0,cs)
);
}
);
width = 351;
},
{
anchors = (
{
name = b.uni0327;
position = "{206, 0}";
},
{
name = t.uni0315;
position = "{291, 780}";
}
);
layerId = "DC266226-4982-477B-8795-7301990C7B86";
shapes = (
{
closed = 1;
nodes = (
(259,0,l),
(259,19,l),
(146,19,l),
(146,487,l),
(267,487,l),
(267,506,l),
(146,506,l),
(146,650,l),
(125,650,l),
(125,531,ls),
(125,514,o),
(121,506,o),
(102,506,cs),
(30,506,l),
(30,487,l),
(125,487,l),
(125,29,ls),
(125,9,o),
(134,0,o),
(154,0,cs)
);
}
);
width = 310;
}
);
leftKerningGroup = t2;
rightKerningGroup = t;
unicode = 116;
},
{
glyphname = u;
layers = (
{
anchors = (
{
name = b.uni0327;
position = "{295, 0}";
},
{
name = b.uni0328;
position = "{527, 0}";
},
{
name = t.uni0303;
position = "{295, 540}";
}
);
layerId = "8DAE0D43-6C5F-4F99-A87C-49FC71346395";
shapes = (
{
closed = 1;
nodes = (
(363,0,l),
(556,0,l),
(556,531,l),
(363,531,l),
(363,201,ls),
(363,176,o),
(347,157,o),
(326,148,cs),
(313,142,o),
(302,140,o),
(291,140,cs),
(254,140,o),
(245,169,o),
(245,214,cs),
(245,531,l),
(52,531,l),
(52,202,ls),
(52,65,o),
(101,-12,o),
(209,-12,cs),
(252,-12,o),
(287,-2,o),
(310,18,cs),
(335,39,o),
(349,62,o),
(357,91,c),
(363,91,l)
);
}
);
width = 615;
},
{
anchors = (
{
name = b.uni0327;
position = "{295, 0}";
},
{
name = b.uni0328;
position = "{527, 0}";
},
{
name = t.uni0303;
position = "{295, 540}";
}
);
layerId = "9788F852-2321-4FD5-ACA0-A5D578398D57";
shapes = (
{
closed = 1;
nodes = (
(379,0,l),
(527,0,l),
(527,525,l),
(379,525,l),
(379,184,ls),
(379,151,o),
(359,128,o),
(331,117,cs),
(316,111,o),
(301,108,o),
(286,108,cs),
(233,108,o),
(211,144,o),
(211,208,cs),
(211,525,l),
(63,525,l),
(63,195,ls),
(63,63,o),
(120,-12,o),
(227,-12,cs),
(270,-12,o),
(304,-2,o),
(327,18,cs),
(350,38,o),
(365,61,o),
(374,88,c),
(379,88,l)
);
}
);
width = 596;
},
{
anchors = (
{
name = b.uni0327;
position = "{295, 0}";
},
{
name = b.uni0328;
position = "{527, 0}";
},
{
name = t.uni0303;
position = "{295, 540}";
}
);
layerId = "5F1C4D15-0292-4B2F-99F7-EAF0A1F73F4C";
shapes = (
{
closed = 1;
nodes = (
(403,0,l),
(483,0,l),
(483,516,l),
(403,516,l),
(403,159,ls),
(403,114,o),
(377,85,o),
(339,71,cs),
(320,64,o),
(299,60,o),
(278,60,cs),
(201,60,o),
(160,107,o),
(160,199,cs),
(160,516,l),
(80,516,l),
(80,185,ls),
(80,60,o),
(149,-12,o),
(254,-12,cs),
(297,-12,o),
(330,-2,o),
(352,18,cs),
(373,37,o),
(389,59,o),
(399,84,c),
(403,84,l)
);
}
);
width = 568;
},
{
anchors = (
{
name = b.uni0327;
position = "{286, 0}";
},
{
name = b.uni0328;
position = "{495, 0}";
},
{
name = t.uni0303;
position = "{286, 540}";
}
);
layerId = "DC266226-4982-477B-8795-7301990C7B86";
shapes = (
{
closed = 1;
nodes = (
(430,0,l),
(451,0,l),
(451,506,l),
(430,506,l),
(430,144,ls),
(430,83,o),
(397,42,o),
(349,22,cs),
(325,12,o),
(299,7,o),
(271,7,cs),
(172,7,o),
(116,62,o),
(116,185,cs),
(116,506,l),
(95,506,l),
(95,181,ls),
(95,56,o),
(156,-12,o),
(269,-12,cs),
(314,-12,o),
(350,-3,o),
(376,15,cs),
(401,33,o),
(418,53,o),
(427,76,c),
(430,76,l)
);
}
);
width = 556;
}
);
leftKerningGroup = u2;
rightKerningGroup = u;
unicode = 117;
},
{
glyphname = v;
layers = (
{
anchors = (
{
name = b.uni0327;
position = "{269, 0}";
},
{
name = t.uni0303;
position = "{269, 540}";
}
);
layerId = "8DAE0D43-6C5F-4F99-A87C-49FC71346395";
shapes = (
{
closed = 1;
nodes = (
(400,0,l),
(566,531,l),
(384,531,l),
(340,348,l),
(296,149,l),
(286,149,l),
(241,348,l),
(193,531,l),
(3,531,l),
(169,0,l)
);
}
);
width = 569;
},
{
anchors = (
{
name = b.uni0327;
position = "{269, 0}";
},
{
name = t.uni0303;
position = "{269, 540}";
}
);
layerId = "9788F852-2321-4FD5-ACA0-A5D578398D57";
shapes = (
{
closed = 1;
nodes = (
(357,0,l),
(529,525,l),
(389,525,l),
(326,313,l),
(277,123,l),
(269,123,l),
(220,313,l),
(155,525,l),
(9,525,l),
(181,0,l)
);
}
);
width = 538;
},
{
anchors = (
{
name = b.uni0327;
position = "{269, 0}";
},
{
name = t.uni0303;
position = "{269, 540}";
}
);
layerId = "5F1C4D15-0292-4B2F-99F7-EAF0A1F73F4C";
shapes = (
{
closed = 1;
nodes = (
(292,0,l),
(474,516,l),
(397,516,l),
(305,260,l),
(249,84,l),
(244,84,l),
(188,260,l),
(98,516,l),
(18,516,l),
(199,0,l)
);
}
);
width = 492;
},
{
anchors = (
{
name = b.uni0327;
position = "{249, 0}";
},
{
name = t.uni0303;
position = "{249, 540}";
}
);
layerId = "DC266226-4982-477B-8795-7301990C7B86";
shapes = (
{
closed = 1;
nodes = (
(239,0,l),
(427,506,l),
(406,506,l),
(289,189,l),
(228,24,l),
(225,24,l),
(164,189,l),
(47,506,l),
(25,506,l),
(213,0,l)
);
}
);
width = 452;
}
);
unicode = 118;
},
{
glyphname = w;
layers = (
{
anchors = (
{
name = b.uni0327;
position = "{421, 0}";
},
{
name = t.uni0303;
position = "{421, 540}";
}
);
layerId = "8DAE0D43-6C5F-4F99-A87C-49FC71346395";
shapes = (
{
closed = 1;
nodes = (
(164,0,l),
(353,0,l),
(411,205,l),
(442,327,l),
(446,327,l),
(477,205,l),
(536,0,l),
(728,0,l),
(879,531,l),
(700,531,l),
(653,326,l),
(628,210,l),
(623,210,l),
(594,326,l),
(537,531,l),
(359,531,l),
(302,326,l),
(274,210,l),
(269,210,l),
(246,326,l),
(197,531,l),
(11,531,l)
);
}
);
width = 890;
},
{
anchors = (
{
name = b.uni0327;
position = "{421, 0}";
},
{
name = t.uni0303;
position = "{421, 540}";
}
);
layerId = "9788F852-2321-4FD5-ACA0-A5D578398D57";
shapes = (
{
closed = 1;
nodes = (
(166,0,l),
(318,0,l),
(382,222,l),
(418,358,l),
(421,358,l),
(458,222,l),
(522,0,l),
(677,0,l),
(822,525,l),
(685,525,l),
(634,313,l),
(598,153,l),
(594,153,l),
(551,313,l),
(490,525,l),
(355,525,l),
(295,313,l),
(253,153,l),
(249,153,l),
(213,313,l),
(162,525,l),
(19,525,l)
);
}
);
width = 841;
},
{
anchors = (
{
name = b.uni0327;
position = "{421, 0}";
},
{
name = t.uni0303;
position = "{421, 540}";
}
);
layerId = "5F1C4D15-0292-4B2F-99F7-EAF0A1F73F4C";
shapes = (
{
closed = 1;
nodes = (
(169,0,l),
(266,0,l),
(338,248,l),
(382,405,l),
(384,405,l),
(429,248,l),
(501,0,l),
(600,0,l),
(737,516,l),
(662,516,l),
(606,293,l),
(553,67,l),
(551,67,l),
(487,293,l),
(420,516,l),
(349,516,l),
(284,293,l),
(221,67,l),
(219,67,l),
(164,293,l),
(109,516,l),
(31,516,l)
);
}
);
width = 768;
},
{
anchors = (
{
name = b.uni0327;
position = "{400, 0}";
},
{
name = t.uni0303;
position = "{400, 540}";
}
);
layerId = "DC266226-4982-477B-8795-7301990C7B86";
shapes = (
{
closed = 1;
nodes = (
(189,0,l),
(215,0,l),
(310,308,l),
(361,472,l),
(364,472,l),
(415,308,l),
(510,0,l),
(536,0,l),
(690,506,l),
(669,506,l),
(574,191,l),
(525,27,l),
(522,27,l),
(471,191,l),
(374,506,l),
(352,506,l),
(255,191,l),
(204,27,l),
(201,27,l),
(152,191,l),
(57,506,l),
(35,506,l)
);
}
);
width = 725;
}
);
leftKerningGroup = w2;
rightKerningGroup = w;
unicode = 119;
},
{
glyphname = x;
layers = (
{
anchors = (
{
name = b.uni0327;
position = "{280, 0}";
},
{
name = t.uni0303;
position = "{280, 540}";
}
);
layerId = "8DAE0D43-6C5F-4F99-A87C-49FC71346395";
shapes = (
{
closed = 1;
nodes = (
(16,0,l),
(213,0,l),
(278,150,l),
(283,150,l),
(362,0,l),
(579,0,l),
(412,259,l),
(580,531,l),
(380,531,l),
(312,384,l),
(307,384,l),
(231,531,l),
(14,531,l),
(177,272,l)
);
}
);
width = 595;
},
{
anchors = (
{
name = b.uni0327;
position = "{280, 0}";
},
{
name = t.uni0303;
position = "{280, 540}";
}
);
layerId = "9788F852-2321-4FD5-ACA0-A5D578398D57";
shapes = (
{
closed = 1;
nodes = (
(18,0,l),
(172,0,l),
(269,171,l),
(273,171,l),
(374,0,l),
(542,0,l),
(367,262,l),
(541,525,l),
(385,525,l),
(290,360,l),
(286,360,l),
(188,525,l),
(20,525,l),
(191,267,l)
);
}
);
width = 560;
},
{
anchors = (
{
name = b.uni0327;
position = "{280, 0}";
},
{
name = t.uni0303;
position = "{280, 540}";
}
);
layerId = "5F1C4D15-0292-4B2F-99F7-EAF0A1F73F4C";
shapes = (
{
closed = 1;
nodes = (
(21,0,l),
(110,0,l),
(255,202,l),
(258,202,l),
(392,0,l),
(486,0,l),
(300,266,l),
(482,516,l),
(393,516,l),
(257,324,l),
(254,324,l),
(123,516,l),
(29,516,l),
(212,260,l)
);
}
);
width = 507;
},
{
anchors = (
{
name = b.uni0327;
position = "{262, 0}";
},
{
name = t.uni0303;
position = "{262, 540}";
}
);
layerId = "DC266226-4982-477B-8795-7301990C7B86";
shapes = (
{
closed = 1;
nodes = (
(34,0,l),
(58,0,l),
(234,239,l),
(236,239,l),
(412,0,l),
(436,0,l),
(248,255,l),
(431,506,l),
(407,506,l),
(236,271,l),
(234,271,l),
(63,506,l),
(39,506,l),
(222,255,l)
);
}
);
width = 470;
}
);
unicode = 120;
},
{
glyphname = y;
layers = (
{
anchors = (
{
name = b.uni0327;
position = "{432, 0}";
},
{
name = t.uni0303;
position = "{271, 540}";
}
);
layerId = "8DAE0D43-6C5F-4F99-A87C-49FC71346395";
shapes = (
{
closed = 1;
nodes = (
(336,357,l),
(290,159,l),
(283,159,l),
(236,357,l),
(190,531,l),
(-1,531,l),
(177,-32,l),
(123,-200,l),
(331,-200,l),
(559,531,l),
(381,531,l)
);
}
);
width = 557;
},
{
anchors = (
{
name = b.uni0327;
position = "{432, 0}";
},
{
name = t.uni0303;
position = "{271, 540}";
}
);
layerId = "9788F852-2321-4FD5-ACA0-A5D578398D57";
shapes = (
{
closed = 1;
nodes = (
(313,280,l),
(274,128,l),
(268,128,l),
(230,280,l),
(153,525,l),
(6,525,l),
(190,-27,l),
(130,-200,l),
(286,-200,l),
(528,525,l),
(390,525,l)
);
}
);
width = 534;
},
{
anchors = (
{
name = b.uni0327;
position = "{432, 0}";
},
{
name = t.uni0303;
position = "{271, 540}";
}
);
layerId = "5F1C4D15-0292-4B2F-99F7-EAF0A1F73F4C";
shapes = (
{
closed = 1;
nodes = (
(278,165,l),
(250,81,l),
(245,81,l),
(221,165,l),
(97,516,l),
(17,516,l),
(210,-20,l),
(139,-200,l),
(222,-200,l),
(482,516,l),
(403,516,l)
);
}
);
width = 499;
},
{
anchors = (
{
name = b.uni0327;
position = "{396, 0}";
},
{
name = t.uni0303;
position = "{249, 540}";
}
);
layerId = "DC266226-4982-477B-8795-7301990C7B86";
shapes = (
{
closed = 1;
nodes = (
(291,194,l),
(228,24,l),
(225,24,l),
(162,194,l),
(47,506,l),
(25,506,l),
(216,-7,l),
(144,-200,l),
(166,-200,l),
(427,506,l),
(406,506,l)
);
}
);
width = 452;
}
);
leftKerningGroup = y2;
rightKerningGroup = y;
unicode = 121;
},
{
glyphname = z;
layers = (
{
anchors = (
{
name = b.uni0327;
position = "{259, 0}";
},
{
name = t.uni0303;
position = "{259, 540}";
}
);
layerId = "8DAE0D43-6C5F-4F99-A87C-49FC71346395";
shapes = (
{
closed = 1;
nodes = (
(511,0,l),
(511,145,l),
(267,145,l),
(505,378,l),
(505,531,l),
(52,531,l),
(52,386,l),
(283,386,l),
(43,150,l),
(43,0,l)
);
}
);
width = 554;
},
{
anchors = (
{
name = b.uni0327;
position = "{259, 0}";
},
{
name = t.uni0303;
position = "{259, 540}";
}
);
layerId = "9788F852-2321-4FD5-ACA0-A5D578398D57";
shapes = (
{
closed = 1;
nodes = (
(479,0,l),
(479,115,l),
(210,115,l),
(472,409,l),
(472,525,l),
(48,525,l),
(48,410,l),
(300,410,l),
(39,117,l),
(39,0,l)
);
}
);
width = 518;
},
{
anchors = (
{
name = b.uni0327;
position = "{259, 0}";
},
{
name = t.uni0303;
position = "{259, 540}";
}
);
layerId = "5F1C4D15-0292-4B2F-99F7-EAF0A1F73F4C";
shapes = (
{
closed = 1;
nodes = (
(431,0,l),
(431,70,l),
(124,70,l),
(423,456,l),
(423,516,l),
(42,516,l),
(42,446,l),
(326,446,l),
(33,67,l),
(33,0,l)
);
}
);
width = 464;
},
{
anchors = (
{
name = b.uni0327;
position = "{236, 0}";
},
{
name = t.uni0303;
position = "{236, 540}";
}
);
layerId = "DC266226-4982-477B-8795-7301990C7B86";
shapes = (
{
closed = 1;
nodes = (
(396,0,l),
(396,19,l),
(49,19,l),
(386,485,l),
(386,506,l),
(37,506,l),
(37,487,l),
(364,487,l),
(27,21,l),
(27,0,l)
);
}
);
width = 417;
}
);
leftKerningGroup = z2;
rightKerningGroup = z;
unicode = 122;
},
{
glyphname = A;
layers = (
{
anchors = (
{
name = b.uni0327;
position = "{339, 0}";
},
{
name = b.uni0328;
position = "{665, 0}";
},
{
name = t.uni0303;
position = "{339, 698}";
}
);
layerId = "8DAE0D43-6C5F-4F99-A87C-49FC71346395";
shapes = (
{
closed = 1;
nodes = (
(696,0,l),
(481,698,l),
(239,698,l),
(18,0,l),
(218,0,l),
(255,139,l),
(455,139,l),
(492,0,l)
);
},
{
closed = 1;
nodes = (
(407,305,l),
(301,305,l),
(314,378,l),
(351,520,l),
(356,520,l),
(394,378,l)
);
}
);
width = 714;
},
{
anchors = (
{
name = b.uni0327;
position = "{339, 0}";
},
{
name = b.uni0328;
position = "{665, 0}";
},
{
name = t.uni0303;
position = "{339, 698}";
}
);
layerId = "9788F852-2321-4FD5-ACA0-A5D578398D57";
shapes = (
{
closed = 1;
nodes = (
(665,0,l),
(438,698,l),
(250,698,l),
(20,0,l),
(174,0,l),
(224,166,l),
(457,166,l),
(507,0,l)
);
},
{
closed = 1;
nodes = (
(420,295,l),
(260,295,l),
(303,440,l),
(337,560,l),
(342,560,l),
(377,440,l)
);
}
);
width = 685;
},
{
anchors = (
{
name = b.uni0327;
position = "{339, 0}";
},
{
name = b.uni0328;
position = "{665, 0}";
},
{
name = t.uni0303;
position = "{339, 698}";
}
);
layerId = "5F1C4D15-0292-4B2F-99F7-EAF0A1F73F4C";
shapes = (
{
closed = 1;
nodes = (
(618,0,l),
(374,698,l),
(267,698,l),
(23,0,l),
(108,0,l),
(178,206,l),
(460,206,l),
(530,0,l)
);
},
{
closed = 1;
nodes = (
(439,280,l),
(198,280,l),
(286,533,l),
(316,620,l),
(321,620,l),
(351,533,l)
);
}
);
width = 641;
},
{
anchors = (
{
name = b.uni0327;
position = "{323, 0}";
},
{
name = b.uni0328;
position = "{615, 0}";
},
{
name = t.uni0303;
position = "{316, 698}";
}
);
layerId = "DC266226-4982-477B-8795-7301990C7B86";
shapes = (
{
closed = 1;
nodes = (
(568,0,l),
(315,698,l),
(285,698,l),
(32,0,l),
(55,0,l),
(140,234,l),
(460,234,l),
(545,0,l)
);
},
{
closed = 1;
nodes = (
(453,253,l),
(147,253,l),
(244,524,l),
(298,675,l),
(301,675,l),
(356,524,l)
);
}
);
width = 600;
}
);
leftKerningGroup = A2;
rightKerningGroup = A;
unicode = 65;
},
{
glyphname = B;
layers = (
{
layerId = "8DAE0D43-6C5F-4F99-A87C-49FC71346395";
shapes = (
{
closed = 1;
nodes = (
(66,0,l),
(472,0,ls),
(541,0,o),
(597,40,o),
(629,99,cs),
(644,128,o),
(652,161,o),
(652,197,cs),
(652,258,o),
(629,302,o),
(594,327,cs),
(560,352,o),
(520,363,o),
(481,362,c),
(481,368,l),
(541,370,o),
(583,387,o),
(606,433,cs),
(617,454,o),
(623,485,o),
(623,520,cs),
(623,627,o),
(555,698,o),
(440,698,cs),
(66,698,l)
);
},
{
closed = 1;
nodes = (
(264,264,l),
(417,264,ls),
(430,264,o),
(439,259,o),
(444,248,c),
(447,244,o),
(448,237,o),
(448,231,cs),
(448,197,ls),
(448,183,o),
(443,175,o),
(434,169,c),
(429,166,o),
(423,164,o),
(417,164,cs),
(264,164,l)
);
},
{
closed = 1;
nodes = (
(264,534,l),
(387,534,ls),
(402,534,o),
(414,528,o),
(420,515,c),
(422,508,o),
(423,500,o),
(423,492,cs),
(423,465,ls),
(423,447,o),
(418,435,o),
(407,428,cs),
(401,425,o),
(394,423,o),
(387,423,cs),
(264,423,l)
);
}
);
width = 676;
},
{
layerId = "9788F852-2321-4FD5-ACA0-A5D578398D57";
shapes = (
{
closed = 1;
nodes = (
(77,0,l),
(447,0,ls),
(516,0,o),
(572,39,o),
(604,99,c),
(619,129,o),
(627,162,o),
(627,199,cs),
(627,259,o),
(605,301,o),
(573,326,cs),
(541,351,o),
(503,363,o),
(470,363,c),
(470,369,l),
(518,372,o),
(559,390,o),
(583,434,cs),
(594,455,o),
(600,484,o),
(600,519,cs),
(600,627,o),
(531,698,o),
(416,698,cs),
(77,698,l)
);
},
{
closed = 1;
nodes = (
(229,288,l),
(404,288,ls),
(431,288,o),
(450,278,o),
(461,259,cs),
(466,250,o),
(469,238,o),
(469,225,cs),
(469,191,ls),
(469,164,o),
(458,146,o),
(439,136,cs),
(429,131,o),
(417,128,o),
(404,128,cs),
(229,128,l)
);
},
{
closed = 1;
nodes = (
(229,570,l),
(380,570,ls),
(407,570,o),
(427,560,o),
(437,541,cs),
(442,531,o),
(444,519,o),
(444,506,cs),
(444,476,ls),
(444,449,o),
(434,430,o),
(415,420,cs),
(405,415,o),
(393,412,o),
(380,412,cs),
(229,412,l)
);
}
);
width = 667;
},
{
layerId = "5F1C4D15-0292-4B2F-99F7-EAF0A1F73F4C";
shapes = (
{
closed = 1;
nodes = (
(93,0,l),
(410,0,ls),
(479,0,o),
(535,38,o),
(567,99,c),
(582,130,o),
(590,164,o),
(590,202,cs),
(590,261,o),
(569,300,o),
(541,325,cs),
(512,350,o),
(478,363,o),
(453,364,c),
(453,370,l),
(484,375,o),
(523,394,o),
(548,435,cs),
(560,456,o),
(566,483,o),
(566,518,cs),
(566,627,o),
(495,698,o),
(380,698,cs),
(93,698,l)
);
},
{
closed = 1;
nodes = (
(177,324,l),
(384,324,ls),
(432,324,o),
(467,307,o),
(486,275,cs),
(495,259,o),
(500,239,o),
(500,216,cs),
(500,182,ls),
(500,135,o),
(481,103,o),
(446,87,c),
(429,78,o),
(408,74,o),
(384,74,cs),
(177,74,l)
);
},
{
closed = 1;
nodes = (
(177,624,l),
(370,624,ls),
(414,624,o),
(446,608,o),
(463,580,cs),
(472,565,o),
(476,548,o),
(476,527,cs),
(476,493,ls),
(476,452,o),
(458,423,o),
(427,408,cs),
(411,400,o),
(392,396,o),
(370,396,cs),
(177,396,l)
);
}
);
width = 653;
},
{
layerId = "DC266226-4982-477B-8795-7301990C7B86";
shapes = (
{
closed = 1;
nodes = (
(108,0,l),
(376,0,ls),
(452,0,o),
(505,33,o),
(531,90,cs),
(544,118,o),
(550,151,o),
(550,189,cs),
(550,238,o),
(540,279,o),
(518,310,cs),
(496,341,o),
(464,361,o),
(420,369,c),
(420,371,l),
(461,384,o),
(491,412,o),
(507,454,c),
(514,475,o),
(518,499,o),
(518,528,cs),
(518,639,o),
(459,698,o),
(360,698,cs),
(108,698,l)
);
},
{
closed = 1;
nodes = (
(130,358,l),
(376,358,ls),
(445,358,o),
(489,327,o),
(510,282,cs),
(521,259,o),
(526,235,o),
(526,210,cs),
(526,168,ls),
(526,117,o),
(505,69,o),
(461,41,cs),
(439,27,o),
(411,20,o),
(376,20,cs),
(130,20,l)
);
},
{
closed = 1;
nodes = (
(130,678,l),
(360,678,ls),
(421,678,o),
(460,651,o),
(480,612,cs),
(489,593,o),
(494,572,o),
(494,549,cs),
(494,507,ls),
(494,463,o),
(475,421,o),
(436,397,cs),
(416,384,o),
(391,378,o),
(360,378,cs),
(130,378,l)
);
}
);
width = 615;
}
);
unicode = 66;
},
{
glyphname = C;
layers = (
{
anchors = (
{
name = b.uni0327;
position = "{335, 0}";
},
{
name = t.uni0303;
position = "{355, 698}";
}
);
layerId = "8DAE0D43-6C5F-4F99-A87C-49FC71346395";
shapes = (
{
closed = 1;
nodes = (
(508,-12,o),
(590,50,o),
(647,160,c),
(485,252,l),
(469,208,o),
(438,163,o),
(372,163,cs),
(304,163,o),
(253,207,o),
(253,293,cs),
(253,410,ls),
(253,455,o),
(265,488,o),
(287,507,cs),
(310,526,o),
(337,535,o),
(372,535,cs),
(439,535,o),
(465,503,o),
(474,453,c),
(647,539,l),
(592,661,o),
(508,710,o),
(372,710,cs),
(242,710,o),
(141,652,o),
(85,544,c),
(59,489,o),
(45,423,o),
(45,343,cs),
(45,186,o),
(102,80,o),
(201,27,c),
(250,0,o),
(307,-12,o),
(372,-12,cs)
);
}
);
width = 671;
},
{
anchors = (
{
name = b.uni0327;
position = "{335, 0}";
},
{
name = t.uni0303;
position = "{355, 698}";
}
);
layerId = "9788F852-2321-4FD5-ACA0-A5D578398D57";
shapes = (
{
closed = 1;
nodes = (
(487,-12,o),
(570,50,o),
(622,155,c),
(498,227,l),
(477,170,o),
(434,123,o),
(359,123,cs),
(270,123,o),
(211,184,o),
(211,293,cs),
(211,405,ls),
(211,460,o),
(225,503,o),
(252,532,cs),
(279,561,o),
(314,575,o),
(359,575,cs),
(434,575,o),
(472,537,o),
(489,478,c),
(620,546,l),
(569,658,o),
(487,710,o),
(359,710,cs),
(234,710,o),
(139,652,o),
(88,544,cs),
(63,489,o),
(50,423,o),
(50,344,cs),
(50,187,o),
(103,81,o),
(196,28,cs),
(242,1,o),
(296,-12,o),
(359,-12,cs)
);
}
);
width = 651;
},
{
anchors = (
{
name = b.uni0327;
position = "{335, 0}";
},
{
name = t.uni0303;
position = "{355, 698}";
}
);
layerId = "5F1C4D15-0292-4B2F-99F7-EAF0A1F73F4C";
shapes = (
{
closed = 1;
nodes = (
(455,-12,o),
(540,50,o),
(584,147,c),
(517,189,l),
(489,113,o),
(428,63,o),
(339,63,cs),
(219,63,o),
(148,150,o),
(148,293,cs),
(148,397,ls),
(148,468,o),
(165,526,o),
(199,570,cs),
(232,613,o),
(279,635,o),
(339,635,cs),
(426,635,o),
(483,588,o),
(511,516,c),
(579,557,l),
(535,654,o),
(455,710,o),
(339,710,cs),
(222,710,o),
(136,652,o),
(92,544,cs),
(69,489,o),
(58,423,o),
(58,345,cs),
(58,189,o),
(104,83,o),
(188,29,cs),
(230,2,o),
(280,-12,o),
(339,-12,cs)
);
}
);
width = 621;
},
{
anchors = (
{
name = b.uni0327;
position = "{326, 0}";
},
{
name = t.uni0303;
position = "{346, 698}";
}
);
layerId = "DC266226-4982-477B-8795-7301990C7B86";
shapes = (
{
closed = 1;
nodes = (
(436,-12,o),
(514,49,o),
(550,140,c),
(531,148,l),
(498,61,o),
(428,8,o),
(329,8,cs),
(184,8,o),
(94,113,o),
(94,328,cs),
(94,370,ls),
(94,477,o),
(115,558,o),
(157,611,cs),
(199,664,o),
(256,690,o),
(329,690,cs),
(420,690,o),
(490,641,o),
(526,558,c),
(545,567,l),
(508,652,o),
(432,710,o),
(329,710,cs),
(220,710,o),
(141,657,o),
(101,550,cs),
(80,496,o),
(70,429,o),
(70,349,cs),
(70,189,o),
(112,83,o),
(189,29,cs),
(228,2,o),
(274,-12,o),
(329,-12,cs)
);
}
);
width = 610;
}
);
leftKerningGroup = C2;
rightKerningGroup = C;
unicode = 67;
},
{
glyphname = D;
layers = (
{
layerId = "8DAE0D43-6C5F-4F99-A87C-49FC71346395";
shapes = (
{
closed = 1;
nodes = (
(66,0,l),
(349,0,ls),
(478,0,o),
(576,53,o),
(630,157,cs),
(656,208,o),
(670,273,o),
(670,349,cs),
(670,503,o),
(613,606,o),
(517,658,cs),
(469,685,o),
(413,698,o),
(349,698,cs),
(66,698,l)
);
},
{
closed = 1;
nodes = (
(264,176,l),
(264,522,l),
(349,522,ls),
(397,522,o),
(432,509,o),
(450,474,c),
(457,458,o),
(461,432,o),
(461,401,cs),
(461,297,ls),
(461,237,o),
(445,202,o),
(411,187,c),
(393,180,o),
(373,176,o),
(349,176,cs)
);
}
);
width = 714;
},
{
layerId = "9788F852-2321-4FD5-ACA0-A5D578398D57";
shapes = (
{
closed = 1;
nodes = (
(77,0,l),
(340,0,ls),
(464,0,o),
(558,52,o),
(609,156,cs),
(634,207,o),
(647,272,o),
(647,349,cs),
(647,504,o),
(594,607,o),
(502,659,cs),
(456,685,o),
(402,698,o),
(340,698,cs),
(77,698,l)
);
},
{
closed = 1;
nodes = (
(229,135,l),
(229,563,l),
(340,563,ls),
(400,563,o),
(445,541,o),
(469,494,cs),
(480,471,o),
(486,440,o),
(486,403,cs),
(486,295,ls),
(486,222,o),
(462,175,o),
(418,152,cs),
(396,141,o),
(370,135,o),
(340,135,cs)
);
}
);
width = 697;
},
{
layerId = "5F1C4D15-0292-4B2F-99F7-EAF0A1F73F4C";
shapes = (
{
closed = 1;
nodes = (
(93,0,l),
(327,0,ls),
(443,0,o),
(531,51,o),
(578,155,cs),
(601,206,o),
(613,271,o),
(613,349,cs),
(613,505,o),
(565,608,o),
(479,660,cs),
(436,685,o),
(385,698,o),
(327,698,cs),
(93,698,l)
);
},
{
closed = 1;
nodes = (
(177,74,l),
(177,624,l),
(327,624,ls),
(404,624,o),
(465,589,o),
(498,524,cs),
(515,491,o),
(523,452,o),
(523,406,cs),
(523,292,ls),
(523,200,o),
(488,135,o),
(429,100,cs),
(400,83,o),
(366,74,o),
(327,74,cs)
);
}
);
width = 671;
},
{
layerId = "DC266226-4982-477B-8795-7301990C7B86";
shapes = (
{
closed = 1;
nodes = (
(108,0,l),
(312,0,ls),
(436,0,o),
(518,52,o),
(558,156,cs),
(578,208,o),
(588,272,o),
(588,349,cs),
(588,504,o),
(549,607,o),
(467,659,cs),
(426,685,o),
(374,698,o),
(312,698,cs),
(108,698,l)
);
},
{
closed = 1;
nodes = (
(130,20,l),
(130,678,l),
(313,678,ls),
(429,678,o),
(502,626,o),
(538,537,cs),
(555,492,o),
(564,440,o),
(564,379,cs),
(564,319,ls),
(564,199,o),
(530,106,o),
(456,57,cs),
(419,32,o),
(371,20,o),
(313,20,cs)
);
}
);
width = 658;
}
);
rightKerningGroup = D;
unicode = 68;
},
{
glyphname = E;
layers = (
{
anchors = (
{
name = b.uni0327;
position = "{315, 0}";
},
{
name = b.uni0328;
position = "{552, 0}";
},
{
name = t.uni0303;
position = "{315, 698}";
}
);
layerId = "8DAE0D43-6C5F-4F99-A87C-49FC71346395";
shapes = (
{
closed = 1;
nodes = (
(574,0,l),
(574,176,l),
(264,176,l),
(264,266,l),
(511,266,l),
(511,440,l),
(264,440,l),
(264,522,l),
(574,522,l),
(574,698,l),
(66,698,l),
(66,0,l)
);
}
);
width = 623;
},
{
anchors = (
{
name = b.uni0327;
position = "{315, 0}";
},
{
name = b.uni0328;
position = "{552, 0}";
},
{
name = t.uni0303;
position = "{315, 698}";
}
);
layerId = "9788F852-2321-4FD5-ACA0-A5D578398D57";
shapes = (
{
closed = 1;
nodes = (
(552,0,l),
(552,135,l),
(229,135,l),
(229,286,l),
(506,286,l),
(506,420,l),
(229,420,l),
(229,563,l),
(552,563,l),
(552,698,l),
(77,698,l),
(77,0,l)
);
}
);
width = 607;
},
{
anchors = (
{
name = b.uni0327;
position = "{315, 0}";
},
{
name = b.uni0328;
position = "{552, 0}";
},
{
name = t.uni0303;
position = "{315, 698}";
}
);
layerId = "5F1C4D15-0292-4B2F-99F7-EAF0A1F73F4C";
shapes = (
{
closed = 1;
nodes = (
(519,0,l),
(519,74,l),
(177,74,l),
(177,316,l),
(499,316,l),
(499,390,l),
(177,390,l),
(177,624,l),
(519,624,l),
(519,698,l),
(93,698,l),
(93,0,l)
);
}
);
width = 583;
},
{
anchors = (
{
name = b.uni0327;
position = "{310, 0}";
},
{
name = b.uni0328;
position = "{522, 0}";
},
{
name = t.uni0303;
position = "{310, 698}";
}
);
layerId = "DC266226-4982-477B-8795-7301990C7B86";
shapes = (
{
closed = 1;
nodes = (
(489,0,l),
(489,20,l),
(130,20,l),
(130,344,l),
(477,344,l),
(477,364,l),
(130,364,l),
(130,678,l),
(489,678,l),
(489,698,l),
(108,698,l),
(108,0,l)
);
}
);
width = 561;
}
);
rightKerningGroup = E;
unicode = 69;
},
{
glyphname = F;
layers = (
{
layerId = "8DAE0D43-6C5F-4F99-A87C-49FC71346395";
shapes = (
{
closed = 1;
nodes = (
(264,0,l),
(264,266,l),
(503,266,l),
(503,440,l),
(264,440,l),
(264,522,l),
(561,522,l),
(561,698,l),
(66,698,l),
(66,0,l)
);
}
);
width = 602;
},
{
layerId = "9788F852-2321-4FD5-ACA0-A5D578398D57";
shapes = (
{
closed = 1;
nodes = (
(229,0,l),
(229,286,l),
(494,286,l),
(494,420,l),
(229,420,l),
(229,563,l),
(540,563,l),
(540,698,l),
(77,698,l),
(77,0,l)
);
}
);
width = 585;
},
{
layerId = "5F1C4D15-0292-4B2F-99F7-EAF0A1F73F4C";
shapes = (
{
closed = 1;
nodes = (
(177,0,l),
(177,316,l),
(480,316,l),
(480,390,l),
(177,390,l),
(177,624,l),
(509,624,l),
(509,698,l),
(93,698,l),
(93,0,l)
);
}
);
width = 559;
},
{
layerId = "DC266226-4982-477B-8795-7301990C7B86";
shapes = (
{
closed = 1;
nodes = (
(130,0,l),
(130,344,l),
(467,344,l),
(467,364,l),
(130,364,l),
(130,678,l),
(481,678,l),
(481,698,l),
(108,698,l),
(108,0,l)
);
}
);
width = 535;
}
);
unicode = 70;
},
{
glyphname = G;
layers = (
{
layerId = "8DAE0D43-6C5F-4F99-A87C-49FC71346395";
shapes = (
{
closed = 1;
nodes = (
(32,280,o),
(48,209,o),
(79,149,c),
(96,120,o),
(115,92,o),
(140,67,cs),
(188,17,o),
(256,-12,o),
(343,-12,cs),
(409,-12,o),
(484,8,o),
(549,50,c),
(613,90,o),
(659,152,o),
(659,239,cs),
(659,419,l),
(307,419,l),
(307,249,l),
(455,249,l),
(455,244,ls),
(455,198,o),
(430,176,o),
(400,167,c),
(386,161,o),
(371,159,o),
(356,159,cs),
(347,159,o),
(322,160,o),
(301,175,c),
(277,188,o),
(256,222,o),
(256,289,cs),
(256,410,ls),
(256,451,o),
(274,496,o),
(307,521,c),
(325,533,o),
(346,539,o),
(372,539,cs),
(410,539,o),
(437,519,o),
(454,498,cs),
(463,487,o),
(470,475,o),
(474,458,c),
(653,533,l),
(628,569,o),
(608,609,o),
(565,645,cs),
(522,682,o),
(460,710,o),
(365,710,cs),
(247,710,o),
(139,657,o),
(78,548,cs),
(47,494,o),
(32,427,o),
(32,349,cs)
);
}
);
width = 684;
},
{
layerId = "9788F852-2321-4FD5-ACA0-A5D578398D57";
shapes = (
{
closed = 1;
nodes = (
(39,266,o),
(57,192,o),
(90,133,cs),
(107,104,o),
(127,78,o),
(151,56,cs),
(199,12,o),
(263,-12,o),
(340,-12,cs),
(403,-12,o),
(475,6,o),
(536,47,cs),
(597,87,o),
(640,151,o),
(640,246,cs),
(640,395,l),
(319,395,l),
(319,262,l),
(484,262,l),
(484,241,ls),
(484,185,o),
(457,151,o),
(418,134,cs),
(399,125,o),
(377,121,o),
(353,121,cs),
(320,121,o),
(285,131,o),
(258,156,c),
(230,180,o),
(211,223,o),
(211,290,cs),
(211,409,ls),
(211,470,o),
(234,525,o),
(278,555,cs),
(300,570,o),
(327,577,o),
(360,577,cs),
(411,577,o),
(446,556,o),
(469,528,cs),
(480,514,o),
(489,498,o),
(495,479,c),
(630,541,l),
(607,582,o),
(583,621,o),
(540,654,cs),
(497,687,o),
(439,710,o),
(356,710,cs),
(236,710,o),
(136,657,o),
(81,549,cs),
(53,495,o),
(39,428,o),
(39,349,cs)
);
}
);
width = 681;
},
{
layerId = "5F1C4D15-0292-4B2F-99F7-EAF0A1F73F4C";
shapes = (
{
closed = 1;
nodes = (
(50,245,o),
(70,166,o),
(106,109,cs),
(124,80,o),
(145,57,o),
(168,40,cs),
(215,4,o),
(274,-12,o),
(335,-12,cs),
(394,-12,o),
(461,3,o),
(517,43,cs),
(573,83,o),
(612,150,o),
(612,257,cs),
(612,359,l),
(337,359,l),
(337,281,l),
(527,281,l),
(527,237,ls),
(527,166,o),
(498,113,o),
(445,85,cs),
(418,71,o),
(386,64,o),
(348,64,cs),
(280,64,o),
(229,87,o),
(194,128,cs),
(159,168,o),
(143,224,o),
(143,291,cs),
(143,408,ls),
(143,499,o),
(174,568,o),
(234,606,cs),
(263,625,o),
(299,634,o),
(342,634,cs),
(413,634,o),
(460,611,o),
(491,573,cs),
(506,554,o),
(518,533,o),
(526,510,c),
(596,553,l),
(576,601,o),
(545,639,o),
(502,667,cs),
(459,694,o),
(407,710,o),
(342,710,cs),
(219,710,o),
(131,657,o),
(85,550,cs),
(62,496,o),
(50,429,o),
(50,349,cs)
);
}
);
width = 676;
},
{
layerId = "DC266226-4982-477B-8795-7301990C7B86";
shapes = (
{
closed = 1;
nodes = (
(63,252,o),
(80,175,o),
(109,117,cs),
(124,88,o),
(142,64,o),
(164,45,cs),
(207,7,o),
(263,-12,o),
(330,-12,cs),
(405,-12,o),
(464,9,o),
(507,46,cs),
(550,83,o),
(573,138,o),
(573,202,cs),
(573,332,l),
(328,332,l),
(328,312,l),
(550,312,l),
(550,202,ls),
(550,117,o),
(507,59,o),
(440,31,c),
(407,16,o),
(370,9,o),
(330,9,cs),
(263,9,o),
(204,32,o),
(160,82,cs),
(115,132,o),
(88,212,o),
(88,327,cs),
(88,371,ls),
(88,519,o),
(131,612,o),
(204,656,cs),
(241,678,o),
(282,689,o),
(329,689,cs),
(382,689,o),
(438,674,o),
(482,637,cs),
(504,618,o),
(522,593,o),
(536,562,c),
(556,571,l),
(537,611,o),
(510,645,o),
(471,670,cs),
(432,695,o),
(385,710,o),
(329,710,cs),
(220,710,o),
(139,660,o),
(96,553,cs),
(74,499,o),
(63,431,o),
(63,349,cs)
);
}
);
width = 644;
}
);
leftKerningGroup = C2;
rightKerningGroup = G;
unicode = 71;
},
{
glyphname = H;
layers = (
{
anchors = (
{
name = b.uni0327;
position = "{362, 0}";
},
{
name = t.uni0303;
position = "{362, 698}";
}
);
layerId = "8DAE0D43-6C5F-4F99-A87C-49FC71346395";
shapes = (
{
closed = 1;
nodes = (
(472,0,l),
(669,0,l),
(669,698,l),
(472,698,l),
(472,440,l),
(264,440,l),
(264,698,l),
(66,698,l),
(66,0,l),
(264,0,l),
(264,266,l),
(472,266,l)
);
}
);
width = 735;
},
{
anchors = (
{
name = b.uni0327;
position = "{362, 0}";
},
{
name = t.uni0303;
position = "{362, 698}";
}
);
layerId = "9788F852-2321-4FD5-ACA0-A5D578398D57";
shapes = (
{
closed = 1;
nodes = (
(495,0,l),
(647,0,l),
(647,698,l),
(495,698,l),
(495,420,l),
(229,420,l),
(229,698,l),
(77,698,l),
(77,0,l),
(229,0,l),
(229,286,l),
(495,286,l)
);
}
);
width = 724;
},
{
anchors = (
{
name = b.uni0327;
position = "{362, 0}";
},
{
name = t.uni0303;
position = "{362, 698}";
}
);
layerId = "5F1C4D15-0292-4B2F-99F7-EAF0A1F73F4C";
shapes = (
{
closed = 1;
nodes = (
(530,0,l),
(614,0,l),
(614,698,l),
(530,698,l),
(530,390,l),
(177,390,l),
(177,698,l),
(93,698,l),
(93,0,l),
(177,0,l),
(177,316,l),
(530,316,l)
);
}
);
width = 707;
},
{
anchors = (
{
name = b.uni0327;
position = "{354, 0}";
},
{
name = t.uni0303;
position = "{354, 698}";
}
);
layerId = "DC266226-4982-477B-8795-7301990C7B86";
shapes = (
{
closed = 1;
nodes = (
(562,0,l),
(584,0,l),
(584,698,l),
(562,698,l),
(562,364,l),
(130,364,l),
(130,698,l),
(108,698,l),
(108,0,l),
(130,0,l),
(130,344,l),
(562,344,l)
);
}
);
width = 692;
}
);
unicode = 72;
},
{
glyphname = I;
layers = (
{
layerId = "8DAE0D43-6C5F-4F99-A87C-49FC71346395";
shapes = (
{
closed = 1;
nodes = (
(66,0,l),
(264,0,l),
(264,698,l),
(66,698,l)
);
}
);
width = 330;
},
{
layerId = "9788F852-2321-4FD5-ACA0-A5D578398D57";
shapes = (
{
closed = 1;
nodes = (
(77,0,l),
(229,0,l),
(229,698,l),
(77,698,l)
);
}
);
width = 306;
},
{
layerId = "5F1C4D15-0292-4B2F-99F7-EAF0A1F73F4C";
shapes = (
{
closed = 1;
nodes = (
(93,0,l),
(177,0,l),
(177,698,l),
(93,698,l)
);
}
);
width = 270;
},
{
layerId = "DC266226-4982-477B-8795-7301990C7B86";
shapes = (
{
closed = 1;
nodes = (
(108,0,l),
(130,0,l),
(130,698,l),
(108,698,l)
);
}
);
width = 238;
}
);
leftKerningGroup = I2;
rightKerningGroup = I;
unicode = 73;
},
{
glyphname = J;
layers = (
{
layerId = "8DAE0D43-6C5F-4F99-A87C-49FC71346395";
shapes = (
{
closed = 1;
nodes = (
(331,698,l),
(331,218,ls),
(331,177,o),
(299,161,o),
(274,161,cs),
(243,161,o),
(219,187,o),
(209,245,c),
(23,210,l),
(34,143,o),
(59,91,o),
(100,50,cs),
(140,10,o),
(200,-10,o),
(279,-10,cs),
(386,-10,o),
(461,29,o),
(500,97,cs),
(519,131,o),
(529,170,o),
(529,216,cs),
(529,698,l)
);
}
);
width = 592;
},
{
layerId = "9788F852-2321-4FD5-ACA0-A5D578398D57";
shapes = (
{
closed = 1;
nodes = (
(334,698,l),
(334,209,ls),
(334,149,o),
(298,122,o),
(254,122,cs),
(207,122,o),
(178,154,o),
(167,213,c),
(25,185,l),
(35,126,o),
(59,79,o),
(97,43,cs),
(134,7,o),
(187,-11,o),
(256,-11,cs),
(352,-11,o),
(422,26,o),
(459,90,cs),
(477,122,o),
(486,159,o),
(486,202,cs),
(486,698,l)
);
}
);
width = 559;
},
{
layerId = "5F1C4D15-0292-4B2F-99F7-EAF0A1F73F4C";
shapes = (
{
closed = 1;
nodes = (
(338,698,l),
(338,196,ls),
(338,107,o),
(296,63,o),
(224,63,cs),
(153,63,o),
(117,105,o),
(104,165,c),
(28,147,l),
(37,100,o),
(59,61,o),
(92,32,cs),
(125,3,o),
(168,-12,o),
(222,-12,cs),
(301,-12,o),
(363,21,o),
(397,79,cs),
(414,108,o),
(422,142,o),
(422,181,cs),
(422,698,l)
);
}
);
width = 510;
},
{
layerId = "DC266226-4982-477B-8795-7301990C7B86";
shapes = (
{
closed = 1;
nodes = (
(342,698,l),
(342,183,ls),
(342,71,o),
(292,8,o),
(192,8,cs),
(115,8,o),
(60,56,o),
(41,119,c),
(22,113,l),
(31,76,o),
(52,46,o),
(83,23,cs),
(114,0,o),
(151,-12,o),
(192,-12,cs),
(264,-12,o),
(316,18,o),
(344,76,c),
(357,105,o),
(364,140,o),
(364,183,cs),
(364,698,l)
);
}
);
width = 464;
}
);
leftKerningGroup = J2;
rightKerningGroup = J;
unicode = 74;
},
{
glyphname = K;
layers = (
{
anchors = (
{
name = b.uni0327;
position = "{358, 0}";
},
{
name = t.uni0303;
position = "{358, 698}";
}
);
layerId = "8DAE0D43-6C5F-4F99-A87C-49FC71346395";
shapes = (
{
closed = 1;
nodes = (
(503,0,l),
(732,0,l),
(491,419,l),
(709,698,l),
(491,698,l),
(370,536,l),
(272,392,l),
(264,392,l),
(264,536,l),
(264,698,l),
(66,698,l),
(66,0,l),
(264,0,l),
(264,168,l),
(349,278,l)
);
}
);
width = 737;
},
{
anchors = (
{
name = b.uni0327;
position = "{358, 0}";
},
{
name = t.uni0303;
position = "{358, 698}";
}
);
layerId = "9788F852-2321-4FD5-ACA0-A5D578398D57";
shapes = (
{
closed = 1;
nodes = (
(505,0,l),
(684,0,l),
(428,411,l),
(663,698,l),
(491,698,l),
(334,501,l),
(235,366,l),
(229,366,l),
(229,501,l),
(229,698,l),
(77,698,l),
(77,0,l),
(229,0,l),
(229,194,l),
(320,304,l)
);
}
);
width = 696;
},
{
anchors = (
{
name = b.uni0327;
position = "{358, 0}";
},
{
name = t.uni0303;
position = "{358, 698}";
}
);
layerId = "5F1C4D15-0292-4B2F-99F7-EAF0A1F73F4C";
shapes = (
{
closed = 1;
nodes = (
(508,0,l),
(612,0,l),
(334,399,l),
(594,698,l),
(491,698,l),
(280,448,l),
(180,327,l),
(177,327,l),
(177,448,l),
(177,698,l),
(93,698,l),
(93,0,l),
(177,0,l),
(177,233,l),
(276,343,l)
);
}
);
width = 634;
},
{
anchors = (
{
name = b.uni0327;
position = "{336, 0}";
},
{
name = t.uni0303;
position = "{350, 698}";
}
);
layerId = "DC266226-4982-477B-8795-7301990C7B86";
shapes = (
{
closed = 1;
nodes = (
(526,0,l),
(552,0,l),
(280,403,l),
(549,698,l),
(521,698,l),
(262,413,l),
(132,271,l),
(130,271,l),
(130,413,l),
(130,698,l),
(108,698,l),
(108,0,l),
(130,0,l),
(130,239,l),
(265,387,l)
);
}
);
width = 572;
}
);
rightKerningGroup = K;
unicode = 75;
},
{
glyphname = L;
layers = (
{
anchors = (
{
name = b.uni0327;
position = "{286, 0}";
},
{
name = t.uni0303;
position = "{153, 698}";
},
{
name = t.uni0315;
position = "{301, 740}";
}
);
layerId = "8DAE0D43-6C5F-4F99-A87C-49FC71346395";
shapes = (
{
closed = 1;
nodes = (
(509,0,l),
(509,176,l),
(264,176,l),
(264,698,l),
(66,698,l),
(66,0,l)
);
}
);
width = 549;
},
{
anchors = (
{
name = b.uni0327;
position = "{286, 0}";
},
{
name = t.uni0303;
position = "{153, 698}";
},
{
name = t.uni0315;
position = "{301, 740}";
}
);
layerId = "9788F852-2321-4FD5-ACA0-A5D578398D57";
shapes = (
{
closed = 1;
nodes = (
(495,0,l),
(495,135,l),
(229,135,l),
(229,698,l),
(77,698,l),
(77,0,l)
);
}
);
width = 530;
},
{
anchors = (
{
name = b.uni0327;
position = "{286, 0}";
},
{
name = t.uni0303;
position = "{153, 698}";
},
{
name = t.uni0315;
position = "{301, 740}";
}
);
layerId = "5F1C4D15-0292-4B2F-99F7-EAF0A1F73F4C";
shapes = (
{
closed = 1;
nodes = (
(474,0,l),
(474,74,l),
(177,74,l),
(177,698,l),
(93,698,l),
(93,0,l)
);
}
);
width = 501;
},
{
anchors = (
{
name = b.uni0327;
position = "{280, 0}";
},
{
name = t.uni0303;
position = "{137, 698}";
},
{
name = t.uni0315;
position = "{276, 740}";
}
);
layerId = "DC266226-4982-477B-8795-7301990C7B86";
shapes = (
{
closed = 1;
nodes = (
(455,0,l),
(455,20,l),
(130,20,l),
(130,698,l),
(108,698,l),
(108,0,l)
);
}
);
width = 475;
}
);
rightKerningGroup = L;
unicode = 76;
},
{
glyphname = M;
layers = (
{
layerId = "8DAE0D43-6C5F-4F99-A87C-49FC71346395";
shapes = (
{
closed = 1;
nodes = (
(66,0,l),
(250,0,l),
(250,269,l),
(250,383,l),
(252,383,l),
(301,278,l),
(411,70,l),
(526,279,l),
(572,371,l),
(574,371,l),
(574,269,l),
(574,0,l),
(757,0,l),
(757,698,l),
(559,698,l),
(494,566,l),
(412,404,l),
(412,404,l),
(327,566,l),
(260,698,l),
(66,698,l)
);
}
);
width = 824;
},
{
layerId = "9788F852-2321-4FD5-ACA0-A5D578398D57";
shapes = (
{
closed = 1;
nodes = (
(77,0,l),
(220,0,l),
(220,350,l),
(220,465,l),
(223,465,l),
(276,355,l),
(409,109,l),
(545,356,l),
(596,458,l),
(599,458,l),
(599,350,l),
(599,0,l),
(742,0,l),
(742,698,l),
(580,698,l),
(488,520,l),
(411,371,l),
(409,371,l),
(331,520,l),
(238,698,l),
(77,698,l)
);
}
);
width = 819;
},
{
layerId = "5F1C4D15-0292-4B2F-99F7-EAF0A1F73F4C";
shapes = (
{
closed = 1;
nodes = (
(93,0,l),
(175,0,l),
(175,471,l),
(175,588,l),
(180,588,l),
(239,471,l),
(406,167,l),
(573,471,l),
(632,588,l),
(637,588,l),
(637,471,l),
(637,0,l),
(719,0,l),
(719,698,l),
(611,698,l),
(479,451,l),
(410,322,l),
(405,322,l),
(337,451,l),
(205,698,l),
(93,698,l)
);
}
);
width = 812;
},
{
layerId = "DC266226-4982-477B-8795-7301990C7B86";
shapes = (
{
closed = 1;
nodes = (
(108,0,l),
(129,0,l),
(129,504,l),
(129,673,l),
(132,673,l),
(235,504,l),
(398,236,l),
(561,504,l),
(664,673,l),
(667,673,l),
(667,504,l),
(667,0,l),
(688,0,l),
(688,698,l),
(655,698,l),
(497,438,l),
(400,278,l),
(397,278,l),
(299,438,l),
(141,698,l),
(108,698,l)
);
}
);
width = 796;
}
);
unicode = 77;
},
{
glyphname = N;
layers = (
{
layerId = "8DAE0D43-6C5F-4F99-A87C-49FC71346395";
shapes = (
{
closed = 1;
nodes = (
(457,0,l),
(669,0,l),
(669,698,l),
(485,698,l),
(485,442,l),
(485,302,l),
(482,302,l),
(427,432,l),
(278,698,l),
(66,698,l),
(66,0,l),
(250,0,l),
(250,256,l),
(250,396,l),
(253,396,l),
(309,266,l)
);
}
);
width = 735;
},
{
layerId = "9788F852-2321-4FD5-ACA0-A5D578398D57";
shapes = (
{
closed = 1;
nodes = (
(481,0,l),
(647,0,l),
(647,698,l),
(504,698,l),
(504,374,l),
(504,228,l),
(501,228,l),
(434,368,l),
(243,698,l),
(77,698,l),
(77,0,l),
(220,0,l),
(220,324,l),
(220,470,l),
(223,470,l),
(290,330,l)
);
}
);
width = 724;
},
{
layerId = "5F1C4D15-0292-4B2F-99F7-EAF0A1F73F4C";
shapes = (
{
closed = 1;
nodes = (
(517,0,l),
(614,0,l),
(614,698,l),
(532,698,l),
(532,272,l),
(532,117,l),
(529,117,l),
(445,272,l),
(190,698,l),
(93,698,l),
(93,0,l),
(175,0,l),
(175,426,l),
(175,581,l),
(178,581,l),
(262,426,l)
);
}
);
width = 707;
},
{
layerId = "DC266226-4982-477B-8795-7301990C7B86";
shapes = (
{
closed = 1;
nodes = (
(552,0,l),
(584,0,l),
(584,698,l),
(563,698,l),
(563,197,l),
(563,27,l),
(560,27,l),
(454,197,l),
(140,698,l),
(108,698,l),
(108,0,l),
(129,0,l),
(129,501,l),
(129,671,l),
(132,671,l),
(239,501,l)
);
}
);
width = 692;
}
);
unicode = 78;
},
{
glyphname = O;
layers = (
{
anchors = (
{
name = b.uni0327;
position = "{357, 0}";
},
{
name = t.uni0303;
position = "{357, 698}";
}
);
layerId = "8DAE0D43-6C5F-4F99-A87C-49FC71346395";
shapes = (
{
closed = 1;
nodes = (
(486,-12,o),
(582,42,o),
(634,150,cs),
(660,203,o),
(673,269,o),
(673,349,cs),
(673,510,o),
(619,615,o),
(524,669,cs),
(478,696,o),
(422,710,o),
(359,710,cs),
(234,710,o),
(136,656,o),
(83,549,cs),
(58,496,o),
(45,429,o),
(45,349,cs),
(45,191,o),
(99,83,o),
(195,28,cs),
(242,2,o),
(297,-12,o),
(359,-12,cs)
);
},
{
closed = 1;
nodes = (
(312,163,o),
(280,183,o),
(265,224,cs),
(257,245,o),
(253,270,o),
(253,301,cs),
(253,397,ls),
(253,461,o),
(268,498,o),
(300,520,c),
(316,529,o),
(336,535,o),
(359,535,cs),
(407,535,o),
(438,514,o),
(454,475,c),
(461,455,o),
(465,428,o),
(465,397,cs),
(465,301,ls),
(465,241,o),
(450,198,o),
(419,179,c),
(403,168,o),
(383,163,o),
(359,163,cs)
);
}
);
width = 718;
},
{
anchors = (
{
name = b.uni0327;
position = "{357, 0}";
},
{
name = t.uni0303;
position = "{357, 698}";
}
);
layerId = "9788F852-2321-4FD5-ACA0-A5D578398D57";
shapes = (
{
closed = 1;
nodes = (
(481,-12,o),
(575,43,o),
(626,151,cs),
(651,204,o),
(664,270,o),
(664,349,cs),
(664,508,o),
(611,614,o),
(519,669,cs),
(473,696,o),
(419,710,o),
(357,710,cs),
(234,710,o),
(139,655,o),
(88,548,cs),
(63,495,o),
(50,428,o),
(50,349,cs),
(50,192,o),
(103,84,o),
(196,29,cs),
(242,2,o),
(296,-12,o),
(357,-12,cs)
);
},
{
closed = 1;
nodes = (
(297,123,o),
(252,151,o),
(229,203,cs),
(217,229,o),
(211,260,o),
(211,297,cs),
(211,401,ls),
(211,476,o),
(235,527,o),
(279,555,cs),
(301,568,o),
(327,575,o),
(357,575,cs),
(418,575,o),
(462,547,o),
(486,496,c),
(497,470,o),
(503,438,o),
(503,401,cs),
(503,297,ls),
(503,224,o),
(479,171,o),
(436,144,cs),
(414,130,o),
(388,123,o),
(357,123,cs)
);
}
);
width = 714;
},
{
anchors = (
{
name = b.uni0327;
position = "{357, 0}";
},
{
name = t.uni0303;
position = "{357, 698}";
}
);
layerId = "5F1C4D15-0292-4B2F-99F7-EAF0A1F73F4C";
shapes = (
{
closed = 1;
nodes = (
(474,-12,o),
(565,44,o),
(614,152,cs),
(638,205,o),
(650,271,o),
(650,349,cs),
(650,505,o),
(599,613,o),
(511,669,c),
(466,696,o),
(414,710,o),
(354,710,cs),
(234,710,o),
(143,654,o),
(95,547,cs),
(70,493,o),
(58,427,o),
(58,349,cs),
(58,193,o),
(109,85,o),
(198,30,cs),
(242,2,o),
(294,-12,o),
(354,-12,cs)
);
},
{
closed = 1;
nodes = (
(274,63,o),
(210,103,o),
(175,171,cs),
(157,205,o),
(148,245,o),
(148,291,cs),
(148,407,ls),
(148,499,o),
(186,570,o),
(248,607,cs),
(279,626,o),
(314,635,o),
(354,635,cs),
(435,635,o),
(498,596,o),
(534,528,c),
(551,493,o),
(560,453,o),
(560,407,cs),
(560,291,ls),
(560,199,o),
(522,130,o),
(461,92,cs),
(430,73,o),
(395,63,o),
(354,63,cs)
);
}
);
width = 708;
},
{
anchors = (
{
name = b.uni0327;
position = "{343, 0}";
},
{
name = t.uni0303;
position = "{343, 698}";
}
);
layerId = "DC266226-4982-477B-8795-7301990C7B86";
shapes = (
{
closed = 1;
nodes = (
(456,-12,o),
(537,42,o),
(579,149,cs),
(600,202,o),
(610,269,o),
(610,349,cs),
(610,509,o),
(567,617,o),
(487,670,cs),
(447,697,o),
(398,710,o),
(340,710,cs),
(224,710,o),
(144,657,o),
(102,550,cs),
(81,496,o),
(70,429,o),
(70,349,cs),
(70,189,o),
(113,83,o),
(193,29,cs),
(233,2,o),
(282,-12,o),
(340,-12,cs)
);
},
{
closed = 1;
nodes = (
(239,8,o),
(163,56,o),
(124,152,cs),
(104,199,o),
(94,258,o),
(94,328,cs),
(94,370,ls),
(94,511,o),
(135,606,o),
(209,654,cs),
(246,678,o),
(289,690,o),
(340,690,cs),
(443,690,o),
(517,642,o),
(557,547,cs),
(576,500,o),
(586,441,o),
(586,370,cs),
(586,328,ls),
(586,188,o),
(545,92,o),
(472,44,cs),
(435,20,o),
(391,8,o),
(340,8,cs)
);
}
);
width = 680;
}
);
leftKerningGroup = C2;
rightKerningGroup = O;
unicode = 79;
},
{
glyphname = P;
layers = (
{
anchors = (
{
name = b.uni0327;
position = "{153, 0}";
},
{
name = t.uni0303;
position = "{324, 698}";
}
);
layerId = "8DAE0D43-6C5F-4F99-A87C-49FC71346395";
shapes = (
{
closed = 1;
nodes = (
(264,0,l),
(264,221,l),
(431,221,ls),
(520,221,o),
(587,265,o),
(626,337,cs),
(644,372,o),
(654,414,o),
(654,460,cs),
(654,551,o),
(614,628,o),
(548,667,cs),
(514,688,o),
(475,698,o),
(431,698,cs),
(66,698,l),
(66,0,l)
);
},
{
closed = 1;
nodes = (
(264,527,l),
(401,527,ls),
(423,527,o),
(437,519,o),
(446,506,cs),
(450,499,o),
(453,490,o),
(453,479,cs),
(453,440,ls),
(453,421,o),
(442,406,o),
(428,397,c),
(420,394,o),
(411,392,o),
(401,392,cs),
(264,392,l)
);
}
);
width = 689;
},
{
anchors = (
{
name = b.uni0327;
position = "{153, 0}";
},
{
name = t.uni0303;
position = "{324, 698}";
}
);
layerId = "9788F852-2321-4FD5-ACA0-A5D578398D57";
shapes = (
{
closed = 1;
nodes = (
(229,0,l),
(229,252,l),
(407,252,ls),
(494,252,o),
(558,292,o),
(593,359,cs),
(610,392,o),
(619,431,o),
(619,475,cs),
(619,563,o),
(583,633,o),
(520,670,cs),
(488,689,o),
(450,698,o),
(407,698,cs),
(77,698,l),
(77,0,l)
);
},
{
closed = 1;
nodes = (
(229,566,l),
(389,566,ls),
(420,566,o),
(441,555,o),
(453,535,cs),
(459,525,o),
(462,512,o),
(462,497,cs),
(462,453,ls),
(462,424,o),
(449,403,o),
(428,392,cs),
(417,387,o),
(404,384,o),
(389,384,cs),
(229,384,l)
);
}
);
width = 656;
},
{
anchors = (
{
name = b.uni0327;
position = "{153, 0}";
},
{
name = t.uni0303;
position = "{324, 698}";
}
);
layerId = "5F1C4D15-0292-4B2F-99F7-EAF0A1F73F4C";
shapes = (
{
closed = 1;
nodes = (
(177,0,l),
(177,298,l),
(371,298,ls),
(455,298,o),
(514,332,o),
(544,392,cs),
(559,422,o),
(566,457,o),
(566,498,cs),
(566,581,o),
(536,641,o),
(478,674,cs),
(449,690,o),
(413,698,o),
(371,698,cs),
(93,698,l),
(93,0,l)
);
},
{
closed = 1;
nodes = (
(177,624,l),
(371,624,ls),
(415,624,o),
(447,609,o),
(464,579,cs),
(472,564,o),
(476,545,o),
(476,524,cs),
(476,472,ls),
(476,429,o),
(459,399,o),
(428,384,cs),
(412,376,o),
(393,372,o),
(371,372,cs),
(177,372,l)
);
}
);
width = 606;
},
{
anchors = (
{
name = b.uni0327;
position = "{136, 0}";
},
{
name = t.uni0303;
position = "{334, 698}";
}
);
layerId = "DC266226-4982-477B-8795-7301990C7B86";
shapes = (
{
closed = 1;
nodes = (
(130,0,l),
(130,322,l),
(376,322,ls),
(452,322,o),
(505,354,o),
(531,411,cs),
(544,439,o),
(550,472,o),
(550,510,cs),
(550,586,o),
(524,644,o),
(472,675,cs),
(446,690,o),
(414,698,o),
(376,698,cs),
(108,698,l),
(108,0,l)
);
},
{
closed = 1;
nodes = (
(130,678,l),
(376,678,ls),
(445,678,o),
(489,647,o),
(510,603,cs),
(521,580,o),
(526,556,o),
(526,531,cs),
(526,489,ls),
(526,438,o),
(505,391,o),
(461,363,cs),
(439,349,o),
(411,342,o),
(376,342,cs),
(130,342,l)
);
}
);
width = 594;
}
);
unicode = 80;
},
{
glyphname = Q;
leftMetricsKey = O;
widthMetricsKey = O;
layers = (
{
anchors = (
{
name = t.ring;
position = "{354, 698}";
},
{
name = b.cedilla_2;
position = "{309, 23}";
},
{
name = b.uni0327;
position = "{357, 0}";
},
{
name = t.uni0303;
position = "{357, 698}";
}
);
layerId = "8DAE0D43-6C5F-4F99-A87C-49FC71346395";
shapes = (
{
closed = 1;
nodes = (
(684,-167,l),
(684,37,l),
(502,59,l),
(504,47,l),
(622,106,o),
(673,197,o),
(673,349,cs),
(673,557,o),
(573,710,o),
(359,710,cs),
(135,710,o),
(45,548,o),
(45,349,cs),
(45,194,o),
(105,63,o),
(258,2,cs)
);
},
{
closed = 1;
nodes = (
(273,163,o),
(253,229,o),
(253,301,cs),
(253,397,ls),
(253,474,o),
(274,535,o),
(359,535,cs),
(447,535,o),
(465,469,o),
(465,397,cs),
(465,301,ls),
(465,225,o),
(443,163,o),
(359,163,cs)
);
}
);
width = 718;
},
{
anchors = (
{
name = t.ring;
position = "{354, 698}";
},
{
name = b.cedilla_2;
position = "{326, 0}";
},
{
name = b.uni0327;
position = "{357, 0}";
},
{
name = t.uni0303;
position = "{357, 698}";
}
);
layerId = "9788F852-2321-4FD5-ACA0-A5D578398D57";
shapes = (
{
closed = 1;
nodes = (
(680,-150,l),
(680,8,l),
(482,40,l),
(483,29,l),
(616,84,o),
(664,200,o),
(664,349,cs),
(664,552,o),
(570,710,o),
(357,710,cs),
(136,710,o),
(50,543,o),
(50,349,cs),
(50,192,o),
(105,57,o),
(263,1,cs)
);
},
{
closed = 1;
nodes = (
(252,123,o),
(211,205,o),
(211,297,cs),
(211,401,ls),
(211,498,o),
(254,575,o),
(357,575,cs),
(464,575,o),
(503,494,o),
(503,401,cs),
(503,297,ls),
(503,201,o),
(459,123,o),
(357,123,cs)
);
}
);
width = 714;
},
{
anchors = (
{
name = t.ring;
position = "{354, 698}";
},
{
name = b.cedilla_2;
position = "{351, -35}";
},
{
name = b.uni0327;
position = "{357, 0}";
},
{
name = t.uni0303;
position = "{357, 698}";
}
);
layerId = "5F1C4D15-0292-4B2F-99F7-EAF0A1F73F4C";
shapes = (
{
closed = 1;
nodes = (
(674,-125,l),
(674,-36,l),
(452,11,l),
(451,2,l),
(606,51,o),
(650,205,o),
(650,349,cs),
(650,545,o),
(565,710,o),
(354,710,cs),
(138,710,o),
(58,536,o),
(58,349,cs),
(58,189,o),
(106,49,o),
(270,-1,cs)
);
},
{
closed = 1;
nodes = (
(221,63,o),
(148,169,o),
(148,291,cs),
(148,407,ls),
(148,534,o),
(224,635,o),
(354,635,cs),
(489,635,o),
(560,531,o),
(560,407,cs),
(560,291,ls),
(560,165,o),
(483,63,o),
(354,63,cs)
);
}
);
width = 708;
},
{
anchors = (
{
name = t.ring;
position = "{357, 698}";
},
{
name = b.cedilla_2;
position = "{379, -70}";
},
{
name = b.uni0327;
position = "{343, 0}";
},
{
name = t.uni0303;
position = "{343, 698}";
}
);
layerId = "DC266226-4982-477B-8795-7301990C7B86";
shapes = (
{
closed = 1;
nodes = (
(671,-100,l),
(671,-80,l),
(354,-8,l),
(350,-12,l),
(562,-6,o),
(610,181,o),
(610,349,cs),
(610,536,o),
(550,710,o),
(340,710,cs),
(125,710,o),
(70,527,o),
(70,349,cs),
(70,197,o),
(108,33,o),
(275,-5,cs)
);
},
{
closed = 1;
nodes = (
(151,8,o),
(94,170,o),
(94,328,cs),
(94,370,ls),
(94,536,o),
(156,690,o),
(340,690,cs),
(531,690,o),
(586,530,o),
(586,370,cs),
(586,328,ls),
(586,162,o),
(525,8,o),
(340,8,cs)
);
}
);
width = 680;
}
);
leftKerningGroup = C2;
rightKerningGroup = O;
unicode = 81;
},
{
glyphname = R;
layers = (
{
layerId = "8DAE0D43-6C5F-4F99-A87C-49FC71346395";
shapes = (
{
closed = 1;
nodes = (
(264,227,l),
(337,227,l),
(439,0,l),
(658,0,l),
(536,251,l),
(617,291,o),
(654,371,o),
(654,458,cs),
(654,550,o),
(616,626,o),
(549,667,c),
(517,688,o),
(477,698,o),
(433,698,cs),
(66,698,l),
(66,0,l),
(264,0,l)
);
},
{
closed = 1;
nodes = (
(264,392,l),
(264,527,l),
(401,527,ls),
(423,527,o),
(437,519,o),
(446,506,cs),
(450,499,o),
(453,490,o),
(453,479,cs),
(453,440,ls),
(453,421,o),
(442,406,o),
(428,397,c),
(420,394,o),
(411,392,o),
(401,392,cs)
);
}
);
width = 697;
},
{
layerId = "9788F852-2321-4FD5-ACA0-A5D578398D57";
shapes = (
{
closed = 1;
nodes = (
(229,256,l),
(338,256,l),
(460,0,l),
(629,0,l),
(492,274,l),
(577,306,o),
(619,382,o),
(619,475,cs),
(619,564,o),
(583,633,o),
(520,670,cs),
(489,689,o),
(451,698,o),
(408,698,cs),
(77,698,l),
(77,0,l),
(229,0,l)
);
},
{
closed = 1;
nodes = (
(229,384,l),
(229,566,l),
(389,566,ls),
(420,566,o),
(441,555,o),
(453,535,cs),
(459,525,o),
(462,512,o),
(462,497,cs),
(462,453,ls),
(462,424,o),
(449,403,o),
(428,392,cs),
(417,387,o),
(404,384,o),
(389,384,cs)
);
}
);
width = 674;
},
{
layerId = "5F1C4D15-0292-4B2F-99F7-EAF0A1F73F4C";
shapes = (
{
closed = 1;
nodes = (
(177,300,l),
(340,300,l),
(491,0,l),
(586,0,l),
(426,308,l),
(517,329,o),
(566,399,o),
(566,500,cs),
(566,585,o),
(534,644,o),
(476,675,cs),
(447,690,o),
(412,698,o),
(371,698,cs),
(93,698,l),
(93,0,l),
(177,0,l)
);
},
{
closed = 1;
nodes = (
(177,372,l),
(177,624,l),
(371,624,ls),
(415,624,o),
(447,609,o),
(464,579,cs),
(472,564,o),
(476,545,o),
(476,524,cs),
(476,472,ls),
(476,429,o),
(459,399,o),
(428,384,cs),
(412,376,o),
(393,372,o),
(371,372,cs)
);
}
);
width = 640;
},
{
layerId = "DC266226-4982-477B-8795-7301990C7B86";
shapes = (
{
closed = 1;
nodes = (
(130,322,l),
(349,322,l),
(541,0,l),
(566,0,l),
(374,322,l),
(490,322,o),
(550,397,o),
(550,510,cs),
(550,586,o),
(524,644,o),
(472,675,cs),
(446,690,o),
(414,698,o),
(376,698,cs),
(108,698,l),
(108,0,l),
(130,0,l)
);
},
{
closed = 1;
nodes = (
(130,342,l),
(130,678,l),
(376,678,ls),
(445,678,o),
(489,647,o),
(510,603,cs),
(521,580,o),
(526,556,o),
(526,531,cs),
(526,489,ls),
(526,438,o),
(505,391,o),
(461,363,cs),
(439,349,o),
(411,342,o),
(376,342,cs)
);
}
);
width = 630;
}
);
rightKerningGroup = R;
unicode = 82;
},
{
glyphname = S;
layers = (
{
anchors = (
{
name = b.uni0327;
position = "{310, 0}";
},
{
name = t.uni0303;
position = "{310, 698}";
}
);
layerId = "8DAE0D43-6C5F-4F99-A87C-49FC71346395";
shapes = (
{
closed = 1;
nodes = (
(439,-12,o),
(529,32,o),
(573,104,cs),
(596,140,o),
(606,180,o),
(606,226,cs),
(606,314,o),
(574,372,o),
(507,407,cs),
(474,424,o),
(432,436,o),
(382,441,c),
(305,451,ls),
(280,454,o),
(265,456,o),
(259,470,cs),
(256,477,o),
(254,487,o),
(254,499,cs),
(254,520,o),
(273,536,o),
(327,536,cs),
(393,536,o),
(432,513,o),
(462,483,c),
(588,623,l),
(528,678,o),
(444,710,o),
(339,710,cs),
(218,710,o),
(134,667,o),
(90,599,cs),
(68,565,o),
(56,527,o),
(56,484,cs),
(56,403,o),
(86,338,o),
(153,301,c),
(185,282,o),
(228,270,o),
(282,265,cs),
(359,259,l),
(391,259,o),
(403,248,o),
(406,235,c),
(407,227,o),
(408,221,o),
(408,214,cs),
(408,182,o),
(385,162,o),
(327,162,cs),
(268,162,o),
(206,184,o),
(161,229,c),
(35,95,l),
(67,65,o),
(106,40,o),
(150,19,c),
(195,-1,o),
(248,-12,o),
(312,-12,cs)
);
}
);
width = 653;
},
{
anchors = (
{
name = b.uni0327;
position = "{310, 0}";
},
{
name = t.uni0303;
position = "{310, 698}";
}
);
layerId = "9788F852-2321-4FD5-ACA0-A5D578398D57";
shapes = (
{
closed = 1;
nodes = (
(419,-12,o),
(502,29,o),
(544,97,cs),
(565,131,o),
(575,170,o),
(575,215,cs),
(575,295,o),
(545,350,o),
(482,385,cs),
(451,402,o),
(411,415,o),
(363,422,cs),
(294,433,ls),
(255,440,o),
(231,449,o),
(220,469,cs),
(214,479,o),
(211,492,o),
(211,508,cs),
(211,551,o),
(244,576,o),
(312,576,cs),
(384,576,o),
(429,549,o),
(462,510,c),
(563,612,l),
(506,675,o),
(426,710,o),
(321,710,cs),
(212,710,o),
(133,672,o),
(91,609,cs),
(70,577,o),
(59,540,o),
(59,498,cs),
(59,421,o),
(89,362,o),
(153,327,cs),
(184,309,o),
(224,297,o),
(273,290,cs),
(342,281,ls),
(386,276,o),
(408,261,o),
(417,241,c),
(421,230,o),
(423,219,o),
(423,206,cs),
(423,155,o),
(388,122,o),
(313,122,cs),
(245,122,o),
(185,149,o),
(138,202,c),
(38,101,l),
(68,68,o),
(105,41,o),
(148,20,cs),
(191,-1,o),
(242,-12,o),
(303,-12,cs)
);
}
);
width = 624;
},
{
anchors = (
{
name = b.uni0327;
position = "{310, 0}";
},
{
name = t.uni0303;
position = "{310, 698}";
}
);
layerId = "5F1C4D15-0292-4B2F-99F7-EAF0A1F73F4C";
shapes = (
{
closed = 1;
nodes = (
(389,-12,o),
(461,24,o),
(500,87,cs),
(519,118,o),
(529,155,o),
(529,198,cs),
(529,267,o),
(502,317,o),
(445,352,cs),
(416,369,o),
(379,383,o),
(334,393,cs),
(277,406,ls),
(218,419,o),
(180,438,o),
(161,467,cs),
(151,482,o),
(146,500,o),
(146,522,cs),
(146,597,o),
(201,636,o),
(290,636,cs),
(371,636,o),
(425,603,o),
(462,550,c),
(525,596,l),
(473,671,o),
(399,710,o),
(294,710,cs),
(203,710,o),
(131,680,o),
(92,624,c),
(73,595,o),
(63,560,o),
(63,519,cs),
(63,448,o),
(94,398,o),
(153,366,cs),
(182,350,o),
(218,337,o),
(260,327,cs),
(317,314,ls),
(378,301,o),
(416,281,o),
(433,250,cs),
(442,235,o),
(446,216,o),
(446,194,cs),
(446,114,o),
(392,62,o),
(292,62,cs),
(211,62,o),
(153,97,o),
(104,162,c),
(42,110,l),
(70,72,o),
(104,42,o),
(145,21,c),
(185,-1,o),
(233,-12,o),
(289,-12,cs)
);
}
);
width = 581;
},
{
anchors = (
{
name = b.uni0327;
position = "{297, 0}";
},
{
name = t.uni0303;
position = "{290, 698}";
}
);
layerId = "DC266226-4982-477B-8795-7301990C7B86";
shapes = (
{
closed = 1;
nodes = (
(363,-12,o),
(428,17,o),
(463,73,cs),
(480,101,o),
(489,136,o),
(489,178,cs),
(489,233,o),
(473,284,o),
(422,321,cs),
(397,340,o),
(360,353,o),
(312,362,cs),
(242,375,ls),
(185,386,o),
(133,405,o),
(103,448,cs),
(88,469,o),
(80,498,o),
(80,534,cs),
(80,639,o),
(152,690,o),
(269,690,cs),
(360,690,o),
(419,661,o),
(459,602,c),
(477,615,l),
(440,671,o),
(374,710,o),
(271,710,cs),
(186,710,o),
(120,685,o),
(85,633,cs),
(67,607,o),
(58,574,o),
(58,534,cs),
(58,479,o),
(76,430,o),
(128,394,cs),
(153,376,o),
(189,363,o),
(236,354,cs),
(306,341,ls),
(362,330,o),
(415,312,o),
(445,268,cs),
(460,246,o),
(467,215,o),
(467,176,cs),
(467,67,o),
(397,8,o),
(276,8,cs),
(169,8,o),
(109,51,o),
(60,115,c),
(42,102,l),
(67,69,o),
(98,42,o),
(135,21,c),
(171,-1,o),
(218,-12,o),
(276,-12,cs)
);
}
);
width = 547;
}
);
leftKerningGroup = S2;
rightKerningGroup = S;
unicode = 83;
},
{
glyphname = T;
layers = (
{
layerId = "8DAE0D43-6C5F-4F99-A87C-49FC71346395";
shapes = (
{
closed = 1;
nodes = (
(562,522,l),
(562,698,l),
(30,698,l),
(30,522,l),
(197,522,l),
(197,0,l),
(395,0,l),
(395,522,l)
);
}
);
width = 592;
},
{
layerId = "9788F852-2321-4FD5-ACA0-A5D578398D57";
shapes = (
{
closed = 1;
nodes = (
(557,563,l),
(557,698,l),
(27,698,l),
(27,563,l),
(216,563,l),
(216,0,l),
(368,0,l),
(368,563,l)
);
}
);
width = 584;
},
{
layerId = "5F1C4D15-0292-4B2F-99F7-EAF0A1F73F4C";
shapes = (
{
closed = 1;
nodes = (
(550,624,l),
(550,698,l),
(22,698,l),
(22,624,l),
(244,624,l),
(244,0,l),
(328,0,l),
(328,624,l)
);
}
);
width = 572;
},
{
layerId = "DC266226-4982-477B-8795-7301990C7B86";
shapes = (
{
closed = 1;
nodes = (
(543,678,l),
(543,698,l),
(17,698,l),
(17,678,l),
(269,678,l),
(269,0,l),
(291,0,l),
(291,678,l)
);
}
);
width = 560;
}
);
leftKerningGroup = T2;
rightKerningGroup = T;
unicode = 84;
},
{
glyphname = U;
layers = (
{
anchors = (
{
name = b.uni0327;
position = "{347, 0}";
},
{
name = b.uni0328;
position = "{455, 0}";
},
{
name = t.uni0303;
position = "{347, 698}";
}
);
layerId = "8DAE0D43-6C5F-4F99-A87C-49FC71346395";
shapes = (
{
closed = 1;
nodes = (
(63,698,l),
(63,286,ls),
(63,148,o),
(100,61,o),
(186,20,c),
(228,-3,o),
(284,-12,o),
(354,-12,cs),
(493,-12,o),
(575,28,o),
(613,116,cs),
(632,160,o),
(642,216,o),
(642,286,cs),
(642,698,l),
(451,698,l),
(451,273,ls),
(451,223,o),
(436,192,o),
(408,176,cs),
(393,168,o),
(375,163,o),
(352,163,cs),
(308,163,o),
(277,179,o),
(265,212,c),
(257,227,o),
(254,247,o),
(254,273,cs),
(254,698,l)
);
}
);
width = 705;
},
{
anchors = (
{
name = b.uni0327;
position = "{347, 0}";
},
{
name = b.uni0328;
position = "{455, 0}";
},
{
name = t.uni0303;
position = "{347, 698}";
}
);
layerId = "9788F852-2321-4FD5-ACA0-A5D578398D57";
shapes = (
{
closed = 1;
nodes = (
(73,698,l),
(73,286,ls),
(73,149,o),
(107,62,o),
(187,20,cs),
(227,-2,o),
(280,-12,o),
(347,-12,cs),
(480,-12,o),
(558,29,o),
(594,117,cs),
(612,161,o),
(621,217,o),
(621,286,cs),
(621,698,l),
(473,698,l),
(473,270,ls),
(473,205,o),
(456,162,o),
(420,140,cs),
(401,129,o),
(377,123,o),
(347,123,cs),
(287,123,o),
(250,145,o),
(234,189,c),
(225,210,o),
(221,237,o),
(221,270,cs),
(221,698,l)
);
}
);
width = 694;
},
{
anchors = (
{
name = b.uni0327;
position = "{347, 0}";
},
{
name = b.uni0328;
position = "{455, 0}";
},
{
name = t.uni0303;
position = "{347, 698}";
}
);
layerId = "5F1C4D15-0292-4B2F-99F7-EAF0A1F73F4C";
shapes = (
{
closed = 1;
nodes = (
(88,698,l),
(88,286,ls),
(88,151,o),
(117,63,o),
(189,20,cs),
(225,-1,o),
(274,-12,o),
(336,-12,cs),
(460,-12,o),
(533,30,o),
(566,119,cs),
(582,163,o),
(590,219,o),
(590,286,cs),
(590,698,l),
(506,698,l),
(506,266,ls),
(506,178,o),
(486,117,o),
(438,86,c),
(413,71,o),
(380,63,o),
(339,63,cs),
(256,63,o),
(209,94,o),
(188,155,cs),
(177,185,o),
(172,222,o),
(172,266,cs),
(172,698,l)
);
}
);
width = 678;
},
{
anchors = (
{
name = b.uni0327;
position = "{336, 0}";
},
{
name = b.uni0328;
position = "{443, 0}";
},
{
name = t.uni0303;
position = "{335, 698}";
}
);
layerId = "DC266226-4982-477B-8795-7301990C7B86";
shapes = (
{
closed = 1;
nodes = (
(100,698,l),
(100,270,ls),
(100,133,o),
(127,52,o),
(193,16,cs),
(226,-3,o),
(270,-12,o),
(326,-12,cs),
(438,-12,o),
(502,22,o),
(531,105,cs),
(545,146,o),
(552,201,o),
(552,270,cs),
(552,698,l),
(530,698,l),
(530,268,ls),
(530,141,o),
(508,68,o),
(449,34,cs),
(419,17,o),
(378,8,o),
(326,8,cs),
(222,8,o),
(165,40,o),
(141,116,cs),
(128,154,o),
(122,205,o),
(122,268,cs),
(122,698,l)
);
}
);
width = 652;
}
);
leftKerningGroup = U2;
rightKerningGroup = U;
unicode = 85;
},
{
glyphname = V;
layers = (
{
anchors = (
{
name = b.uni0327;
position = "{325, 0}";
},
{
name = t.uni0303;
position = "{325, 698}";
}
);
layerId = "8DAE0D43-6C5F-4F99-A87C-49FC71346395";
shapes = (
{
closed = 1;
nodes = (
(446,0,l),
(667,698,l),
(477,698,l),
(381,374,l),
(345,184,l),
(344,184,l),
(303,374,l),
(207,698,l),
(10,698,l),
(230,0,l)
);
}
);
width = 677;
},
{
anchors = (
{
name = b.uni0327;
position = "{325, 0}";
},
{
name = t.uni0303;
position = "{325, 698}";
}
);
layerId = "9788F852-2321-4FD5-ACA0-A5D578398D57";
shapes = (
{
closed = 1;
nodes = (
(409,0,l),
(636,698,l),
(487,698,l),
(383,363,l),
(330,144,l),
(327,144,l),
(272,363,l),
(168,698,l),
(14,698,l),
(239,0,l)
);
}
);
width = 650;
},
{
anchors = (
{
name = b.uni0327;
position = "{325, 0}";
},
{
name = t.uni0303;
position = "{325, 698}";
}
);
layerId = "5F1C4D15-0292-4B2F-99F7-EAF0A1F73F4C";
shapes = (
{
closed = 1;
nodes = (
(354,0,l),
(589,698,l),
(502,698,l),
(386,346,l),
(307,84,l),
(302,84,l),
(225,346,l),
(110,698,l),
(20,698,l),
(252,0,l)
);
}
);
width = 609;
},
{
anchors = (
{
name = b.uni0327;
position = "{305, 0}";
},
{
name = t.uni0303;
position = "{305, 698}";
}
);
layerId = "DC266226-4982-477B-8795-7301990C7B86";
shapes = (
{
closed = 1;
nodes = (
(300,0,l),
(540,698,l),
(517,698,l),
(361,242,l),
(287,25,l),
(284,25,l),
(210,242,l),
(54,698,l),
(30,698,l),
(270,0,l)
);
}
);
width = 570;
}
);
unicode = 86;
},
{
glyphname = W;
layers = (
{
layerId = "8DAE0D43-6C5F-4F99-A87C-49FC71346395";
shapes = (
{
closed = 1;
nodes = (
(413,0,l),
(498,398,l),
(512,482,l),
(516,482,l),
(530,398,l),
(616,0,l),
(842,0,l),
(993,698,l),
(810,698,l),
(751,364,l),
(729,214,l),
(726,214,l),
(698,364,l),
(625,698,l),
(412,698,l),
(342,364,l),
(312,214,l),
(309,214,l),
(286,364,l),
(226,698,l),
(35,698,l),
(185,0,l)
);
}
);
width = 1028;
},
{
layerId = "9788F852-2321-4FD5-ACA0-A5D578398D57";
shapes = (
{
closed = 1;
nodes = (
(361,0,l),
(449,378,l),
(484,531,l),
(487,531,l),
(521,378,l),
(609,0,l),
(782,0,l),
(944,698,l),
(800,698,l),
(733,363,l),
(696,169,l),
(693,169,l),
(650,363,l),
(572,698,l),
(406,698,l),
(329,363,l),
(285,169,l),
(282,169,l),
(245,363,l),
(179,698,l),
(29,698,l),
(187,0,l)
);
}
);
width = 973;
},
{
layerId = "5F1C4D15-0292-4B2F-99F7-EAF0A1F73F4C";
shapes = (
{
closed = 1;
nodes = (
(283,0,l),
(376,348,l),
(442,604,l),
(444,604,l),
(508,348,l),
(599,0,l),
(692,0,l),
(871,698,l),
(785,698,l),
(706,362,l),
(646,102,l),
(643,102,l),
(578,362,l),
(493,698,l),
(397,698,l),
(309,362,l),
(244,101,l),
(242,101,l),
(184,362,l),
(109,698,l),
(20,698,l),
(190,0,l)
);
}
);
width = 891;
},
{
layerId = "DC266226-4982-477B-8795-7301990C7B86";
shapes = (
{
closed = 1;
nodes = (
(246,0,l),
(374,457,l),
(434,674,l),
(437,674,l),
(498,457,l),
(626,0,l),
(656,0,l),
(842,698,l),
(819,698,l),
(700,248,l),
(642,31,l),
(639,31,l),
(578,248,l),
(452,698,l),
(420,698,l),
(294,248,l),
(233,31,l),
(230,31,l),
(173,248,l),
(54,698,l),
(30,698,l),
(216,0,l)
);
}
);
width = 872;
}
);
leftKerningGroup = W2;
rightKerningGroup = W;
unicode = 87;
},
{
glyphname = X;
layers = (
{
layerId = "8DAE0D43-6C5F-4F99-A87C-49FC71346395";
shapes = (
{
closed = 1;
nodes = (
(11,0,l),
(220,0,l),
(343,233,l),
(347,233,l),
(476,0,l),
(702,0,l),
(477,358,l),
(686,698,l),
(477,698,l),
(366,490,l),
(363,490,l),
(253,698,l),
(25,698,l),
(232,365,l)
);
}
);
width = 713;
},
{
layerId = "9788F852-2321-4FD5-ACA0-A5D578398D57";
shapes = (
{
closed = 1;
nodes = (
(16,0,l),
(180,0,l),
(327,257,l),
(330,257,l),
(481,0,l),
(657,0,l),
(430,358,l),
(645,698,l),
(481,698,l),
(343,462,l),
(340,462,l),
(204,698,l),
(27,698,l),
(240,361,l)
);
}
);
width = 673;
},
{
layerId = "5F1C4D15-0292-4B2F-99F7-EAF0A1F73F4C";
shapes = (
{
closed = 1;
nodes = (
(24,0,l),
(120,0,l),
(303,293,l),
(305,293,l),
(488,0,l),
(589,0,l),
(359,358,l),
(583,698,l),
(487,698,l),
(308,420,l),
(306,420,l),
(131,698,l),
(30,698,l),
(252,355,l)
);
}
);
width = 613;
},
{
layerId = "DC266226-4982-477B-8795-7301990C7B86";
shapes = (
{
closed = 1;
nodes = (
(28,0,l),
(54,0,l),
(279,335,l),
(281,335,l),
(504,0,l),
(530,0,l),
(293,357,l),
(521,698,l),
(495,698,l),
(280,376,l),
(278,376,l),
(63,698,l),
(37,698,l),
(266,354,l)
);
}
);
width = 558;
}
);
unicode = 88;
},
{
glyphname = Y;
layers = (
{
layerId = "8DAE0D43-6C5F-4F99-A87C-49FC71346395";
shapes = (
{
closed = 1;
nodes = (
(444,0,l),
(444,271,l),
(680,698,l),
(469,698,l),
(353,459,l),
(352,459,l),
(226,698,l),
(6,698,l),
(245,271,l),
(245,0,l)
);
}
);
width = 686;
},
{
layerId = "9788F852-2321-4FD5-ACA0-A5D578398D57";
shapes = (
{
closed = 1;
nodes = (
(401,0,l),
(401,274,l),
(640,698,l),
(475,698,l),
(331,420,l),
(329,420,l),
(179,698,l),
(9,698,l),
(248,273,l),
(248,0,l)
);
}
);
width = 649;
},
{
layerId = "5F1C4D15-0292-4B2F-99F7-EAF0A1F73F4C";
shapes = (
{
closed = 1;
nodes = (
(337,0,l),
(337,279,l),
(580,698,l),
(484,698,l),
(298,362,l),
(295,362,l),
(109,698,l),
(13,698,l),
(253,276,l),
(253,0,l)
);
}
);
width = 593;
},
{
layerId = "DC266226-4982-477B-8795-7301990C7B86";
shapes = (
{
closed = 1;
nodes = (
(284,0,l),
(284,294,l),
(525,698,l),
(501,698,l),
(275,320,l),
(272,320,l),
(46,698,l),
(21,698,l),
(262,294,l),
(262,0,l)
);
}
);
width = 546;
}
);
leftKerningGroup = Y2;
rightKerningGroup = Y;
unicode = 89;
},
{
glyphname = Z;
layers = (
{
layerId = "8DAE0D43-6C5F-4F99-A87C-49FC71346395";
shapes = (
{
closed = 1;
nodes = (
(584,174,l),
(273,174,l),
(580,524,l),
(580,698,l),
(55,698,l),
(55,524,l),
(347,524,l),
(41,174,l),
(41,0,l),
(584,0,l)
);
}
);
width = 625;
},
{
layerId = "9788F852-2321-4FD5-ACA0-A5D578398D57";
shapes = (
{
closed = 1;
nodes = (
(568,134,l),
(214,134,l),
(560,563,l),
(560,698,l),
(56,698,l),
(56,564,l),
(384,564,l),
(39,135,l),
(39,0,l),
(568,0,l)
);
}
);
width = 607;
},
{
layerId = "5F1C4D15-0292-4B2F-99F7-EAF0A1F73F4C";
shapes = (
{
closed = 1;
nodes = (
(544,74,l),
(126,74,l),
(530,622,l),
(530,698,l),
(57,698,l),
(57,624,l),
(439,624,l),
(36,76,l),
(36,0,l),
(544,0,l)
);
}
);
width = 580;
},
{
layerId = "DC266226-4982-477B-8795-7301990C7B86";
shapes = (
{
closed = 1;
nodes = (
(527,20,l),
(63,20,l),
(506,676,l),
(506,698,l),
(62,698,l),
(62,678,l),
(482,678,l),
(39,22,l),
(39,0,l),
(527,0,l)
);
}
);
width = 555;
}
);
leftKerningGroup = Z2;
rightKerningGroup = Z;
unicode = 90;
},
{
glyphname = zero;
layers = (
{
layerId = "8DAE0D43-6C5F-4F99-A87C-49FC71346395";
shapes = (
{
closed = 1;
nodes = (
(430,-12,o),
(514,47,o),
(557,155,cs),
(577,208,o),
(588,273,o),
(588,349,cs),
(588,501,o),
(546,611,o),
(462,668,c),
(419,696,o),
(364,710,o),
(300,710,cs),
(172,710,o),
(86,652,o),
(43,544,c),
(23,490,o),
(12,425,o),
(12,349,cs),
(12,197,o),
(54,88,o),
(139,31,cs),
(182,2,o),
(235,-12,o),
(300,-12,cs)
);
},
{
closed = 1;
nodes = (
(260,151,o),
(239,170,o),
(231,206,cs),
(226,225,o),
(225,249,o),
(225,277,cs),
(225,421,ls),
(225,479,o),
(231,515,o),
(253,533,cs),
(263,542,o),
(279,547,o),
(300,547,cs),
(340,547,o),
(361,530,o),
(369,493,c),
(374,474,o),
(375,449,o),
(375,421,cs),
(375,277,ls),
(375,218,o),
(369,183,o),
(346,164,cs),
(336,156,o),
(320,151,o),
(300,151,cs)
);
}
);
width = 600;
},
{
layerId = "9788F852-2321-4FD5-ACA0-A5D578398D57";
shapes = (
{
closed = 1;
nodes = (
(423,-12,o),
(501,47,o),
(540,155,cs),
(559,208,o),
(569,273,o),
(569,349,cs),
(569,501,o),
(531,611,o),
(452,668,cs),
(412,696,o),
(361,710,o),
(300,710,cs),
(179,710,o),
(99,652,o),
(60,544,cs),
(41,490,o),
(31,425,o),
(31,349,cs),
(31,197,o),
(69,88,o),
(149,31,cs),
(189,2,o),
(239,-12,o),
(300,-12,cs)
);
},
{
closed = 1;
nodes = (
(247,115,o),
(217,143,o),
(204,193,cs),
(197,218,o),
(194,248,o),
(194,283,cs),
(194,415,ls),
(194,486,o),
(206,536,o),
(237,563,cs),
(252,576,o),
(273,583,o),
(300,583,cs),
(353,583,o),
(383,556,o),
(396,506,cs),
(403,481,o),
(406,450,o),
(406,415,cs),
(406,283,ls),
(406,212,o),
(394,162,o),
(363,135,cs),
(348,122,o),
(327,115,o),
(300,115,cs)
);
}
);
width = 600;
},
{
layerId = "5F1C4D15-0292-4B2F-99F7-EAF0A1F73F4C";
shapes = (
{
closed = 1;
nodes = (
(412,-12,o),
(482,47,o),
(515,155,cs),
(532,208,o),
(540,273,o),
(540,349,cs),
(540,501,o),
(508,611,o),
(437,668,cs),
(402,696,o),
(356,710,o),
(300,710,cs),
(189,710,o),
(118,652,o),
(85,544,cs),
(68,490,o),
(60,425,o),
(60,349,cs),
(60,197,o),
(92,88,o),
(164,31,cs),
(199,2,o),
(245,-12,o),
(300,-12,cs)
);
},
{
closed = 1;
nodes = (
(228,61,o),
(184,103,o),
(164,173,c),
(153,208,o),
(148,247,o),
(148,292,cs),
(148,406,ls),
(148,497,o),
(168,568,o),
(213,608,cs),
(235,627,o),
(264,637,o),
(300,637,cs),
(373,637,o),
(416,595,o),
(437,526,cs),
(447,491,o),
(452,451,o),
(452,406,cs),
(452,292,ls),
(452,203,o),
(432,130,o),
(388,91,cs),
(366,71,o),
(337,61,o),
(300,61,cs)
);
}
);
width = 600;
},
{
layerId = "DC266226-4982-477B-8795-7301990C7B86";
shapes = (
{
closed = 1;
nodes = (
(397,-12,o),
(466,36,o),
(502,142,cs),
(520,195,o),
(529,264,o),
(529,349,cs),
(529,520,o),
(492,624,o),
(424,673,cs),
(390,698,o),
(349,710,o),
(300,710,cs),
(203,710,o),
(134,663,o),
(98,557,cs),
(80,504,o),
(71,434,o),
(71,349,cs),
(71,178,o),
(108,74,o),
(176,25,cs),
(210,0,o),
(251,-12,o),
(300,-12,cs)
);
},
{
closed = 1;
nodes = (
(212,8,o),
(150,54,o),
(119,146,cs),
(103,192,o),
(95,249,o),
(95,317,cs),
(95,381,ls),
(95,518,o),
(127,610,o),
(188,656,cs),
(219,679,o),
(256,690,o),
(300,690,cs),
(389,690,o),
(450,644,o),
(482,553,c),
(497,507,o),
(505,450,o),
(505,381,cs),
(505,317,ls),
(505,181,o),
(473,89,o),
(413,43,cs),
(382,20,o),
(345,8,o),
(300,8,cs)
);
}
);
width = 600;
}
);
unicode = 48;
},
{
glyphname = zero.alt01;
layers = (
{
layerId = "8DAE0D43-6C5F-4F99-A87C-49FC71346395";
shapes = (
{
closed = 1;
nodes = (
(430,-12,o),
(514,47,o),
(557,155,cs),
(577,208,o),
(588,273,o),
(588,349,cs),
(588,501,o),
(546,611,o),
(462,668,c),
(419,696,o),
(364,710,o),
(300,710,cs),
(172,710,o),
(86,652,o),
(43,544,c),
(23,490,o),
(12,425,o),
(12,349,cs),
(12,197,o),
(54,88,o),
(139,31,cs),
(182,2,o),
(235,-12,o),
(300,-12,cs)
);
},
{
closed = 1;
nodes = (
(256,151,o),
(234,170,o),
(226,206,cs),
(221,225,o),
(220,249,o),
(220,277,cs),
(220,421,ls),
(220,479,o),
(226,515,o),
(250,533,cs),
(262,542,o),
(279,547,o),
(300,547,cs),
(343,547,o),
(366,530,o),
(374,493,c),
(379,474,o),
(380,449,o),
(380,421,cs),
(380,277,ls),
(380,218,o),
(374,183,o),
(350,164,c),
(338,156,o),
(320,151,o),
(300,151,cs)
);
},
{
closed = 1;
nodes = (
(349,282,o),
(370,308,o),
(370,341,cs),
(370,357,ls),
(370,389,o),
(349,415,o),
(303,415,cs),
(260,415,o),
(237,389,o),
(237,357,cs),
(237,341,ls),
(237,308,o),
(260,282,o),
(303,282,cs)
);
}
);
width = 600;
},
{
layerId = "9788F852-2321-4FD5-ACA0-A5D578398D57";
shapes = (
{
closed = 1;
nodes = (
(423,-12,o),
(501,47,o),
(540,155,cs),
(559,208,o),
(569,273,o),
(569,349,cs),
(569,501,o),
(531,611,o),
(452,668,cs),
(412,696,o),
(361,710,o),
(300,710,cs),
(179,710,o),
(99,652,o),
(60,544,cs),
(41,490,o),
(31,425,o),
(31,349,cs),
(31,197,o),
(69,88,o),
(149,31,cs),
(189,2,o),
(239,-12,o),
(300,-12,cs)
);
},
{
closed = 1;
nodes = (
(245,115,o),
(214,143,o),
(201,193,cs),
(194,218,o),
(191,248,o),
(191,283,cs),
(191,415,ls),
(191,486,o),
(203,536,o),
(235,563,cs),
(251,576,o),
(273,583,o),
(300,583,cs),
(355,583,o),
(386,556,o),
(399,506,cs),
(406,481,o),
(409,450,o),
(409,415,cs),
(409,283,ls),
(409,212,o),
(397,162,o),
(365,135,cs),
(349,122,o),
(327,115,o),
(300,115,cs)
);
},
{
closed = 1;
nodes = (
(345,286,o),
(364,310,o),
(364,342,cs),
(364,356,ls),
(364,388,o),
(345,412,o),
(302,412,cs),
(261,412,o),
(240,388,o),
(240,356,cs),
(240,342,ls),
(240,310,o),
(261,286,o),
(302,286,cs)
);
}
);
width = 600;
},
{
layerId = "5F1C4D15-0292-4B2F-99F7-EAF0A1F73F4C";
shapes = (
{
closed = 1;
nodes = (
(412,-12,o),
(482,47,o),
(515,155,cs),
(532,208,o),
(540,273,o),
(540,349,cs),
(540,501,o),
(508,611,o),
(437,668,cs),
(402,696,o),
(356,710,o),
(300,710,cs),
(189,710,o),
(118,652,o),
(85,544,cs),
(68,490,o),
(60,425,o),
(60,349,cs),
(60,197,o),
(92,88,o),
(164,31,cs),
(199,2,o),
(245,-12,o),
(300,-12,cs)
);
},
{
closed = 1;
nodes = (
(228,61,o),
(184,103,o),
(164,173,c),
(153,208,o),
(148,247,o),
(148,292,cs),
(148,406,ls),
(148,497,o),
(168,568,o),
(213,608,cs),
(235,627,o),
(264,637,o),
(300,637,cs),
(373,637,o),
(416,595,o),
(437,526,cs),
(447,491,o),
(452,451,o),
(452,406,cs),
(452,292,ls),
(452,203,o),
(432,130,o),
(388,91,cs),
(366,71,o),
(337,61,o),
(300,61,cs)
);
},
{
closed = 1;
nodes = (
(339,292,o),
(355,313,o),
(355,344,cs),
(355,355,ls),
(355,386,o),
(339,408,o),
(300,408,cs),
(263,408,o),
(245,386,o),
(245,355,cs),
(245,344,ls),
(245,313,o),
(263,292,o),
(300,292,cs)
);
}
);
width = 600;
},
{
layerId = "DC266226-4982-477B-8795-7301990C7B86";
shapes = (
{
closed = 1;
nodes = (
(397,-12,o),
(466,36,o),
(502,142,cs),
(520,195,o),
(529,264,o),
(529,349,cs),
(529,520,o),
(492,624,o),
(424,673,cs),
(390,698,o),
(349,710,o),
(300,710,cs),
(203,710,o),
(134,663,o),
(98,557,cs),
(80,504,o),
(71,434,o),
(71,349,cs),
(71,178,o),
(108,74,o),
(176,25,cs),
(210,0,o),
(251,-12,o),
(300,-12,cs)
);
},
{
closed = 1;
nodes = (
(212,8,o),
(150,54,o),
(119,146,cs),
(103,192,o),
(95,249,o),
(95,317,cs),
(95,381,ls),
(95,518,o),
(127,610,o),
(188,656,cs),
(219,679,o),
(256,690,o),
(300,690,cs),
(389,690,o),
(450,644,o),
(482,553,c),
(497,507,o),
(505,450,o),
(505,381,cs),
(505,317,ls),
(505,181,o),
(473,89,o),
(413,43,cs),
(382,20,o),
(345,8,o),
(300,8,cs)
);
},
{
closed = 1;
nodes = (
(319,324,o),
(325,333,o),
(325,345,cs),
(325,353,ls),
(325,365,o),
(319,374,o),
(300,374,cs),
(283,374,o),
(275,365,o),
(275,353,cs),
(275,345,ls),
(275,333,o),
(283,324,o),
(300,324,cs)
);
}
);
width = 600;
}
);
},
{
glyphname = zero.alt02;
layers = (
{
layerId = "8DAE0D43-6C5F-4F99-A87C-49FC71346395";
shapes = (
{
closed = 1;
nodes = (
(430,-12,o),
(514,47,o),
(557,155,cs),
(577,208,o),
(588,273,o),
(588,349,cs),
(588,501,o),
(546,611,o),
(462,668,c),
(419,696,o),
(364,710,o),
(300,710,cs),
(172,710,o),
(86,652,o),
(43,544,c),
(23,490,o),
(12,425,o),
(12,349,cs),
(12,197,o),
(54,88,o),
(139,31,cs),
(182,2,o),
(235,-12,o),
(300,-12,cs)
);
},
{
closed = 1;
nodes = (
(263,151,o),
(243,165,o),
(233,198,c),
(300,270,l),
(376,352,l),
(378,352,l),
(377,344,o),
(376,331,o),
(375,318,c),
(375,304,o),
(375,290,o),
(375,284,cs),
(375,277,ls),
(375,218,o),
(369,183,o),
(346,164,cs),
(336,156,o),
(320,151,o),
(300,151,cs)
);
},
{
closed = 1;
nodes = (
(334,547,o),
(352,536,o),
(363,511,c),
(300,442,l),
(225,359,l),
(223,359,l),
(223,367,o),
(224,379,o),
(224,388,c),
(225,398,o),
(225,408,o),
(225,414,cs),
(225,421,ls),
(225,479,o),
(231,515,o),
(253,533,cs),
(263,542,o),
(279,547,o),
(300,547,cs)
);
}
);
width = 600;
},
{
layerId = "9788F852-2321-4FD5-ACA0-A5D578398D57";
shapes = (
{
closed = 1;
nodes = (
(423,-12,o),
(501,47,o),
(540,155,cs),
(559,208,o),
(569,273,o),
(569,349,cs),
(569,501,o),
(531,611,o),
(452,668,cs),
(412,696,o),
(361,710,o),
(300,710,cs),
(179,710,o),
(99,652,o),
(60,544,cs),
(41,490,o),
(31,425,o),
(31,349,cs),
(31,197,o),
(69,88,o),
(149,31,cs),
(189,2,o),
(239,-12,o),
(300,-12,cs)
);
},
{
closed = 1;
nodes = (
(251,115,o),
(222,138,o),
(207,181,c),
(300,283,l),
(404,398,l),
(406,398,l),
(406,390,o),
(406,378,o),
(406,366,cs),
(406,353,o),
(406,341,o),
(406,333,cs),
(406,283,ls),
(406,212,o),
(394,162,o),
(363,135,cs),
(348,122,o),
(327,115,o),
(300,115,cs)
);
},
{
closed = 1;
nodes = (
(347,583,o),
(375,562,o),
(390,523,c),
(300,423,l),
(196,308,l),
(194,308,l),
(194,316,o),
(194,327,o),
(194,337,cs),
(194,347,o),
(194,357,o),
(194,365,cs),
(194,415,ls),
(194,486,o),
(206,536,o),
(237,563,cs),
(252,576,o),
(273,583,o),
(300,583,cs)
);
}
);
width = 600;
},
{
layerId = "5F1C4D15-0292-4B2F-99F7-EAF0A1F73F4C";
shapes = (
{
closed = 1;
nodes = (
(412,-12,o),
(482,47,o),
(515,155,cs),
(532,208,o),
(540,273,o),
(540,349,cs),
(540,501,o),
(508,611,o),
(437,668,cs),
(402,696,o),
(356,710,o),
(300,710,cs),
(189,710,o),
(118,652,o),
(85,544,cs),
(68,490,o),
(60,425,o),
(60,349,cs),
(60,197,o),
(92,88,o),
(164,31,cs),
(199,2,o),
(245,-12,o),
(300,-12,cs)
);
},
{
closed = 1;
nodes = (
(233,61,o),
(191,97,o),
(168,156,c),
(300,303,l),
(446,467,l),
(448,467,l),
(449,459,o),
(451,449,o),
(452,438,c),
(452,427,o),
(452,417,o),
(452,406,cs),
(452,292,ls),
(452,203,o),
(432,130,o),
(388,91,cs),
(366,71,o),
(337,61,o),
(300,61,cs)
);
},
{
closed = 1;
nodes = (
(367,637,o),
(410,601,o),
(431,541,c),
(300,395,l),
(153,231,l),
(151,231,l),
(150,239,o),
(149,249,o),
(149,260,c),
(148,271,o),
(148,281,o),
(148,292,cs),
(148,406,ls),
(148,497,o),
(168,568,o),
(213,608,cs),
(235,627,o),
(264,637,o),
(300,637,cs)
);
}
);
width = 600;
},
{
layerId = "DC266226-4982-477B-8795-7301990C7B86";
shapes = (
{
closed = 1;
nodes = (
(397,-12,o),
(466,36,o),
(502,142,cs),
(520,195,o),
(529,264,o),
(529,349,cs),
(529,520,o),
(492,624,o),
(424,673,cs),
(390,698,o),
(349,710,o),
(300,710,cs),
(203,710,o),
(134,663,o),
(98,557,cs),
(80,504,o),
(71,434,o),
(71,349,cs),
(71,178,o),
(108,74,o),
(176,25,cs),
(210,0,o),
(251,-12,o),
(300,-12,cs)
);
},
{
closed = 1;
nodes = (
(213,8,o),
(153,52,o),
(121,139,c),
(300,335,l),
(484,536,l),
(486,536,l),
(493,516,o),
(497,493,o),
(501,467,cs),
(504,441,o),
(505,412,o),
(505,381,cs),
(505,317,ls),
(505,181,o),
(473,89,o),
(413,43,cs),
(382,20,o),
(345,8,o),
(300,8,cs)
);
},
{
closed = 1;
nodes = (
(387,690,o),
(447,646,o),
(479,559,c),
(300,363,l),
(116,161,l),
(114,161,l),
(107,181,o),
(103,206,o),
(100,232,cs),
(96,258,o),
(95,286,o),
(95,317,cs),
(95,381,ls),
(95,518,o),
(127,610,o),
(188,656,cs),
(219,679,o),
(256,690,o),
(300,690,cs)
);
}
);
width = 600;
}
);
},
{
glyphname = one;
layers = (
{
hints = (
{
horizontal = 1;
place = (0,152);
type = Stem;
},
{
horizontal = 1;
place = (698,-20);
target = down;
type = TopGhost;
},
{
place = (235,192);
type = Stem;
}
);
layerId = "8DAE0D43-6C5F-4F99-A87C-49FC71346395";
shapes = (
{
closed = 1;
nodes = (
(564,0,l),
(564,152,l),
(427,152,l),
(427,698,l),
(227,698,l),
(89,625,l),
(89,445,l),
(235,520,l),
(235,152,l),
(75,152,l),
(75,0,l)
);
}
);
width = 600;
},
{
hints = (
{
horizontal = 1;
place = (0,121);
type = Stem;
},
{
horizontal = 1;
place = (698,-20);
target = down;
type = TopGhost;
},
{
place = (254,149);
type = Stem;
}
);
layerId = "9788F852-2321-4FD5-ACA0-A5D578398D57";
shapes = (
{
closed = 1;
nodes = (
(557,0,l),
(557,121,l),
(403,121,l),
(403,698,l),
(246,698,l),
(90,612,l),
(90,471,l),
(254,561,l),
(254,121,l),
(80,121,l),
(80,0,l)
);
}
);
width = 600;
},
{
hints = (
{
horizontal = 1;
place = (0,74);
type = Stem;
},
{
horizontal = 1;
place = (698,-20);
target = down;
type = TopGhost;
},
{
place = (283,84);
type = Stem;
}
);
layerId = "5F1C4D15-0292-4B2F-99F7-EAF0A1F73F4C";
shapes = (
{
closed = 1;
nodes = (
(547,0,l),
(547,74,l),
(367,74,l),
(367,698,l),
(275,698,l),
(92,593,l),
(92,510,l),
(283,622,l),
(283,74,l),
(88,74,l),
(88,0,l)
);
}
);
width = 600;
},
{
hints = (
{
horizontal = 1;
place = (0,20);
type = Stem;
},
{
horizontal = 1;
place = (698,-20);
target = down;
type = TopGhost;
},
{
place = (312,22);
type = Stem;
}
);
layerId = "DC266226-4982-477B-8795-7301990C7B86";
shapes = (
{
closed = 1;
nodes = (
(545,0,l),
(545,20,l),
(334,20,l),
(334,698,l),
(310,698,l),
(93,572,l),
(93,548,l),
(312,675,l),
(312,20,l),
(93,20,l),
(93,0,l)
);
}
);
width = 600;
}
);
unicode = 49;
},
{
glyphname = two;
layers = (
{
layerId = "8DAE0D43-6C5F-4F99-A87C-49FC71346395";
shapes = (
{
closed = 1;
nodes = (
(563,161,l),
(258,161,l),
(349,218,l),
(421,271,o),
(489,321,o),
(528,385,cs),
(548,416,o),
(557,453,o),
(557,495,cs),
(557,577,o),
(516,644,o),
(441,682,cs),
(404,701,o),
(358,710,o),
(303,710,cs),
(202,710,o),
(127,673,o),
(78,618,cs),
(54,590,o),
(36,560,o),
(24,523,c),
(192,459,l),
(205,502,o),
(231,543,o),
(282,543,cs),
(292,543,o),
(305,540,o),
(323,534,cs),
(340,528,o),
(350,516,o),
(350,497,cs),
(350,481,ls),
(350,455,o),
(344,433,o),
(333,417,c),
(323,400,o),
(294,373,o),
(251,338,cs),
(45,171,l),
(45,0,l),
(563,0,l)
);
}
);
width = 600;
},
{
layerId = "9788F852-2321-4FD5-ACA0-A5D578398D57";
shapes = (
{
closed = 1;
nodes = (
(551,126,l),
(221,126,l),
(351,228,ls),
(418,281,o),
(478,332,o),
(512,394,cs),
(529,425,o),
(537,460,o),
(537,500,cs),
(537,581,o),
(499,646,o),
(428,683,cs),
(393,701,o),
(350,710,o),
(299,710,cs),
(203,710,o),
(134,674,o),
(91,621,cs),
(69,594,o),
(53,565,o),
(42,532,c),
(173,482,l),
(188,535,o),
(220,580,o),
(285,580,cs),
(308,580,o),
(329,573,o),
(348,560,cs),
(367,547,o),
(377,527,o),
(377,500,cs),
(377,486,ls),
(377,457,o),
(369,430,o),
(354,407,cs),
(339,383,o),
(311,354,o),
(272,321,cs),
(57,137,l),
(57,0,l),
(551,0,l)
);
}
);
width = 600;
},
{
layerId = "5F1C4D15-0292-4B2F-99F7-EAF0A1F73F4C";
shapes = (
{
closed = 1;
nodes = (
(533,74,l),
(166,74,l),
(354,243,ls),
(414,296,o),
(462,348,o),
(488,408,cs),
(501,438,o),
(507,471,o),
(507,507,cs),
(507,587,o),
(473,649,o),
(409,684,cs),
(377,701,o),
(338,710,o),
(293,710,cs),
(204,710,o),
(145,675,o),
(110,625,cs),
(92,600,o),
(78,573,o),
(69,546,c),
(144,517,l),
(163,584,o),
(204,635,o),
(289,635,cs),
(332,635,o),
(365,623,o),
(386,599,cs),
(407,575,o),
(418,544,o),
(418,505,cs),
(418,493,ls),
(418,460,o),
(407,426,o),
(385,392,cs),
(363,358,o),
(336,326,o),
(303,296,cs),
(75,86,l),
(75,0,l),
(533,0,l)
);
}
);
width = 600;
},
{
layerId = "DC266226-4982-477B-8795-7301990C7B86";
shapes = (
{
closed = 1;
nodes = (
(521,20,l),
(112,20,l),
(370,279,ls),
(421,330,o),
(455,379,o),
(473,432,cs),
(482,459,o),
(486,487,o),
(486,516,cs),
(486,596,o),
(456,655,o),
(400,687,c),
(371,702,o),
(336,710,o),
(294,710,cs),
(218,710,o),
(162,682,o),
(127,636,cs),
(109,613,o),
(96,586,o),
(87,555,c),
(107,551,l),
(134,636,o),
(190,690,o),
(294,690,cs),
(349,690,o),
(391,675,o),
(420,645,cs),
(448,615,o),
(462,577,o),
(462,532,cs),
(462,502,ls),
(462,465,o),
(453,430,o),
(434,396,cs),
(415,361,o),
(389,327,o),
(356,294,cs),
(87,22,l),
(87,0,l),
(521,0,l)
);
}
);
width = 600;
}
);
unicode = 50;
},
{
glyphname = three;
layers = (
{
layerId = "8DAE0D43-6C5F-4F99-A87C-49FC71346395";
shapes = (
{
closed = 1;
nodes = (
(205,435,l),
(205,276,l),
(255,276,ls),
(316,276,o),
(359,258,o),
(359,218,cs),
(359,214,ls),
(359,193,o),
(352,175,o),
(337,162,cs),
(322,149,o),
(303,141,o),
(279,141,cs),
(210,141,o),
(169,185,o),
(142,243,c),
(-1,132,l),
(31,80,o),
(76,32,o),
(146,8,c),
(182,-6,o),
(226,-12,o),
(278,-12,cs),
(390,-12,o),
(478,23,o),
(526,86,cs),
(550,118,o),
(562,154,o),
(562,196,cs),
(562,255,o),
(537,302,o),
(495,331,cs),
(474,345,o),
(448,354,o),
(418,359,c),
(418,366,l),
(453,372,o),
(484,386,o),
(511,413,cs),
(537,440,o),
(550,474,o),
(550,519,cs),
(550,593,o),
(508,652,o),
(427,685,cs),
(387,701,o),
(337,710,o),
(280,710,cs),
(197,710,o),
(136,692,o),
(87,657,cs),
(62,640,o),
(39,617,o),
(17,591,c),
(132,476,l),
(171,529,o),
(228,557,o),
(273,557,cs),
(297,557,o),
(314,549,o),
(327,536,cs),
(340,524,o),
(346,507,o),
(346,490,cs),
(346,483,ls),
(346,470,o),
(341,459,o),
(328,450,c),
(316,440,o),
(293,435,o),
(263,435,cs)
);
}
);
width = 600;
},
{
layerId = "9788F852-2321-4FD5-ACA0-A5D578398D57";
shapes = (
{
closed = 1;
nodes = (
(197,422,l),
(197,297,l),
(260,297,ls),
(336,297,o),
(382,268,o),
(382,211,cs),
(382,205,ls),
(382,176,o),
(373,153,o),
(354,136,cs),
(335,119,o),
(308,110,o),
(274,110,cs),
(199,110,o),
(158,151,o),
(127,208,c),
(16,122,l),
(47,75,o),
(89,31,o),
(154,7,cs),
(187,-6,o),
(227,-12,o),
(274,-12,cs),
(379,-12,o),
(461,24,o),
(506,86,cs),
(528,117,o),
(539,153,o),
(539,194,cs),
(539,258,o),
(512,305,o),
(469,334,cs),
(447,348,o),
(422,357,o),
(394,362,c),
(394,368,l),
(430,375,o),
(461,391,o),
(488,418,cs),
(514,445,o),
(527,480,o),
(527,525,cs),
(527,600,o),
(485,656,o),
(411,687,cs),
(374,702,o),
(330,710,o),
(280,710,cs),
(200,710,o),
(143,689,o),
(99,654,cs),
(77,637,o),
(57,616,o),
(39,593,c),
(133,505,l),
(168,558,o),
(219,588,o),
(275,588,cs),
(304,588,o),
(327,580,o),
(344,565,cs),
(361,550,o),
(369,529,o),
(369,504,cs),
(369,497,ls),
(369,476,o),
(361,458,o),
(344,444,cs),
(327,429,o),
(299,422,o),
(262,422,cs)
);
}
);
width = 600;
},
{
layerId = "5F1C4D15-0292-4B2F-99F7-EAF0A1F73F4C";
shapes = (
{
closed = 1;
nodes = (
(185,402,l),
(185,329,l),
(267,329,ls),
(366,329,o),
(417,283,o),
(417,200,cs),
(417,192,ls),
(417,151,o),
(404,120,o),
(379,97,cs),
(354,74,o),
(316,63,o),
(267,63,cs),
(182,63,o),
(141,100,o),
(105,155,c),
(42,107,l),
(71,67,o),
(109,29,o),
(166,6,cs),
(194,-6,o),
(228,-12,o),
(268,-12,cs),
(363,-12,o),
(436,25,o),
(476,86,cs),
(495,116,o),
(505,151,o),
(505,191,cs),
(505,262,o),
(474,310,o),
(430,339,c),
(407,353,o),
(383,362,o),
(358,367,c),
(358,371,l),
(395,380,o),
(427,399,o),
(453,426,cs),
(479,453,o),
(492,489,o),
(492,534,cs),
(492,610,o),
(451,662,o),
(387,690,c),
(355,703,o),
(319,710,o),
(280,710,cs),
(205,710,o),
(153,685,o),
(117,650,cs),
(99,633,o),
(84,615,o),
(72,596,c),
(134,548,l),
(163,601,o),
(206,635,o),
(278,635,cs),
(315,635,o),
(346,626,o),
(369,608,cs),
(392,589,o),
(403,562,o),
(403,525,cs),
(403,518,ls),
(403,485,o),
(391,457,o),
(368,435,cs),
(344,413,o),
(308,402,o),
(261,402,cs)
);
}
);
width = 600;
},
{
layerId = "DC266226-4982-477B-8795-7301990C7B86";
shapes = (
{
closed = 1;
nodes = (
(186,376,l),
(186,356,l),
(282,356,ls),
(395,356,o),
(466,293,o),
(466,198,cs),
(466,170,ls),
(466,121,o),
(449,82,o),
(415,53,cs),
(381,23,o),
(337,8,o),
(283,8,cs),
(194,8,o),
(131,38,o),
(88,106,c),
(70,95,l),
(101,47,o),
(142,15,o),
(195,-1,c),
(222,-8,o),
(251,-12,o),
(283,-12,cs),
(368,-12,o),
(431,21,o),
(465,81,cs),
(482,111,o),
(490,146,o),
(490,187,cs),
(490,256,o),
(464,307,o),
(417,337,cs),
(394,352,o),
(366,361,o),
(335,365,c),
(335,368,l),
(376,376,o),
(410,394,o),
(436,421,cs),
(462,448,o),
(475,487,o),
(475,536,cs),
(475,607,o),
(443,660,o),
(387,689,c),
(358,703,o),
(325,710,o),
(287,710,cs),
(220,710,o),
(170,690,o),
(135,657,cs),
(118,640,o),
(104,621,o),
(95,599,c),
(113,591,l),
(144,651,o),
(194,690,o),
(287,690,cs),
(336,690,o),
(375,677,o),
(406,651,c),
(436,624,o),
(451,589,o),
(451,546,cs),
(451,522,ls),
(451,479,o),
(435,444,o),
(404,417,cs),
(372,390,o),
(331,376,o),
(280,376,cs)
);
}
);
width = 600;
}
);
unicode = 51;
},
{
glyphname = four;
layers = (
{
layerId = "8DAE0D43-6C5F-4F99-A87C-49FC71346395";
shapes = (
{
closed = 1;
nodes = (
(497,0,l),
(497,132,l),
(576,132,l),
(576,279,l),
(497,279,l),
(497,698,l),
(283,698,l),
(25,296,l),
(25,132,l),
(312,132,l),
(312,0,l)
);
},
{
closed = 1;
nodes = (
(298,483,l),
(312,483,l),
(312,279,l),
(172,279,l)
);
}
);
width = 600;
},
{
layerId = "9788F852-2321-4FD5-ACA0-A5D578398D57";
shapes = (
{
closed = 1;
nodes = (
(480,0,l),
(480,134,l),
(568,134,l),
(568,250,l),
(480,250,l),
(480,698,l),
(302,698,l),
(30,262,l),
(30,134,l),
(337,134,l),
(337,0,l)
);
},
{
closed = 1;
nodes = (
(327,543,l),
(337,543,l),
(337,250,l),
(150,250,l)
);
}
);
width = 600;
},
{
layerId = "5F1C4D15-0292-4B2F-99F7-EAF0A1F73F4C";
shapes = (
{
closed = 1;
nodes = (
(455,0,l),
(455,137,l),
(556,137,l),
(556,207,l),
(455,207,l),
(455,698,l),
(330,698,l),
(38,211,l),
(38,137,l),
(375,137,l),
(375,0,l)
);
},
{
closed = 1;
nodes = (
(370,633,l),
(375,633,l),
(375,207,l),
(117,207,l)
);
}
);
width = 600;
},
{
layerId = "DC266226-4982-477B-8795-7301990C7B86";
shapes = (
{
closed = 1;
nodes = (
(432,0,l),
(432,160,l),
(550,160,l),
(550,179,l),
(432,179,l),
(432,698,l),
(407,698,l),
(47,181,l),
(47,160,l),
(412,160,l),
(412,0,l)
);
},
{
closed = 1;
nodes = (
(410,670,l),
(412,670,l),
(412,179,l),
(69,179,l)
);
}
);
width = 600;
}
);
unicode = 52;
},
{
glyphname = five;
layers = (
{
layerId = "8DAE0D43-6C5F-4F99-A87C-49FC71346395";
shapes = (
{
closed = 1;
nodes = (
(538,698,l),
(76,698,l),
(49,296,l),
(207,274,l),
(212,282,o),
(224,291,o),
(242,301,cs),
(260,312,o),
(280,316,o),
(303,316,cs),
(348,316,o),
(381,285,o),
(381,240,cs),
(381,233,ls),
(381,207,o),
(374,186,o),
(361,168,cs),
(346,149,o),
(325,141,o),
(297,141,cs),
(265,141,o),
(238,152,o),
(217,172,cs),
(196,193,o),
(178,216,o),
(165,243,c),
(25,132,l),
(53,80,o),
(99,32,o),
(169,8,c),
(205,-6,o),
(246,-12,o),
(295,-12,cs),
(421,-12,o),
(508,35,o),
(552,114,cs),
(574,152,o),
(585,197,o),
(585,246,cs),
(585,340,o),
(540,409,o),
(476,446,c),
(441,463,o),
(405,472,o),
(365,472,cs),
(299,472,o),
(263,447,o),
(240,407,c),
(229,386,o),
(218,364,o),
(211,338,c),
(202,338,l),
(214,529,l),
(538,529,l)
);
}
);
width = 600;
},
{
layerId = "9788F852-2321-4FD5-ACA0-A5D578398D57";
shapes = (
{
closed = 1;
nodes = (
(522,698,l),
(95,698,l),
(69,303,l),
(192,286,l),
(201,297,o),
(215,308,o),
(233,319,cs),
(251,330,o),
(273,335,o),
(300,335,cs),
(365,335,o),
(405,295,o),
(405,231,cs),
(405,223,ls),
(405,189,o),
(396,162,o),
(378,141,cs),
(359,120,o),
(332,110,o),
(296,110,cs),
(260,110,o),
(231,120,o),
(210,139,cs),
(189,158,o),
(170,181,o),
(155,208,c),
(46,122,l),
(74,75,o),
(116,31,o),
(180,7,c),
(212,-6,o),
(250,-12,o),
(295,-12,cs),
(410,-12,o),
(491,33,o),
(532,108,cs),
(553,145,o),
(563,188,o),
(563,235,cs),
(563,328,o),
(521,395,o),
(457,431,c),
(424,448,o),
(388,457,o),
(348,457,cs),
(289,457,o),
(254,437,o),
(230,404,cs),
(218,387,o),
(207,368,o),
(198,346,c),
(190,346,l),
(205,567,l),
(522,567,l)
);
}
);
width = 600;
},
{
layerId = "5F1C4D15-0292-4B2F-99F7-EAF0A1F73F4C";
shapes = (
{
closed = 1;
nodes = (
(498,698,l),
(124,698,l),
(99,314,l),
(170,304,l),
(185,320,o),
(201,334,o),
(220,346,cs),
(238,357,o),
(263,363,o),
(295,363,cs),
(390,363,o),
(441,310,o),
(441,218,cs),
(441,208,ls),
(441,162,o),
(429,126,o),
(404,101,cs),
(379,76,o),
(342,63,o),
(295,63,cs),
(253,63,o),
(221,72,o),
(200,89,cs),
(178,106,o),
(158,128,o),
(140,155,c),
(77,107,l),
(105,67,o),
(141,29,o),
(196,6,cs),
(223,-6,o),
(256,-12,o),
(295,-12,cs),
(394,-12,o),
(465,30,o),
(502,99,cs),
(521,134,o),
(530,174,o),
(530,219,cs),
(530,310,o),
(492,374,o),
(429,409,cs),
(398,426,o),
(362,435,o),
(322,435,cs),
(274,435,o),
(240,422,o),
(215,399,cs),
(202,388,o),
(190,374,o),
(179,358,c),
(172,358,l),
(192,624,l),
(498,624,l)
);
}
);
width = 600;
},
{
layerId = "DC266226-4982-477B-8795-7301990C7B86";
shapes = (
{
closed = 1;
nodes = (
(481,698,l),
(140,698,l),
(114,326,l),
(137,323,l),
(158,347,o),
(180,365,o),
(204,376,cs),
(228,387,o),
(261,393,o),
(304,393,cs),
(419,393,o),
(481,321,o),
(481,216,cs),
(481,188,ls),
(481,135,o),
(465,92,o),
(433,59,cs),
(401,25,o),
(356,8,o),
(297,8,cs),
(252,8,o),
(214,16,o),
(182,32,cs),
(150,47,o),
(123,72,o),
(102,106,c),
(84,95,l),
(115,47,o),
(156,15,o),
(209,-1,c),
(236,-8,o),
(265,-12,o),
(297,-12,cs),
(382,-12,o),
(446,24,o),
(480,89,cs),
(497,121,o),
(505,159,o),
(505,203,cs),
(505,291,o),
(472,355,o),
(413,388,cs),
(383,405,o),
(347,413,o),
(304,413,cs),
(255,413,o),
(214,405,o),
(182,385,cs),
(165,374,o),
(150,360,o),
(137,343,c),
(134,344,l),
(158,678,l),
(481,678,l)
);
}
);
width = 600;
}
);
unicode = 53;
},
{
glyphname = six;
layers = (
{
layerId = "9788F852-2321-4FD5-ACA0-A5D578398D57";
shapes = (
{
closed = 1;
nodes = (
(132,-12,o),
(41,98,o),
(41,260,cs),
(41,456,o),
(166,611,o),
(297,698,c),
(311,698,l),
(455,642,l),
(323,565,o),
(226,468,o),
(205,357,c),
(215,354,l),
(233,406,o),
(278,450,o),
(363,450,cs),
(480,450,o),
(569,365,o),
(569,233,cs),
(569,91,o),
(466,-12,o),
(304,-12,cs)
);
},
{
closed = 1;
nodes = (
(370,102,o),
(411,143,o),
(411,207,cs),
(411,233,ls),
(411,295,o),
(370,336,o),
(305,336,cs),
(238,336,o),
(198,295,o),
(198,233,cs),
(198,207,ls),
(198,144,o),
(240,102,o),
(305,102,cs)
);
}
);
width = 600;
},
{
layerId = "5F1C4D15-0292-4B2F-99F7-EAF0A1F73F4C";
shapes = (
{
closed = 1;
nodes = (
(140,-12,o),
(64,96,o),
(64,243,cs),
(64,454,o),
(186,607,o),
(329,698,c),
(340,698,l),
(418,662,l),
(303,593,o),
(192,493,o),
(169,358,c),
(175,356,l),
(198,409,o),
(250,434,o),
(331,434,cs),
(455,434,o),
(540,351,o),
(540,219,cs),
(540,83,o),
(447,-12,o),
(302,-12,cs)
);
},
{
closed = 1;
nodes = (
(393,55,o),
(449,114,o),
(449,197,cs),
(449,226,ls),
(449,308,o),
(393,367,o),
(302,367,cs),
(209,367,o),
(155,308,o),
(155,226,cs),
(155,199,ls),
(155,116,o),
(212,55,o),
(302,55,cs)
);
}
);
width = 600;
},
{
layerId = "DC266226-4982-477B-8795-7301990C7B86";
shapes = (
{
closed = 1;
nodes = (
(148,-12,o),
(87,94,o),
(87,226,cs),
(87,452,o),
(206,603,o),
(360,698,c),
(370,698,l),
(377,684,l),
(237,600,o),
(141,474,o),
(113,311,c),
(116,310,l),
(152,383,o),
(216,417,o),
(299,417,cs),
(429,417,o),
(511,337,o),
(511,205,cs),
(511,75,o),
(429,-12,o),
(300,-12,cs)
);
},
{
closed = 1;
nodes = (
(417,8,o),
(487,85,o),
(487,187,cs),
(487,218,ls),
(487,320,o),
(417,397,o),
(299,397,cs),
(179,397,o),
(111,320,o),
(111,218,cs),
(111,190,ls),
(111,87,o),
(184,8,o),
(299,8,cs)
);
}
);
width = 600;
},
{
layerId = "8DAE0D43-6C5F-4F99-A87C-49FC71346395";
shapes = (
{
closed = 1;
nodes = (
(127,-12,o),
(25,100,o),
(25,271,cs),
(25,458,o),
(152,614,o),
(276,698,c),
(291,698,l),
(480,628,l),
(336,547,o),
(248,451,o),
(229,356,c),
(241,352,l),
(257,404,o),
(296,461,o),
(385,461,cs),
(497,461,o),
(588,375,o),
(588,242,cs),
(588,96,o),
(478,-12,o),
(306,-12,cs)
);
},
{
closed = 1;
nodes = (
(354,134,o),
(386,163,o),
(386,213,cs),
(386,238,ls),
(386,287,o),
(354,316,o),
(307,316,cs),
(258,316,o),
(227,287,o),
(227,238,cs),
(227,213,ls),
(227,163,o),
(258,134,o),
(307,134,cs)
);
}
);
width = 600;
}
);
unicode = 54;
},
{
glyphname = seven;
layers = (
{
layerId = "8DAE0D43-6C5F-4F99-A87C-49FC71346395";
shapes = (
{
closed = 1;
nodes = (
(160,0,l),
(363,0,l),
(564,531,l),
(564,698,l),
(46,698,l),
(46,543,l),
(372,543,l)
);
}
);
width = 600;
},
{
layerId = "9788F852-2321-4FD5-ACA0-A5D578398D57";
shapes = (
{
closed = 1;
nodes = (
(166,0,l),
(324,0,l),
(549,568,l),
(549,698,l),
(55,698,l),
(55,576,l),
(400,576,l)
);
}
);
width = 600;
},
{
layerId = "5F1C4D15-0292-4B2F-99F7-EAF0A1F73F4C";
shapes = (
{
closed = 1;
nodes = (
(175,0,l),
(265,0,l),
(527,624,l),
(527,698,l),
(69,698,l),
(69,626,l),
(442,626,l)
);
}
);
width = 600;
},
{
layerId = "DC266226-4982-477B-8795-7301990C7B86";
shapes = (
{
closed = 1;
nodes = (
(187,0,l),
(211,0,l),
(512,678,l),
(512,698,l),
(77,698,l),
(77,678,l),
(489,678,l)
);
}
);
width = 600;
}
);
unicode = 55;
},
{
glyphname = eight;
layers = (
{
layerId = "8DAE0D43-6C5F-4F99-A87C-49FC71346395";
shapes = (
{
closed = 1;
nodes = (
(414,-12,o),
(496,26,o),
(540,87,c),
(561,118,o),
(572,152,o),
(572,192,cs),
(572,277,o),
(520,335,o),
(438,358,c),
(438,366,l),
(502,391,o),
(551,438,o),
(551,520,cs),
(551,573,o),
(530,618,o),
(488,655,cs),
(446,692,o),
(382,710,o),
(300,710,cs),
(218,710,o),
(155,692,o),
(113,655,cs),
(71,618,o),
(49,573,o),
(49,520,cs),
(49,438,o),
(98,391,o),
(162,366,c),
(162,358,l),
(80,335,o),
(28,277,o),
(28,192,cs),
(28,114,o),
(73,50,o),
(155,15,cs),
(196,-3,o),
(244,-12,o),
(300,-12,cs)
);
},
{
closed = 1;
nodes = (
(275,120,o),
(255,127,o),
(242,141,cs),
(228,155,o),
(220,173,o),
(220,195,cs),
(220,216,ls),
(220,238,o),
(228,256,o),
(242,270,cs),
(255,284,o),
(275,291,o),
(300,291,cs),
(325,291,o),
(347,284,o),
(361,270,c),
(372,256,o),
(380,238,o),
(380,216,cs),
(380,195,ls),
(380,173,o),
(372,155,o),
(361,141,c),
(347,127,o),
(325,120,o),
(300,120,cs)
);
},
{
closed = 1;
nodes = (
(253,417,o),
(226,444,o),
(226,484,cs),
(226,500,ls),
(226,540,o),
(253,567,o),
(300,567,cs),
(347,567,o),
(374,540,o),
(374,500,cs),
(374,484,ls),
(374,444,o),
(347,417,o),
(300,417,cs)
);
}
);
width = 600;
},
{
layerId = "9788F852-2321-4FD5-ACA0-A5D578398D57";
shapes = (
{
closed = 1;
nodes = (
(411,-12,o),
(489,26,o),
(530,87,cs),
(550,118,o),
(560,152,o),
(560,191,cs),
(560,280,o),
(506,337,o),
(423,360,c),
(423,368,l),
(491,393,o),
(539,445,o),
(539,526,cs),
(539,579,o),
(519,623,o),
(478,658,cs),
(437,693,o),
(377,710,o),
(300,710,cs),
(223,710,o),
(164,693,o),
(123,658,cs),
(82,623,o),
(61,579,o),
(61,526,cs),
(61,445,o),
(109,393,o),
(177,368,c),
(177,360,l),
(94,337,o),
(40,280,o),
(40,191,cs),
(40,114,o),
(82,50,o),
(160,15,cs),
(199,-3,o),
(245,-12,o),
(300,-12,cs)
);
},
{
closed = 1;
nodes = (
(267,103,o),
(242,111,o),
(224,127,cs),
(206,143,o),
(197,165,o),
(197,192,cs),
(197,212,ls),
(197,239,o),
(206,261,o),
(224,277,cs),
(242,293,o),
(267,301,o),
(300,301,cs),
(333,301,o),
(359,293,o),
(377,277,cs),
(394,261,o),
(403,239,o),
(403,212,cs),
(403,192,ls),
(403,165,o),
(394,143,o),
(377,127,cs),
(359,111,o),
(333,103,o),
(300,103,cs)
);
},
{
closed = 1;
nodes = (
(237,411,o),
(202,443,o),
(202,495,cs),
(202,511,ls),
(202,563,o),
(237,595,o),
(300,595,cs),
(363,595,o),
(398,563,o),
(398,511,cs),
(398,495,ls),
(398,443,o),
(363,411,o),
(300,411,cs)
);
}
);
width = 600;
},
{
layerId = "5F1C4D15-0292-4B2F-99F7-EAF0A1F73F4C";
shapes = (
{
closed = 1;
nodes = (
(407,-12,o),
(478,26,o),
(515,87,cs),
(533,118,o),
(542,152,o),
(542,190,cs),
(542,285,o),
(485,340,o),
(401,363,c),
(401,371,l),
(474,396,o),
(521,455,o),
(521,535,cs),
(521,588,o),
(502,631,o),
(463,663,cs),
(424,694,o),
(369,710,o),
(300,710,cs),
(231,710,o),
(177,694,o),
(138,663,cs),
(99,631,o),
(79,588,o),
(79,535,cs),
(79,455,o),
(126,396,o),
(199,371,c),
(199,363,l),
(115,340,o),
(58,285,o),
(58,190,cs),
(58,114,o),
(95,50,o),
(167,15,cs),
(203,-3,o),
(247,-12,o),
(300,-12,cs)
);
},
{
closed = 1;
nodes = (
(251,61,o),
(214,72,o),
(187,94,cs),
(160,116,o),
(147,147,o),
(147,186,cs),
(147,207,ls),
(147,246,o),
(160,277,o),
(187,299,cs),
(214,321,o),
(251,332,o),
(300,332,cs),
(349,332,o),
(386,321,o),
(413,299,cs),
(440,277,o),
(453,246,o),
(453,207,cs),
(453,186,ls),
(453,147,o),
(440,116,o),
(413,94,cs),
(386,72,o),
(349,61,o),
(300,61,cs)
);
},
{
closed = 1;
nodes = (
(213,402,o),
(166,441,o),
(166,512,cs),
(166,527,ls),
(166,598,o),
(213,637,o),
(300,637,cs),
(387,637,o),
(434,598,o),
(434,527,cs),
(434,512,ls),
(434,441,o),
(387,402,o),
(300,402,cs)
);
}
);
width = 600;
},
{
layerId = "DC266226-4982-477B-8795-7301990C7B86";
shapes = (
{
closed = 1;
nodes = (
(393,-12,o),
(463,22,o),
(500,79,cs),
(519,108,o),
(528,141,o),
(528,180,cs),
(528,279,o),
(469,348,o),
(374,364,c),
(374,368,l),
(454,384,o),
(504,446,o),
(504,535,cs),
(504,588,o),
(486,631,o),
(449,663,cs),
(412,694,o),
(363,710,o),
(300,710,cs),
(237,710,o),
(188,694,o),
(151,663,cs),
(114,631,o),
(96,588,o),
(96,535,cs),
(96,446,o),
(146,384,o),
(226,368,c),
(226,364,l),
(131,348,o),
(72,279,o),
(72,180,cs),
(72,103,o),
(111,44,o),
(179,12,cs),
(213,-4,o),
(253,-12,o),
(300,-12,cs)
);
},
{
closed = 1;
nodes = (
(238,8,o),
(189,23,o),
(152,53,cs),
(115,83,o),
(96,122,o),
(96,169,cs),
(96,195,ls),
(96,242,o),
(115,281,o),
(152,311,cs),
(189,341,o),
(238,356,o),
(300,356,cs),
(362,356,o),
(412,341,o),
(449,311,cs),
(486,281,o),
(504,242,o),
(504,195,cs),
(504,169,ls),
(504,122,o),
(486,83,o),
(449,53,cs),
(412,23,o),
(362,8,o),
(300,8,cs)
);
},
{
closed = 1;
nodes = (
(191,376,o),
(120,434,o),
(120,521,cs),
(120,545,ls),
(120,632,o),
(191,690,o),
(300,690,cs),
(409,690,o),
(480,632,o),
(480,545,cs),
(480,521,ls),
(480,434,o),
(409,376,o),
(300,376,cs)
);
}
);
width = 600;
}
);
unicode = 56;
},
{
glyphname = nine;
layers = (
{
layerId = "9788F852-2321-4FD5-ACA0-A5D578398D57";
shapes = (
{
closed = 1;
nodes = (
(468,710,o),
(559,600,o),
(559,438,cs),
(559,242,o),
(434,87,o),
(303,0,c),
(289,0,l),
(145,56,l),
(277,133,o),
(374,230,o),
(395,341,c),
(385,344,l),
(367,292,o),
(322,248,o),
(237,248,cs),
(120,248,o),
(31,333,o),
(31,465,cs),
(31,607,o),
(134,710,o),
(296,710,cs)
);
},
{
closed = 1;
nodes = (
(230,596,o),
(189,555,o),
(189,491,cs),
(189,465,ls),
(189,403,o),
(230,362,o),
(295,362,cs),
(362,362,o),
(402,403,o),
(402,465,cs),
(402,491,ls),
(402,554,o),
(360,596,o),
(295,596,cs)
);
}
);
width = 600;
},
{
layerId = "5F1C4D15-0292-4B2F-99F7-EAF0A1F73F4C";
shapes = (
{
closed = 1;
nodes = (
(460,710,o),
(536,602,o),
(536,455,cs),
(536,244,o),
(414,91,o),
(271,0,c),
(260,0,l),
(182,36,l),
(297,105,o),
(408,205,o),
(431,340,c),
(425,342,l),
(402,289,o),
(350,264,o),
(269,264,cs),
(145,264,o),
(60,347,o),
(60,479,cs),
(60,615,o),
(153,710,o),
(298,710,cs)
);
},
{
closed = 1;
nodes = (
(207,643,o),
(151,584,o),
(151,501,cs),
(151,472,ls),
(151,390,o),
(207,331,o),
(298,331,cs),
(391,331,o),
(445,390,o),
(445,472,cs),
(445,499,ls),
(445,582,o),
(388,643,o),
(298,643,cs)
);
}
);
width = 600;
},
{
layerId = "DC266226-4982-477B-8795-7301990C7B86";
shapes = (
{
closed = 1;
nodes = (
(452,710,o),
(513,604,o),
(513,472,cs),
(513,246,o),
(394,95,o),
(240,0,c),
(230,0,l),
(223,14,l),
(363,98,o),
(459,224,o),
(487,387,c),
(484,388,l),
(448,315,o),
(384,281,o),
(301,281,cs),
(171,281,o),
(89,361,o),
(89,493,cs),
(89,623,o),
(171,710,o),
(300,710,cs)
);
},
{
closed = 1;
nodes = (
(183,690,o),
(113,613,o),
(113,511,cs),
(113,480,ls),
(113,378,o),
(183,301,o),
(301,301,cs),
(421,301,o),
(489,378,o),
(489,480,cs),
(489,508,ls),
(489,611,o),
(416,690,o),
(301,690,cs)
);
}
);
width = 600;
},
{
layerId = "8DAE0D43-6C5F-4F99-A87C-49FC71346395";
shapes = (
{
closed = 1;
nodes = (
(473,710,o),
(575,598,o),
(575,427,cs),
(575,240,o),
(448,84,o),
(324,0,c),
(309,0,l),
(120,70,l),
(264,151,o),
(352,247,o),
(371,342,c),
(359,346,l),
(343,294,o),
(304,237,o),
(215,237,cs),
(103,237,o),
(12,323,o),
(12,456,cs),
(12,602,o),
(122,710,o),
(294,710,cs)
);
},
{
closed = 1;
nodes = (
(246,564,o),
(214,535,o),
(214,485,cs),
(214,460,ls),
(214,411,o),
(246,382,o),
(293,382,cs),
(342,382,o),
(373,411,o),
(373,460,cs),
(373,485,ls),
(373,535,o),
(342,564,o),
(293,564,cs)
);
}
);
width = 600;
}
);
unicode = 57;
},
{
glyphname = zero.osf;
layers = (
{
layerId = "8DAE0D43-6C5F-4F99-A87C-49FC71346395";
shapes = (
{
closed = 1;
nodes = (
(420,-12,o),
(507,43,o),
(555,130,cs),
(579,174,o),
(591,222,o),
(591,276,cs),
(591,385,o),
(540,476,o),
(455,527,cs),
(413,552,o),
(364,565,o),
(310,565,cs),
(200,565,o),
(113,510,o),
(65,423,cs),
(41,380,o),
(29,332,o),
(29,276,cs),
(29,168,o),
(80,77,o),
(164,26,cs),
(207,1,o),
(256,-12,o),
(310,-12,cs)
);
},
{
closed = 1;
nodes = (
(276,144,o),
(256,161,o),
(244,185,c),
(239,198,o),
(235,211,o),
(235,225,cs),
(235,327,ls),
(235,357,o),
(247,384,o),
(268,398,cs),
(279,406,o),
(294,409,o),
(310,409,cs),
(344,409,o),
(366,392,o),
(377,367,cs),
(383,354,o),
(385,341,o),
(385,327,cs),
(385,225,ls),
(385,195,o),
(373,171,o),
(351,156,cs),
(340,148,o),
(326,144,o),
(310,144,cs)
);
}
);
width = 634;
},
{
layerId = "9788F852-2321-4FD5-ACA0-A5D578398D57";
shapes = (
{
closed = 1;
nodes = (
(405,-12,o),
(488,39,o),
(533,125,cs),
(556,168,o),
(567,217,o),
(567,273,cs),
(567,386,o),
(519,474,o),
(439,522,cs),
(399,546,o),
(353,558,o),
(302,558,cs),
(199,558,o),
(116,507,o),
(71,422,cs),
(48,379,o),
(37,330,o),
(37,273,cs),
(37,161,o),
(85,72,o),
(165,24,cs),
(205,0,o),
(251,-12,o),
(302,-12,cs)
);
},
{
closed = 1;
nodes = (
(259,110,o),
(227,129,o),
(209,162,cs),
(200,179,o),
(195,199,o),
(195,222,cs),
(195,324,ls),
(195,371,o),
(214,405,o),
(246,423,cs),
(262,432,o),
(281,436,o),
(302,436,cs),
(345,436,o),
(378,417,o),
(396,384,cs),
(405,367,o),
(409,347,o),
(409,324,cs),
(409,222,ls),
(409,175,o),
(390,142,o),
(358,124,cs),
(342,115,o),
(323,110,o),
(302,110,cs)
);
}
);
width = 612;
},
{
layerId = "5F1C4D15-0292-4B2F-99F7-EAF0A1F73F4C";
shapes = (
{
closed = 1;
nodes = (
(384,-12,o),
(460,33,o),
(501,117,cs),
(522,159,o),
(532,209,o),
(532,268,cs),
(532,387,o),
(488,471,o),
(416,515,cs),
(379,537,o),
(338,548,o),
(291,548,cs),
(198,548,o),
(122,503,o),
(81,420,cs),
(60,378,o),
(50,327,o),
(50,268,cs),
(50,151,o),
(94,65,o),
(167,21,cs),
(203,-1,o),
(244,-12,o),
(291,-12,cs)
);
},
{
closed = 1;
nodes = (
(235,59,o),
(185,81,o),
(157,128,cs),
(143,151,o),
(136,181,o),
(136,217,cs),
(136,319,ls),
(136,392,o),
(166,437,o),
(214,460,cs),
(237,471,o),
(263,477,o),
(291,477,cs),
(348,477,o),
(397,455,o),
(425,409,cs),
(439,386,o),
(446,356,o),
(446,319,cs),
(446,217,ls),
(446,145,o),
(416,99,o),
(369,76,cs),
(346,65,o),
(320,59,o),
(291,59,cs)
);
}
);
width = 580;
},
{
layerId = "DC266226-4982-477B-8795-7301990C7B86";
shapes = (
{
closed = 1;
nodes = (
(376,-12,o),
(447,30,o),
(487,111,c),
(506,152,o),
(516,202,o),
(516,263,cs),
(516,384,o),
(474,466,o),
(406,507,cs),
(371,528,o),
(332,538,o),
(288,538,cs),
(200,538,o),
(129,496,o),
(90,415,cs),
(70,374,o),
(60,324,o),
(60,263,cs),
(60,142,o),
(102,60,o),
(171,19,cs),
(205,-2,o),
(244,-12,o),
(288,-12,cs)
);
},
{
closed = 1;
nodes = (
(208,7,o),
(145,47,o),
(110,116,cs),
(92,151,o),
(83,192,o),
(83,239,cs),
(83,287,ls),
(83,382,o),
(121,453,o),
(182,491,cs),
(213,510,o),
(248,519,o),
(288,519,cs),
(368,519,o),
(431,479,o),
(467,410,c),
(484,375,o),
(493,334,o),
(493,287,cs),
(493,239,ls),
(493,144,o),
(455,74,o),
(394,36,cs),
(363,17,o),
(328,7,o),
(288,7,cs)
);
}
);
width = 578;
}
);
},
{
glyphname = zero.alt01.osf;
layers = (
{
layerId = "8DAE0D43-6C5F-4F99-A87C-49FC71346395";
shapes = (
{
closed = 1;
nodes = (
(352,217,o),
(373,238,o),
(373,268,cs),
(373,284,ls),
(373,314,o),
(352,336,o),
(310,336,cs),
(268,336,o),
(247,315,o),
(247,285,cs),
(247,269,ls),
(247,238,o),
(268,217,o),
(310,217,cs)
);
},
{
closed = 1;
nodes = (
(276,144,o),
(254,161,o),
(243,185,cs),
(237,198,o),
(233,211,o),
(233,225,cs),
(233,327,ls),
(233,357,o),
(245,384,o),
(268,398,c),
(279,406,o),
(294,409,o),
(310,409,cs),
(345,409,o),
(368,392,o),
(379,367,cs),
(385,354,o),
(387,341,o),
(387,327,cs),
(387,225,ls),
(387,195,o),
(375,171,o),
(353,156,cs),
(342,148,o),
(327,144,o),
(310,144,cs)
);
},
{
closed = 1;
nodes = (
(420,-12,o),
(507,43,o),
(555,130,cs),
(579,174,o),
(591,222,o),
(591,276,cs),
(591,385,o),
(540,476,o),
(455,527,cs),
(413,552,o),
(364,565,o),
(310,565,cs),
(200,565,o),
(113,510,o),
(65,423,cs),
(41,380,o),
(29,332,o),
(29,276,cs),
(29,168,o),
(80,77,o),
(164,26,cs),
(207,1,o),
(256,-12,o),
(310,-12,cs)
);
}
);
width = 634;
},
{
layerId = "9788F852-2321-4FD5-ACA0-A5D578398D57";
shapes = (
{
closed = 1;
nodes = (
(341,216,o),
(360,237,o),
(360,266,cs),
(360,280,ls),
(360,309,o),
(341,330,o),
(302,330,cs),
(263,330,o),
(244,309,o),
(244,280,cs),
(244,266,ls),
(244,237,o),
(263,216,o),
(302,216,cs)
);
},
{
closed = 1;
nodes = (
(259,110,o),
(226,129,o),
(208,162,cs),
(199,179,o),
(194,199,o),
(194,222,cs),
(194,324,ls),
(194,371,o),
(213,405,o),
(246,423,cs),
(262,432,o),
(281,436,o),
(302,436,cs),
(346,436,o),
(379,417,o),
(397,384,cs),
(406,367,o),
(410,347,o),
(410,324,cs),
(410,222,ls),
(410,175,o),
(391,142,o),
(359,124,cs),
(343,115,o),
(324,110,o),
(302,110,cs)
);
},
{
closed = 1;
nodes = (
(405,-12,o),
(488,39,o),
(533,125,cs),
(556,168,o),
(567,217,o),
(567,273,cs),
(567,386,o),
(519,474,o),
(439,522,cs),
(399,546,o),
(353,558,o),
(302,558,cs),
(199,558,o),
(116,507,o),
(71,422,cs),
(48,379,o),
(37,330,o),
(37,273,cs),
(37,161,o),
(85,72,o),
(165,24,cs),
(205,0,o),
(251,-12,o),
(302,-12,cs)
);
}
);
width = 612;
},
{
layerId = "5F1C4D15-0292-4B2F-99F7-EAF0A1F73F4C";
shapes = (
{
closed = 1;
nodes = (
(326,215,o),
(342,236,o),
(342,263,cs),
(342,274,ls),
(342,301,o),
(326,321,o),
(291,321,cs),
(256,321,o),
(240,300,o),
(240,273,cs),
(240,262,ls),
(240,235,o),
(256,215,o),
(291,215,cs)
);
},
{
closed = 1;
nodes = (
(235,59,o),
(185,81,o),
(157,128,cs),
(143,151,o),
(136,181,o),
(136,217,cs),
(136,319,ls),
(136,392,o),
(166,437,o),
(214,460,cs),
(237,471,o),
(263,477,o),
(291,477,cs),
(348,477,o),
(397,455,o),
(425,409,cs),
(439,386,o),
(446,356,o),
(446,319,cs),
(446,217,ls),
(446,145,o),
(416,99,o),
(369,76,cs),
(346,65,o),
(320,59,o),
(291,59,cs)
);
},
{
closed = 1;
nodes = (
(384,-12,o),
(460,33,o),
(501,117,cs),
(522,159,o),
(532,209,o),
(532,268,cs),
(532,387,o),
(488,471,o),
(416,515,cs),
(379,537,o),
(338,548,o),
(291,548,cs),
(198,548,o),
(122,503,o),
(81,420,cs),
(60,378,o),
(50,327,o),
(50,268,cs),
(50,151,o),
(94,65,o),
(167,21,cs),
(203,-1,o),
(244,-12,o),
(291,-12,cs)
);
}
);
width = 580;
},
{
layerId = "DC266226-4982-477B-8795-7301990C7B86";
shapes = (
{
closed = 1;
nodes = (
(305,239,o),
(312,248,o),
(312,259,cs),
(312,267,ls),
(312,278,o),
(305,287,o),
(288,287,cs),
(271,287,o),
(264,278,o),
(264,267,cs),
(264,259,ls),
(264,248,o),
(271,239,o),
(288,239,cs)
);
},
{
closed = 1;
nodes = (
(208,7,o),
(145,47,o),
(110,116,cs),
(92,151,o),
(83,192,o),
(83,239,cs),
(83,287,ls),
(83,382,o),
(121,453,o),
(182,491,cs),
(213,510,o),
(248,519,o),
(288,519,cs),
(368,519,o),
(431,479,o),
(467,410,c),
(484,375,o),
(493,334,o),
(493,287,cs),
(493,239,ls),
(493,144,o),
(455,74,o),
(394,36,cs),
(363,17,o),
(328,7,o),
(288,7,cs)
);
},
{
closed = 1;
nodes = (
(376,-12,o),
(447,30,o),
(487,111,c),
(506,152,o),
(516,202,o),
(516,263,cs),
(516,384,o),
(474,466,o),
(406,507,cs),
(371,528,o),
(332,538,o),
(288,538,cs),
(200,538,o),
(129,496,o),
(90,415,cs),
(70,374,o),
(60,324,o),
(60,263,cs),
(60,142,o),
(102,60,o),
(171,19,cs),
(205,-2,o),
(244,-12,o),
(288,-12,cs)
);
}
);
width = 578;
}
);
},
{
glyphname = zero.alt02.osf;
layers = (
{
layerId = "8DAE0D43-6C5F-4F99-A87C-49FC71346395";
shapes = (
{
closed = 1;
nodes = (
(420,-12,o),
(507,43,o),
(555,130,cs),
(579,174,o),
(591,222,o),
(591,276,cs),
(591,385,o),
(540,476,o),
(455,527,cs),
(413,552,o),
(364,565,o),
(310,565,cs),
(200,565,o),
(113,510,o),
(65,423,cs),
(41,380,o),
(29,332,o),
(29,276,cs),
(29,168,o),
(80,77,o),
(164,26,cs),
(207,1,o),
(256,-12,o),
(310,-12,cs)
);
},
{
closed = 1;
nodes = (
(285,136,o),
(267,145,o),
(252,152,c),
(328,218,l),
(404,285,l),
(405,285,l),
(402,283,o),
(400,269,o),
(400,271,c),
(400,225,ls),
(400,193,o),
(387,164,o),
(360,148,cs),
(347,140,o),
(329,136,o),
(310,136,cs)
);
},
{
closed = 1;
nodes = (
(337,417,o),
(353,411,o),
(368,400,c),
(291,333,l),
(217,268,l),
(215,268,l),
(218,270,o),
(220,283,o),
(220,282,c),
(220,327,ls),
(220,360,o),
(233,389,o),
(260,405,cs),
(273,413,o),
(290,417,o),
(310,417,cs)
);
}
);
width = 634;
},
{
layerId = "9788F852-2321-4FD5-ACA0-A5D578398D57";
shapes = (
{
closed = 1;
nodes = (
(405,-12,o),
(488,39,o),
(533,125,cs),
(556,168,o),
(567,217,o),
(567,273,cs),
(567,386,o),
(519,474,o),
(439,522,cs),
(399,546,o),
(353,558,o),
(302,558,cs),
(199,558,o),
(116,507,o),
(71,422,cs),
(48,379,o),
(37,330,o),
(37,273,cs),
(37,161,o),
(85,72,o),
(165,24,cs),
(205,0,o),
(251,-12,o),
(302,-12,cs)
);
},
{
closed = 1;
nodes = (
(269,105,o),
(241,116,o),
(221,133,c),
(319,227,l),
(417,322,l),
(418,322,l),
(418,314,o),
(418,298,o),
(418,290,cs),
(418,222,ls),
(418,174,o),
(398,138,o),
(363,119,cs),
(346,110,o),
(325,105,o),
(302,105,cs)
);
},
{
closed = 1;
nodes = (
(337,441,o),
(363,432,o),
(383,413,c),
(284,318,l),
(188,224,l),
(186,224,l),
(186,232,o),
(186,248,o),
(186,256,cs),
(186,324,ls),
(186,373,o),
(206,408,o),
(241,427,cs),
(258,436,o),
(279,441,o),
(302,441,cs)
);
}
);
width = 612;
},
{
layerId = "5F1C4D15-0292-4B2F-99F7-EAF0A1F73F4C";
shapes = (
{
closed = 1;
nodes = (
(384,-12,o),
(460,33,o),
(501,117,cs),
(522,159,o),
(532,209,o),
(532,268,cs),
(532,387,o),
(488,471,o),
(416,515,cs),
(379,537,o),
(338,548,o),
(291,548,cs),
(198,548,o),
(122,503,o),
(81,420,cs),
(60,378,o),
(50,327,o),
(50,268,cs),
(50,151,o),
(94,65,o),
(167,21,cs),
(203,-1,o),
(244,-12,o),
(291,-12,cs)
);
},
{
closed = 1;
nodes = (
(246,59,o),
(203,73,o),
(175,104,c),
(306,241,l),
(437,378,l),
(438,378,l),
(443,361,o),
(446,342,o),
(446,319,cs),
(446,217,ls),
(446,145,o),
(416,99,o),
(369,76,cs),
(346,65,o),
(320,59,o),
(291,59,cs)
);
},
{
closed = 1;
nodes = (
(338,477,o),
(379,463,o),
(407,432,c),
(275,295,l),
(145,158,l),
(144,158,l),
(139,175,o),
(136,196,o),
(136,217,cs),
(136,319,ls),
(136,392,o),
(166,437,o),
(214,460,cs),
(237,471,o),
(263,477,o),
(291,477,cs)
);
}
);
width = 580;
},
{
layerId = "DC266226-4982-477B-8795-7301990C7B86";
shapes = (
{
closed = 1;
nodes = (
(376,-12,o),
(447,30,o),
(487,111,c),
(506,152,o),
(516,202,o),
(516,263,cs),
(516,384,o),
(474,466,o),
(406,507,cs),
(371,528,o),
(332,538,o),
(288,538,cs),
(200,538,o),
(129,496,o),
(90,415,cs),
(70,374,o),
(60,324,o),
(60,263,cs),
(60,142,o),
(102,60,o),
(171,19,cs),
(205,-2,o),
(244,-12,o),
(288,-12,cs)
);
},
{
closed = 1;
nodes = (
(224,7,o),
(169,33,o),
(133,80,c),
(293,255,l),
(453,431,l),
(454,431,l),
(478,394,o),
(493,344,o),
(493,287,cs),
(493,239,ls),
(493,144,o),
(455,74,o),
(394,36,cs),
(363,17,o),
(328,7,o),
(288,7,cs)
);
},
{
closed = 1;
nodes = (
(352,519,o),
(407,493,o),
(443,446,c),
(282,270,l),
(123,95,l),
(122,95,l),
(98,134,o),
(83,182,o),
(83,239,cs),
(83,287,ls),
(83,382,o),
(121,453,o),
(182,491,cs),
(213,510,o),
(248,519,o),
(288,519,cs)
);
}
);
width = 578;
}
);
},
{
glyphname = one.osf;
layers = (
{
layerId = "8DAE0D43-6C5F-4F99-A87C-49FC71346395";
shapes = (
{
closed = 1;
nodes = (
(539,0,l),
(539,152,l),
(402,152,l),
(402,552,l),
(202,552,l),
(64,479,l),
(64,299,l),
(210,375,l),
(210,152,l),
(50,152,l),
(50,0,l)
);
}
);
width = 565;
},
{
layerId = "9788F852-2321-4FD5-ACA0-A5D578398D57";
shapes = (
{
closed = 1;
nodes = (
(529,0,l),
(529,121,l),
(375,121,l),
(375,546,l),
(218,546,l),
(62,460,l),
(62,319,l),
(226,409,l),
(226,121,l),
(52,121,l),
(52,0,l)
);
}
);
width = 558;
},
{
layerId = "5F1C4D15-0292-4B2F-99F7-EAF0A1F73F4C";
shapes = (
{
closed = 1;
nodes = (
(513,0,l),
(513,74,l),
(333,74,l),
(333,536,l),
(241,536,l),
(58,431,l),
(58,348,l),
(249,460,l),
(249,74,l),
(54,74,l),
(54,0,l)
);
}
);
width = 548;
},
{
layerId = "DC266226-4982-477B-8795-7301990C7B86";
shapes = (
{
closed = 1;
nodes = (
(494,0,l),
(494,20,l),
(283,20,l),
(283,536,l),
(259,536,l),
(42,410,l),
(42,386,l),
(261,513,l),
(261,20,l),
(42,20,l),
(42,0,l)
);
}
);
width = 527;
}
);
},
{
glyphname = two.osf;
layers = (
{
layerId = "8DAE0D43-6C5F-4F99-A87C-49FC71346395";
shapes = (
{
closed = 1;
nodes = (
(62,0,l),
(571,0,l),
(571,145,l),
(314,145,l),
(352,156,l),
(401,176,o),
(466,211,o),
(509,262,c),
(529,289,o),
(541,320,o),
(541,360,cs),
(541,498,o),
(445,565,o),
(297,565,cs),
(211,565,o),
(145,536,o),
(100,495,cs),
(77,475,o),
(60,454,o),
(47,431,c),
(173,349,l),
(193,387,o),
(223,419,o),
(274,419,cs),
(288,419,o),
(302,413,o),
(318,403,c),
(333,391,o),
(341,375,o),
(341,355,cs),
(341,338,ls),
(341,327,o),
(337,307,o),
(316,285,cs),
(306,275,o),
(290,266,o),
(271,255,c),
(62,144,l)
);
}
);
width = 633;
},
{
layerId = "9788F852-2321-4FD5-ACA0-A5D578398D57";
shapes = (
{
closed = 1;
nodes = (
(63,0,l),
(545,0,l),
(545,115,l),
(254,115,l),
(321,149,ls),
(378,178,o),
(441,216,o),
(480,269,cs),
(499,296,o),
(509,327,o),
(509,364,cs),
(509,491,o),
(423,558,o),
(282,558,cs),
(203,558,o),
(143,530,o),
(102,490,cs),
(81,470,o),
(65,449,o),
(53,426,c),
(153,361,l),
(174,404,o),
(209,442,o),
(268,442,cs),
(291,442,o),
(311,435,o),
(329,422,c),
(346,408,o),
(355,388,o),
(355,362,cs),
(355,347,ls),
(355,323,o),
(341,296,o),
(311,269,cs),
(296,256,o),
(277,243,o),
(255,230,cs),
(63,119,l)
);
}
);
width = 613;
},
{
layerId = "5F1C4D15-0292-4B2F-99F7-EAF0A1F73F4C";
shapes = (
{
closed = 1;
nodes = (
(66,0,l),
(508,0,l),
(508,70,l),
(165,70,l),
(276,138,ls),
(345,181,o),
(405,224,o),
(438,279,cs),
(455,306,o),
(463,337,o),
(463,370,cs),
(463,481,o),
(392,548,o),
(261,548,cs),
(192,548,o),
(141,521,o),
(106,482,cs),
(88,462,o),
(74,441,o),
(63,419,c),
(124,379,l),
(147,430,o),
(189,477,o),
(260,477,cs),
(297,477,o),
(326,468,o),
(347,451,c),
(367,433,o),
(377,407,o),
(377,372,cs),
(377,360,ls),
(377,317,o),
(348,280,o),
(305,245,cs),
(283,227,o),
(259,209,o),
(233,192,cs),
(66,81,l)
);
}
);
width = 582;
},
{
layerId = "DC266226-4982-477B-8795-7301990C7B86";
shapes = (
{
closed = 1;
nodes = (
(57,0,l),
(484,0,l),
(484,20,l),
(85,20,l),
(281,156,ls),
(340,197,o),
(388,239,o),
(415,288,cs),
(428,312,o),
(435,339,o),
(435,368,cs),
(435,477,o),
(365,538,o),
(249,538,cs),
(186,538,o),
(138,514,o),
(103,475,cs),
(86,456,o),
(71,433,o),
(60,408,c),
(80,399,l),
(109,468,o),
(165,518,o),
(249,518,cs),
(302,518,o),
(342,505,o),
(370,480,c),
(397,454,o),
(411,420,o),
(411,379,cs),
(411,358,ls),
(411,310,o),
(383,267,o),
(339,228,cs),
(317,209,o),
(293,190,o),
(267,171,cs),
(57,22,l)
);
}
);
width = 538;
}
);
},
{
glyphname = three.osf;
layers = (
{
layerId = "8DAE0D43-6C5F-4F99-A87C-49FC71346395";
shapes = (
{
closed = 1;
nodes = (
(405,-149,o),
(487,-116,o),
(532,-55,cs),
(554,-24,o),
(566,13,o),
(566,55,cs),
(566,111,o),
(542,157,o),
(501,187,c),
(480,201,o),
(455,212,o),
(426,217,c),
(426,224,l),
(462,230,o),
(491,246,o),
(517,273,c),
(540,300,o),
(553,334,o),
(553,376,cs),
(553,451,o),
(513,509,o),
(437,541,c),
(400,558,o),
(354,565,o),
(298,565,cs),
(220,565,o),
(167,546,o),
(122,515,c),
(99,498,o),
(78,478,o),
(56,452,c),
(164,345,l),
(203,398,o),
(250,417,o),
(291,417,cs),
(313,417,o),
(329,411,o),
(339,399,cs),
(349,387,o),
(354,372,o),
(354,355,cs),
(354,336,ls),
(354,323,o),
(349,312,o),
(338,302,c),
(328,291,o),
(309,285,o),
(282,285,cs),
(229,285,l),
(229,142,l),
(274,142,ls),
(330,142,o),
(366,118,o),
(366,78,cs),
(366,63,ls),
(366,35,o),
(356,17,o),
(334,6,c),
(324,2,o),
(311,-2,o),
(297,-2,cs),
(236,-2,o),
(197,36,o),
(170,95,c),
(35,-12,l),
(67,-64,o),
(111,-108,o),
(178,-132,c),
(212,-143,o),
(251,-149,o),
(297,-149,cs)
);
}
);
width = 649;
},
{
layerId = "9788F852-2321-4FD5-ACA0-A5D578398D57";
shapes = (
{
closed = 1;
nodes = (
(385,-156,o),
(463,-121,o),
(506,-60,cs),
(527,-29,o),
(538,7,o),
(538,48,cs),
(538,109,o),
(511,155,o),
(468,184,cs),
(446,198,o),
(421,208,o),
(394,213,c),
(394,219,l),
(430,226,o),
(461,243,o),
(487,270,cs),
(512,297,o),
(525,332,o),
(525,375,cs),
(525,450,o),
(485,506,o),
(414,536,cs),
(379,551,o),
(337,558,o),
(288,558,cs),
(212,558,o),
(159,537,o),
(118,504,cs),
(97,487,o),
(78,468,o),
(60,445,c),
(149,362,l),
(184,415,o),
(230,441,o),
(283,441,cs),
(311,441,o),
(333,434,o),
(348,419,cs),
(363,404,o),
(371,384,o),
(371,359,cs),
(371,345,ls),
(371,324,o),
(363,306,o),
(347,291,cs),
(331,276,o),
(305,268,o),
(270,268,cs),
(209,268,l),
(209,153,l),
(268,153,ls),
(341,153,o),
(384,121,o),
(384,65,cs),
(384,53,ls),
(384,14,o),
(368,-13,o),
(337,-28,cs),
(322,-35,o),
(303,-39,o),
(282,-39,cs),
(213,-39,o),
(173,-1,o),
(142,56,c),
(37,-26,l),
(68,-73,o),
(109,-115,o),
(171,-139,c),
(202,-150,o),
(239,-156,o),
(282,-156,cs)
);
}
);
width = 623;
},
{
layerId = "5F1C4D15-0292-4B2F-99F7-EAF0A1F73F4C";
shapes = (
{
closed = 1;
nodes = (
(356,-166,o),
(428,-129,o),
(468,-68,c),
(487,-37,o),
(497,-2,o),
(497,37,cs),
(497,106,o),
(465,152,o),
(419,180,cs),
(396,193,o),
(371,202,o),
(346,207,c),
(346,211,l),
(383,220,o),
(416,239,o),
(443,266,cs),
(470,293,o),
(483,329,o),
(483,374,cs),
(483,449,o),
(443,501,o),
(380,528,cs),
(348,541,o),
(312,548,o),
(273,548,cs),
(200,548,o),
(148,523,o),
(112,488,cs),
(94,471,o),
(79,453,o),
(67,434,c),
(127,388,l),
(156,441,o),
(200,477,o),
(271,477,cs),
(308,477,o),
(339,468,o),
(362,449,cs),
(385,430,o),
(397,402,o),
(397,365,cs),
(397,358,ls),
(397,325,o),
(385,297,o),
(361,275,cs),
(336,253,o),
(300,242,o),
(253,242,cs),
(180,242,l),
(180,170,l),
(259,170,ls),
(358,170,o),
(411,126,o),
(411,46,cs),
(411,38,ls),
(411,-17,o),
(386,-58,o),
(342,-79,cs),
(319,-90,o),
(292,-95,o),
(260,-95,cs),
(179,-95,o),
(138,-57,o),
(101,-2,c),
(41,-47,l),
(70,-87,o),
(106,-125,o),
(161,-149,cs),
(188,-160,o),
(221,-166,o),
(260,-166,cs)
);
}
);
width = 584;
},
{
layerId = "DC266226-4982-477B-8795-7301990C7B86";
shapes = (
{
closed = 1;
nodes = (
(319,-176,o),
(384,-143,o),
(419,-84,cs),
(436,-55,o),
(445,-20,o),
(445,21,cs),
(445,89,o),
(419,140,o),
(375,169,cs),
(352,184,o),
(326,193,o),
(296,197,c),
(296,200,l),
(335,207,o),
(368,225,o),
(393,252,cs),
(418,279,o),
(430,317,o),
(430,366,cs),
(430,437,o),
(398,489,o),
(343,517,cs),
(316,531,o),
(283,538,o),
(246,538,cs),
(182,538,o),
(132,518,o),
(99,485,cs),
(82,468,o),
(69,449,o),
(60,427,c),
(78,419,l),
(109,478,o),
(157,518,o),
(246,518,cs),
(293,518,o),
(332,505,o),
(362,479,cs),
(391,453,o),
(406,419,o),
(406,376,cs),
(406,352,ls),
(406,309,o),
(391,275,o),
(360,248,cs),
(329,221,o),
(290,208,o),
(241,208,cs),
(153,208,l),
(153,188,l),
(243,188,ls),
(352,188,o),
(421,127,o),
(421,32,cs),
(421,4,ls),
(421,-60,o),
(387,-109,o),
(331,-136,c),
(302,-149,o),
(269,-156,o),
(232,-156,cs),
(151,-156,o),
(94,-123,o),
(53,-58,c),
(35,-69,l),
(66,-116,o),
(103,-148,o),
(152,-164,cs),
(176,-172,o),
(203,-176,o),
(232,-176,cs)
);
}
);
width = 544;
}
);
},
{
glyphname = four.osf;
layers = (
{
layerId = "8DAE0D43-6C5F-4F99-A87C-49FC71346395";
shapes = (
{
closed = 1;
nodes = (
(510,-137,l),
(510,0,l),
(584,0,l),
(584,137,l),
(510,137,l),
(510,553,l),
(294,553,l),
(23,147,l),
(23,0,l),
(322,0,l),
(322,-137,l)
);
},
{
closed = 1;
nodes = (
(308,334,l),
(322,334,l),
(322,137,l),
(178,137,l)
);
}
);
width = 614;
},
{
layerId = "9788F852-2321-4FD5-ACA0-A5D578398D57";
shapes = (
{
closed = 1;
nodes = (
(492,-144,l),
(492,0,l),
(578,0,l),
(578,110,l),
(492,110,l),
(492,546,l),
(312,546,l),
(30,118,l),
(30,0,l),
(347,0,l),
(347,-144,l)
);
},
{
closed = 1;
nodes = (
(337,389,l),
(347,389,l),
(347,110,l),
(155,110,l)
);
}
);
width = 615;
},
{
layerId = "5F1C4D15-0292-4B2F-99F7-EAF0A1F73F4C";
shapes = (
{
closed = 1;
nodes = (
(464,-154,l),
(464,0,l),
(568,0,l),
(568,70,l),
(464,70,l),
(464,536,l),
(338,536,l),
(40,74,l),
(40,0,l),
(384,0,l),
(384,-154,l)
);
},
{
closed = 1;
nodes = (
(380,471,l),
(384,471,l),
(384,70,l),
(120,70,l)
);
}
);
width = 617;
},
{
layerId = "DC266226-4982-477B-8795-7301990C7B86";
shapes = (
{
closed = 1;
nodes = (
(415,-164,l),
(415,0,l),
(533,0,l),
(533,19,l),
(415,19,l),
(415,526,l),
(390,526,l),
(38,21,l),
(38,0,l),
(395,0,l),
(395,-164,l)
);
},
{
closed = 1;
nodes = (
(393,498,l),
(395,498,l),
(395,19,l),
(60,19,l)
);
}
);
width = 597;
}
);
},
{
glyphname = five.osf;
layers = (
{
layerId = "8DAE0D43-6C5F-4F99-A87C-49FC71346395";
shapes = (
{
closed = 1;
nodes = (
(417,-149,o),
(502,-102,o),
(544,-26,cs),
(565,12,o),
(576,54,o),
(576,102,cs),
(576,198,o),
(533,262,o),
(470,298,c),
(437,315,o),
(401,325,o),
(363,325,cs),
(319,325,o),
(287,314,o),
(267,291,cs),
(247,268,o),
(233,239,o),
(223,206,c),
(215,206,l),
(230,399,l),
(532,399,l),
(532,553,l),
(90,553,l),
(60,158,l),
(219,137,l),
(224,144,o),
(235,152,o),
(250,163,cs),
(263,172,o),
(282,176,o),
(305,176,cs),
(346,176,o),
(376,139,o),
(376,94,cs),
(376,85,ls),
(376,60,o),
(369,40,o),
(356,23,cs),
(343,6,o),
(324,-2,o),
(300,-2,cs),
(269,-2,o),
(246,8,o),
(228,25,cs),
(208,44,o),
(192,66,o),
(179,93,c),
(44,-14,l),
(71,-66,o),
(116,-108,o),
(181,-132,c),
(215,-143,o),
(254,-149,o),
(297,-149,cs)
);
}
);
width = 648;
},
{
layerId = "9788F852-2321-4FD5-ACA0-A5D578398D57";
shapes = (
{
closed = 1;
nodes = (
(402,-156,o),
(481,-111,o),
(521,-38,cs),
(541,-1,o),
(551,40,o),
(551,87,cs),
(551,180,o),
(510,245,o),
(447,280,cs),
(415,297,o),
(379,306,o),
(340,306,cs),
(300,306,o),
(270,297,o),
(249,278,cs),
(228,259,o),
(212,234,o),
(200,205,c),
(192,205,l),
(209,426,l),
(511,426,l),
(511,546,l),
(99,546,l),
(71,159,l),
(194,142,l),
(203,153,o),
(216,163,o),
(232,174,cs),
(247,184,o),
(268,189,o),
(294,189,cs),
(357,189,o),
(397,144,o),
(397,81,cs),
(397,72,ls),
(397,39,o),
(388,13,o),
(370,-8,cs),
(352,-29,o),
(326,-39,o),
(293,-39,cs),
(258,-39,o),
(231,-30,o),
(211,-13,cs),
(190,5,o),
(172,27,o),
(157,54,c),
(52,-28,l),
(80,-75,o),
(121,-115,o),
(182,-139,c),
(213,-150,o),
(249,-156,o),
(290,-156,cs)
);
}
);
width = 618;
},
{
layerId = "5F1C4D15-0292-4B2F-99F7-EAF0A1F73F4C";
shapes = (
{
closed = 1;
nodes = (
(380,-166,o),
(450,-125,o),
(487,-56,cs),
(506,-21,o),
(515,19,o),
(515,64,cs),
(515,153,o),
(477,219,o),
(414,253,cs),
(383,270,o),
(347,278,o),
(306,278,cs),
(273,278,o),
(245,271,o),
(223,258,cs),
(201,245,o),
(182,227,o),
(166,204,c),
(159,204,l),
(179,466,l),
(481,466,l),
(481,536,l),
(113,536,l),
(88,160,l),
(157,150,l),
(172,166,o),
(188,180,o),
(206,191,cs),
(224,202,o),
(248,208,o),
(279,208,cs),
(375,208,o),
(429,152,o),
(429,61,cs),
(429,53,ls),
(429,8,o),
(417,-28,o),
(392,-55,cs),
(367,-82,o),
(330,-95,o),
(283,-95,cs),
(242,-95,o),
(210,-87,o),
(187,-70,cs),
(164,-53,o),
(143,-31,o),
(125,-4,c),
(65,-49,l),
(94,-88,o),
(130,-126,o),
(184,-149,cs),
(211,-160,o),
(243,-166,o),
(281,-166,cs)
);
}
);
width = 573;
},
{
layerId = "DC266226-4982-477B-8795-7301990C7B86";
shapes = (
{
closed = 1;
nodes = (
(350,-176,o),
(412,-140,o),
(445,-76,cs),
(462,-43,o),
(470,-5,o),
(470,39,cs),
(470,127,o),
(439,191,o),
(380,224,cs),
(351,241,o),
(315,249,o),
(274,249,cs),
(238,249,o),
(207,244,o),
(182,234,cs),
(156,223,o),
(133,205,o),
(113,179,c),
(110,180,l),
(134,506,l),
(446,506,l),
(446,526,l),
(116,526,l),
(90,162,l),
(113,159,l),
(134,183,o),
(156,201,o),
(179,212,cs),
(202,223,o),
(233,229,o),
(274,229,cs),
(386,229,o),
(446,157,o),
(446,52,cs),
(446,24,ls),
(446,-29,o),
(431,-72,o),
(400,-106,cs),
(369,-139,o),
(324,-156,o),
(267,-156,cs),
(224,-156,o),
(187,-148,o),
(156,-133,cs),
(125,-117,o),
(99,-92,o),
(78,-58,c),
(60,-69,l),
(91,-117,o),
(131,-149,o),
(182,-165,c),
(207,-172,o),
(236,-176,o),
(267,-176,cs)
);
}
);
width = 529;
}
);
},
{
glyphname = seven.osf;
layers = (
{
layerId = "8DAE0D43-6C5F-4F99-A87C-49FC71346395";
shapes = (
{
closed = 1;
nodes = (
(326,-137,l),
(535,409,l),
(535,553,l),
(20,553,l),
(20,404,l),
(342,404,l),
(122,-137,l)
);
}
);
width = 571;
},
{
layerId = "9788F852-2321-4FD5-ACA0-A5D578398D57";
shapes = (
{
closed = 1;
nodes = (
(284,-144,l),
(509,431,l),
(509,546,l),
(23,546,l),
(23,429,l),
(360,429,l),
(126,-144,l)
);
}
);
width = 555;
},
{
layerId = "5F1C4D15-0292-4B2F-99F7-EAF0A1F73F4C";
shapes = (
{
closed = 1;
nodes = (
(221,-154,l),
(471,464,l),
(471,536,l),
(28,536,l),
(28,466,l),
(388,466,l),
(133,-154,l)
);
}
);
width = 531;
},
{
layerId = "DC266226-4982-477B-8795-7301990C7B86";
shapes = (
{
closed = 1;
nodes = (
(165,-164,l),
(443,506,l),
(443,526,l),
(30,526,l),
(30,506,l),
(420,506,l),
(141,-164,l)
);
}
);
width = 509;
}
);
},
{
glyphname = eight.osf;
layers = (
{
layerId = "8DAE0D43-6C5F-4F99-A87C-49FC71346395";
shapes = (
{
closed = 1;
nodes = (
(409,-12,o),
(493,28,o),
(537,89,cs),
(559,120,o),
(570,154,o),
(570,192,cs),
(570,280,o),
(514,338,o),
(431,358,c),
(431,366,l),
(494,388,o),
(549,428,o),
(549,517,cs),
(549,570,o),
(528,616,o),
(485,653,cs),
(442,691,o),
(381,710,o),
(299,710,cs),
(217,710,o),
(155,691,o),
(112,653,cs),
(70,616,o),
(49,570,o),
(49,517,cs),
(49,472,o),
(62,439,o),
(86,416,cs),
(109,394,o),
(137,376,o),
(169,366,c),
(169,358,l),
(85,338,o),
(28,280,o),
(28,192,cs),
(28,116,o),
(75,52,o),
(155,15,c),
(197,-3,o),
(244,-12,o),
(299,-12,cs)
);
},
{
closed = 1;
nodes = (
(273,122,o),
(253,128,o),
(239,143,cs),
(226,157,o),
(218,175,o),
(218,196,cs),
(218,217,ls),
(218,240,o),
(225,258,o),
(240,272,c),
(254,287,o),
(275,293,o),
(299,293,cs),
(323,293,o),
(344,287,o),
(360,272,c),
(373,258,o),
(380,240,o),
(380,217,cs),
(380,196,ls),
(380,175,o),
(373,157,o),
(360,143,c),
(344,128,o),
(325,122,o),
(299,122,cs)
);
},
{
closed = 1;
nodes = (
(252,413,o),
(222,441,o),
(222,482,cs),
(222,499,ls),
(222,537,o),
(249,568,o),
(299,568,cs),
(349,568,o),
(376,537,o),
(376,499,cs),
(376,482,ls),
(376,441,o),
(346,413,o),
(299,413,cs)
);
}
);
width = 600;
},
{
layerId = "9788F852-2321-4FD5-ACA0-A5D578398D57";
shapes = (
{
closed = 1;
nodes = (
(403,-12,o),
(481,27,o),
(522,88,cs),
(542,119,o),
(552,153,o),
(552,191,cs),
(552,282,o),
(496,339,o),
(412,360,c),
(412,368,l),
(480,391,o),
(531,439,o),
(531,524,cs),
(531,577,o),
(511,622,o),
(470,657,cs),
(429,692,o),
(371,710,o),
(294,710,cs),
(217,710,o),
(159,692,o),
(118,657,cs),
(77,622,o),
(57,577,o),
(57,524,cs),
(57,481,o),
(69,448,o),
(92,423,cs),
(115,398,o),
(143,379,o),
(177,368,c),
(177,360,l),
(93,339,o),
(36,282,o),
(36,191,cs),
(36,115,o),
(78,51,o),
(155,15,cs),
(194,-3,o),
(240,-12,o),
(294,-12,cs)
);
},
{
closed = 1;
nodes = (
(261,101,o),
(235,109,o),
(217,126,cs),
(198,143,o),
(189,165,o),
(189,192,cs),
(189,212,ls),
(189,240,o),
(198,262,o),
(217,279,cs),
(235,296,o),
(261,304,o),
(294,304,cs),
(327,304,o),
(353,296,o),
(372,279,cs),
(390,262,o),
(399,240,o),
(399,212,cs),
(399,192,ls),
(399,165,o),
(390,143,o),
(372,126,cs),
(353,109,o),
(327,101,o),
(294,101,cs)
);
},
{
closed = 1;
nodes = (
(231,408,o),
(194,443,o),
(194,495,cs),
(194,511,ls),
(194,562,o),
(230,597,o),
(294,597,cs),
(358,597,o),
(394,562,o),
(394,511,cs),
(394,495,ls),
(394,443,o),
(357,408,o),
(294,408,cs)
);
}
);
width = 592;
},
{
layerId = "5F1C4D15-0292-4B2F-99F7-EAF0A1F73F4C";
shapes = (
{
closed = 1;
nodes = (
(394,-12,o),
(464,26,o),
(500,87,c),
(517,118,o),
(526,152,o),
(526,190,cs),
(526,285,o),
(469,340,o),
(384,363,c),
(384,371,l),
(459,396,o),
(505,455,o),
(505,535,cs),
(505,588,o),
(486,631,o),
(448,663,cs),
(410,694,o),
(356,710,o),
(287,710,cs),
(218,710,o),
(165,694,o),
(127,663,cs),
(88,631,o),
(69,588,o),
(69,535,cs),
(69,495,o),
(80,461,o),
(102,433,cs),
(124,404,o),
(153,384,o),
(190,371,c),
(190,363,l),
(105,340,o),
(48,285,o),
(48,190,cs),
(48,114,o),
(83,50,o),
(155,15,cs),
(190,-3,o),
(234,-12,o),
(287,-12,cs)
);
},
{
closed = 1;
nodes = (
(239,57,o),
(202,68,o),
(175,91,cs),
(148,114,o),
(134,145,o),
(134,184,cs),
(134,206,ls),
(134,245,o),
(147,276,o),
(174,299,cs),
(201,322,o),
(238,333,o),
(287,333,cs),
(336,333,o),
(373,322,o),
(400,299,cs),
(427,276,o),
(440,245,o),
(440,206,cs),
(440,184,ls),
(440,145,o),
(427,114,o),
(400,91,cs),
(373,68,o),
(335,57,o),
(287,57,cs)
);
},
{
closed = 1;
nodes = (
(200,401,o),
(153,446,o),
(153,515,cs),
(153,529,ls),
(153,600,o),
(202,641,o),
(287,641,cs),
(372,641,o),
(421,600,o),
(421,529,cs),
(421,515,ls),
(421,446,o),
(374,401,o),
(287,401,cs)
);
}
);
width = 580;
},
{
layerId = "DC266226-4982-477B-8795-7301990C7B86";
shapes = (
{
closed = 1;
nodes = (
(368,-12,o),
(434,22,o),
(470,79,cs),
(488,108,o),
(497,141,o),
(497,180,cs),
(497,279,o),
(442,349,o),
(351,364,c),
(351,368,l),
(426,383,o),
(473,446,o),
(473,535,cs),
(473,588,o),
(455,631,o),
(420,663,cs),
(385,694,o),
(337,710,o),
(277,710,cs),
(217,710,o),
(169,694,o),
(134,663,cs),
(99,631,o),
(81,588,o),
(81,535,cs),
(81,490,o),
(92,453,o),
(114,424,cs),
(136,394,o),
(166,375,o),
(203,368,c),
(203,364,l),
(114,349,o),
(57,279,o),
(57,180,cs),
(57,103,o),
(95,44,o),
(161,12,cs),
(194,-4,o),
(232,-12,o),
(277,-12,cs)
);
},
{
closed = 1;
nodes = (
(218,8,o),
(170,23,o),
(135,53,cs),
(99,83,o),
(81,122,o),
(81,169,cs),
(81,195,ls),
(81,242,o),
(99,281,o),
(135,311,cs),
(170,341,o),
(218,356,o),
(277,356,cs),
(336,356,o),
(384,341,o),
(420,311,cs),
(455,281,o),
(473,242,o),
(473,195,cs),
(473,169,ls),
(473,122,o),
(455,83,o),
(420,53,cs),
(384,23,o),
(336,8,o),
(277,8,cs)
);
},
{
closed = 1;
nodes = (
(173,376,o),
(105,434,o),
(105,521,cs),
(105,545,ls),
(105,632,o),
(173,690,o),
(277,690,cs),
(381,690,o),
(449,632,o),
(449,545,cs),
(449,521,ls),
(449,434,o),
(381,376,o),
(277,376,cs)
);
}
);
width = 570;
}
);
},
